<?xml version="1.0" encoding="UTF-8" standalone="no"?> <svg id="Kid_avatar" data-name="Kid avatar" xmlns="http://www.w3.org/2000/svg" viewBox="0 0 64 64"><path d="M50,61H14l.43-8.6A12,12,0,0,1,26.415,41h11.17A12,12,0,0,1,49.57,52.4Z" style="fill:#48a3d2"/><polygon points="14 61 21 61 22 52 14.46 52 14 61" style="fill:#ffcbbe"/><polygon points="49.54 52 42 52 43 61 50 61 49.54 52" style="fill:#ffcbbe"/><path d="M28,40h4a0,0,0,0,1,0,0v2a4,4,0,0,1-4,4H24a0,0,0,0,1,0,0V44A4,4,0,0,1,28,40Z" style="fill:#bdfdff"/><path d="M32,40h4a4,4,0,0,1,4,4v2a0,0,0,0,1,0,0H36a4,4,0,0,1-4-4V40a0,0,0,0,1,0,0Z" transform="translate(72 86) rotate(-180)" style="fill:#bdfdff"/><path d="M27,3H37A14,14,0,0,1,51,17V36a0,0,0,0,1,0,0H13a0,0,0,0,1,0,0V17A14,14,0,0,1,27,3Z" style="fill:#3e3d42"/><path d="M19,30H16.5A3.5,3.5,0,0,1,13,26.5h0A3.5,3.5,0,0,1,16.5,23H19Z" style="fill:#ffcbbe"/><path d="M45,30h2.5A3.5,3.5,0,0,0,51,26.5h0A3.5,3.5,0,0,0,47.5,23H45Z" style="fill:#ffcbbe"/><path d="M32,42h0A14,14,0,0,1,18,28V18h3l3-5,3,5H37l3-5,3,5h3V28A14,14,0,0,1,32,42Z" style="fill:#ffddce"/><path d="M37,2H27A15.018,15.018,0,0,0,12,17V36a1,1,0,0,0,1,1h7.03a15.075,15.075,0,0,0,3.47,3.34A13.065,13.065,0,0,0,13.43,52.35L13,60.95a1.025,1.025,0,0,0,.28.74A.975.975,0,0,0,14,62H50a.975.975,0,0,0,.72-.31,1.025,1.025,0,0,0,.28-.74l-.43-8.6A13.065,13.065,0,0,0,40.5,40.34,15.075,15.075,0,0,0,43.97,37H51a1,1,0,0,0,1-1V17A15.018,15.018,0,0,0,37,2ZM17.05,29H16.5A2.5,2.5,0,0,1,14,26.5,2.509,2.509,0,0,1,16.5,24H17v4C17,28.34,17.03,28.67,17.05,29ZM14,35V30.24a4.5,4.5,0,0,0,2.5.76h.8a15.147,15.147,0,0,0,1.44,4Zm6.11,25H15.05l.35-7h5.48Zm28.84,0H43.89l-.77-7H48.6ZM41,46V44a4.9,4.9,0,0,0-.25-1.53A11.086,11.086,0,0,1,48.39,51H42a1.022,1.022,0,0,0-.75.33.968.968,0,0,0-.24.78L41.88,60H22.12l.87-7.89a.968.968,0,0,0-.24-.78A1.022,1.022,0,0,0,22,51H15.61a11.086,11.086,0,0,1,7.64-8.53A4.9,4.9,0,0,0,23,44v2a1,1,0,0,0,1,1h4a4.994,4.994,0,0,0,4-2.03A4.994,4.994,0,0,0,36,47h4A1,1,0,0,0,41,46ZM25,45V44a2.943,2.943,0,0,1,1.04-2.24,14.778,14.778,0,0,0,4.79,1.18A2.989,2.989,0,0,1,28,45Zm8.17-2.06a14.778,14.778,0,0,0,4.79-1.18A2.943,2.943,0,0,1,39,44v1H36A2.989,2.989,0,0,1,33.17,42.94ZM45,28a13,13,0,0,1-26,0V19h2a.99.99,0,0,0,.86-.49L24,14.94l2.14,3.57A.99.99,0,0,0,27,19H37a.99.99,0,0,0,.86-.49L40,14.94l2.14,3.57A.99.99,0,0,0,43,19h2Zm5,7H45.26a15.147,15.147,0,0,0,1.44-4h.8a4.5,4.5,0,0,0,2.5-.76Zm-2.5-6h-.55c.02-.33.05-.66.05-1V24h.5A2.509,2.509,0,0,1,50,26.5,2.5,2.5,0,0,1,47.5,29ZM50,22.76A4.464,4.464,0,0,0,47.5,22H47V18a1,1,0,0,0-1-1H43.57l-2.71-4.51a1.037,1.037,0,0,0-1.72,0L36.43,17H27.57l-2.71-4.51a1.037,1.037,0,0,0-1.72,0L20.43,17H18a1,1,0,0,0-1,1v4h-.5a4.464,4.464,0,0,0-2.5.76V17A13.012,13.012,0,0,1,27,4H37A13.012,13.012,0,0,1,50,17Z"/><path d="M26,27a1,1,0,0,0,1-1V24a1,1,0,0,0-2,0v2A1,1,0,0,0,26,27Z"/><path d="M38,23a1,1,0,0,0-1,1v2a1,1,0,0,0,2,0V24A1,1,0,0,0,38,23Z"/><path d="M32,35c-2.71,0-5-1.374-5-3H25c0,2.8,3.075,5,7,5s7-2.2,7-5H37C37,33.626,34.71,35,32,35Z"/><circle cx="32" cy="50" r="1"/><circle cx="32" cy="54" r="1"/></svg>