<svg width="130" height="140" viewBox="0 0 130 140" fill="none" xmlns="http://www.w3.org/2000/svg">
<path d="M77.6989 0.813477H52.4897C47.9121 0.813477 44.2012 4.22126 44.2012 8.42497V26.7783C44.2012 30.982 47.9121 34.3898 52.4897 34.3898H77.6989C82.2765 34.3898 85.9874 30.982 85.9874 26.7783V8.42497C85.9874 4.22126 82.2765 0.813477 77.6989 0.813477Z" fill="#71C837"/>
<path d="M77.6989 36.0165H52.4897C47.9121 36.0165 44.2012 39.4243 44.2012 43.628V61.9813C44.2012 66.185 47.9121 69.5928 52.4897 69.5928H77.6989C82.2765 69.5928 85.9874 66.185 85.9874 61.9813V43.628C85.9874 39.4243 82.2765 36.0165 77.6989 36.0165Z" fill="#71C837"/>
<path d="M77.6989 71.2196H52.4897C47.9121 71.2196 44.2012 74.6274 44.2012 78.8311V97.1844C44.2012 101.388 47.9121 104.796 52.4897 104.796H77.6989C82.2765 104.796 85.9874 101.388 85.9874 97.1844V78.8311C85.9874 74.6274 82.2765 71.2196 77.6989 71.2196Z" fill="#71C837"/>
<path d="M77.6989 106.423H52.4897C47.9121 106.423 44.2012 109.831 44.2012 114.034V132.388C44.2012 136.591 47.9121 139.999 52.4897 139.999H77.6989C82.2765 139.999 85.9874 136.591 85.9874 132.388V114.034C85.9874 109.831 82.2765 106.423 77.6989 106.423Z" fill="#71C837"/>
<path d="M121.712 0.813477H96.5024C91.9248 0.813477 88.2139 4.22126 88.2139 8.42497V26.7783C88.2139 30.982 91.9248 34.3898 96.5024 34.3898H121.712C126.289 34.3898 130 30.982 130 26.7783V8.42497C130 4.22126 126.289 0.813477 121.712 0.813477Z" fill="#71C837"/>
<path d="M33.4977 36.0165H8.28854C3.71091 36.0165 0 39.4243 0 43.628V61.9813C0 66.185 3.71091 69.5928 8.28854 69.5928H33.4977C38.0753 69.5928 41.7862 66.185 41.7862 61.9813V43.628C41.7862 39.4243 38.0753 36.0165 33.4977 36.0165Z" fill="#71C837"/>
<path d="M33.4977 71.2196H8.28854C3.71091 71.2196 0 74.6274 0 78.8311V97.1844C0 101.388 3.71091 104.796 8.28854 104.796H33.4977C38.0753 104.796 41.7862 101.388 41.7862 97.1844V78.8311C41.7862 74.6274 38.0753 71.2196 33.4977 71.2196Z" fill="#71C837"/>
<path d="M33.4977 106.423H8.28854C3.71091 106.423 0 109.831 0 114.034V132.388C0 136.591 3.71091 139.999 8.28854 139.999H33.4977C38.0753 139.999 41.7862 136.591 41.7862 132.388V114.034C41.7862 109.831 38.0753 106.423 33.4977 106.423Z" fill="#71C837"/>
<path d="M121.712 70.7439H96.5024C91.9248 70.7439 88.2139 74.1517 88.2139 78.3554V96.7087C88.2139 100.912 91.9248 104.32 96.5024 104.32H121.712C126.289 104.32 130 100.912 130 96.7087V78.3554C130 74.1517 126.289 70.7439 121.712 70.7439Z" fill="#71C837"/>
<path d="M40.4305 16.4123C40.4305 25.4765 31.4183 32.8245 20.3012 32.8245C9.18408 32.8245 0.171875 25.4765 0.171875 16.4123C0.171875 7.34802 9.18408 0 20.3012 0C31.4183 0 40.4305 7.34802 40.4305 16.4123Z" fill="#D40000"/>
</svg>
