<svg id="Kid_avatar" data-name="Kid avatar" xmlns="http://www.w3.org/2000/svg" viewBox="0 0 64 64"><path d="M19,30H16.5A3.5,3.5,0,0,1,13,26.5h0A3.5,3.5,0,0,1,16.5,23H19Z" style="fill:#ffcbbe"/><path d="M45,30h2.5A3.5,3.5,0,0,0,51,26.5h0A3.5,3.5,0,0,0,47.5,23H45Z" style="fill:#ffcbbe"/><path d="M50,61H14l.43-8.6A12,12,0,0,1,26.415,41h11.17A12,12,0,0,1,49.57,52.4Z" style="fill:#e9656c"/><polygon points="14 61 21 61 22 52 14.46 52 14 61" style="fill:#ffcbbe"/><polygon points="49.54 52 42 52 43 61 50 61 49.54 52" style="fill:#ffcbbe"/><path d="M38,40c0,3.314-2.686,9-6,9s-6-5.686-6-9a6,6,0,0,1,12,0Z" style="fill:#ffcbbe"/><path d="M32,42h0A14,14,0,0,1,18,28V15l6-3H40l6,3V28A14,14,0,0,1,32,42Z" style="fill:#ffddce"/><path d="M31.275,3.017A15.279,15.279,0,0,0,17,18.424V23h2l1.053-4.213A5,5,0,0,1,24.9,15h.2c.538,2.742,3.241,4.848,6.554,4.985l.061,0c.094,0,.186.012.28.012.028,0,.055,0,.083,0,.043,0,.086,0,.129,0,3.361-.087,6.12-2.2,6.678-4.964a4.991,4.991,0,0,1,4.327,3.217L45,23h2V18A15,15,0,0,0,31.275,3.017Z" style="fill:#57565c"/><path d="M26,27a1,1,0,0,0,1-1V24a1,1,0,0,0-2,0v2A1,1,0,0,0,26,27Z" style="fill:#3e3d42"/><path d="M38,27a1,1,0,0,0,1-1V24a1,1,0,0,0-2,0v2A1,1,0,0,0,38,27Z" style="fill:#3e3d42"/><path d="M39,32H37c0,1.626-2.29,3-5,3s-5-1.374-5-3H25c0,2.8,3.075,5,7,5S39,34.8,39,32Z" style="fill:#3e3d42"/></svg>
