<svg width="301" height="150" viewBox="0 0 301 150" fill="none" xmlns="http://www.w3.org/2000/svg">
<path d="M0 0V150H301V0H0Z" fill="#00420C"/>
<path d="M17.9072 21.691V23.1449L35.0723 29.6875V30.4144H14.1756V48.5883C-1.52248 48.5984 -1.20758 67.3551 14.1756 67.4891V102.383L22.3851 103.11L14.922 100.929C14.922 97.353 13.1992 87.9274 16.6518 85.6833C19.433 83.8753 25.1337 84.936 28.3555 84.936V84.209H14.922V66.0352C0.381919 65.9085 0.534144 49.6153 14.922 49.3152V31.1414L39.5502 31.3708L71.6415 23.1449C66.5155 28.39 49.9309 31.1512 42.5354 31.8684L53.7301 37.8517L70.1489 44.5149L79.851 41.2093L102.987 31.8157L126.869 31.1414V48.5883C111.648 48.6308 111.573 66.7506 126.869 66.7621V82.7551H114.181V84.209H126.869V101.656C141.819 102.847 141.793 117.913 126.869 119.103V136.55H89.553V138.004H128.361V119.83C143.569 119.697 143.714 101.247 128.361 100.929V66.0352C113.583 65.9939 113.722 49.9385 128.361 49.3152V30.4144H106.718V29.6875L125.376 22.418L88.0604 8.56718L70.8952 3L54.4764 8.37417L17.9072 21.691Z" fill="#231F20"/>
<path d="M69.4026 23.145V23.872L71.6415 24.5989L69.4026 23.145Z" fill="#B38223"/>
<path d="M39.5502 31.1413L39.4511 57.3116L36.5649 70.3968L44.028 71.1237L40.4042 57.3116L40.2965 32.5952L70.8952 24.5987C62.8876 21.4248 48.1241 30.309 39.5502 31.1413Z" fill="#FAB226"/>
<path d="M63.9297 24.8411L64.4263 25.0827L63.9297 24.8411Z" fill="#A07523"/>
<path d="M69.9001 24.8411L70.3968 25.0827L69.9001 24.8411Z" fill="#705322"/>
<path d="M66.9149 25.5681L67.4116 25.8097L66.9149 25.5681Z" fill="#846123"/>
<path d="M58.7055 26.2949L59.2022 26.5365L58.7055 26.2949Z" fill="#B07F23"/>
<path d="M55.7203 27.022L56.2169 27.2636L55.7203 27.022Z" fill="#9A7023"/>
<path d="M61.6907 27.022L62.1874 27.2636L61.6907 27.022Z" fill="#705422"/>
<path d="M58.7055 27.749L59.2022 27.9906L58.7055 27.749Z" fill="#856223"/>
<path d="M50.4961 28.4758L50.9927 28.7174L50.4961 28.4758Z" fill="#AA7B23"/>
<path d="M53.4813 29.2029L53.978 29.4445L53.4813 29.2029Z" fill="#715521"/>
<path d="M50.4961 29.9297L50.9927 30.1713L50.4961 29.9297Z" fill="#866322"/>
<path d="M42.2867 30.6567L42.7833 30.8983L42.2867 30.6567Z" fill="#A37623"/>
<path d="M14.922 31.1414V31.8683H38.0576L14.922 31.1414Z" fill="#8B8C8C"/>
<path d="M45.2719 31.3838L45.7686 31.6254L45.2719 31.3838Z" fill="#705422"/>
<path d="M103.733 31.1414V31.8683H126.868L103.733 31.1414Z" fill="#515253"/>
<path d="M14.922 31.8684V49.3153H15.6683L14.922 31.8684Z" fill="#C5C5C5"/>
<path d="M15.6682 31.8684C15.6682 36.1012 17.3678 44.7563 14.9012 48.3572C11.5874 53.1948 3.64227 48.9621 3.75316 58.0387C3.85671 66.5133 11.7614 62.4097 14.9012 66.9933C17.3678 70.5942 15.6682 79.249 15.6682 83.4821H28.3555L30.2437 71.1239L30.5944 39.8649L38.8038 43.4997V31.8684H15.6682Z" fill="white"/>
<path d="M38.8039 31.8684V43.4997H39.5502L38.8039 31.8684Z" fill="#FDE1A9"/>
<path d="M41.0428 32.5954V53.677C48.7488 50.1733 53.5248 48.3075 61.9395 51.2774C64.7384 52.2653 68.0055 55.6761 70.8952 55.7216C74.7775 55.7826 79.6561 50.974 83.5825 49.8886C91.1366 47.8001 95.7988 51.6257 102.24 54.404V31.8684L79.8509 40.8981L70.1489 44.207L41.0428 32.5954Z" fill="#393536"/>
<path d="M102.24 31.8684V43.4997H102.987L102.24 31.8684Z" fill="#A1A0A0"/>
<path d="M102.987 31.8684V43.4997L111.942 39.8649L114.181 82.7551H126.868V67.4891C111.591 67.1392 111.961 48.6162 126.868 47.8614V31.8684H102.987Z" fill="white"/>
<path d="M40.2965 32.5952V54.4038H41.0428L40.2965 32.5952Z" fill="#B1822B"/>
<path d="M157.467 32.5952V33.3222H163.438L157.467 32.5952Z" fill="#8AA88F"/>
<path d="M186.325 32.8376L186.821 33.0792L186.325 32.8376Z" fill="#6B9171"/>
<path d="M187.32 32.9386C166.311 36.6295 172.617 70.4549 194.783 65.7513C214.461 61.5754 207.513 29.3909 187.32 32.9386Z" fill="white"/>
<path d="M192.295 32.8376L192.791 33.0792L192.295 32.8376Z" fill="#9EB7A2"/>
<path d="M214.933 32.5952V33.3222H227.62L214.933 32.5952ZM244.039 32.5952V33.3222H261.204L244.039 32.5952ZM271.653 32.5952V33.3222H284.34L271.653 32.5952Z" fill="#44744C"/>
<path d="M155.228 33.7863C132.913 40.0687 147.69 75.9516 167.805 64.8921C169.584 63.9139 170.948 61.1387 168.424 60.0637C165.818 58.9534 162.503 61.1299 159.706 60.78C152.901 59.9289 148.482 52.654 150.491 46.4075C151.883 42.0803 156.437 38.3547 161.199 38.5182C163.456 38.5957 166.902 40.626 168.954 39.1072C171.213 37.4351 168.913 34.904 167.125 34.157C163.882 32.8019 158.586 32.841 155.228 33.7863Z" fill="white"/>
<path d="M166.174 33.5645L166.671 33.806L166.174 33.5645Z" fill="#507D58"/>
<path d="M217.918 53.677C222.627 53.677 229.011 54.8493 232.677 51.3301C238.278 45.9522 235.766 34.8437 227.62 33.4855C224.737 33.0048 215.451 32.0408 213.461 34.4879C210.857 37.6905 212.694 47.5215 212.694 51.4961C212.694 54.3332 211.181 63.3583 213.887 65.1354C218.851 68.3949 217.918 55.5947 217.918 53.677ZM247.024 60.9465C247.024 58.1469 246.112 53.3223 249.374 51.9348C251.628 50.9763 260.73 53.0143 260.73 49.3153C260.73 45.6162 251.628 47.6542 249.374 46.6958C246.269 45.3754 247.024 41.0887 247.024 38.411C249.357 38.411 264.932 39.7186 262.566 34.9933C261.121 32.1093 244.518 32.0885 242.567 34.4879C241.12 36.268 241.8 39.9301 241.8 42.0457C241.8 48.0477 239.776 58.2269 242.25 63.7467C243.835 67.2815 261.813 67.7842 262.822 63.7893C263.937 59.3793 249.641 60.9465 247.024 60.9465Z" fill="white"/>
<path d="M261.951 33.3223L262.697 34.0492L261.951 33.3223Z" fill="#91AD96"/>
<path d="M270.61 34.0694C267.887 36.1704 269.414 44.783 269.414 47.8613C269.414 52.0672 267.722 60.7606 270.181 64.3501C273.454 69.1278 288.854 65.7854 292.517 62.8413C300.254 56.6209 299.656 41.645 291.792 35.8155C288.333 33.2514 283.997 33.3238 279.862 33.3222C277.379 33.3213 272.686 32.4685 270.61 34.0694Z" fill="white"/>
<path d="M287.077 33.5645L287.573 33.806L287.077 33.5645Z" fill="#87A68C"/>
<path d="M152.989 34.0493L153.736 34.7763L152.989 34.0493Z" fill="#658C6C"/>
<path d="M167.916 34.0493L168.662 34.7763L167.916 34.0493Z" fill="#83A388"/>
<path d="M262.697 34.0493L263.443 34.7763L262.697 34.0493Z" fill="#8BA990"/>
<path d="M151.497 34.7761L152.243 35.5031L151.497 34.7761Z" fill="#638B6A"/>
<path d="M181.349 34.7761L182.095 35.5031L181.349 34.7761Z" fill="#A1B9A5"/>
<path d="M211.948 34.7761V63.8543H212.694C212.694 55.5422 215.24 42.4179 211.948 34.7761Z" fill="#688F6F"/>
<path d="M231.352 34.7761L232.098 35.5031L231.352 34.7761Z" fill="#8FAC94"/>
<path d="M241.054 34.7761V63.8543H241.8C241.8 55.5422 244.346 42.4179 241.054 34.7761ZM268.667 34.7761V63.8543H269.414C269.414 55.5422 271.959 42.4179 268.667 34.7761Z" fill="#688F6F"/>
<path d="M291.803 35.5032L292.549 36.2301L291.803 35.5032Z" fill="#668D6D"/>
<path d="M170.154 36.23V38.4108H170.901L170.154 36.23Z" fill="#799B7F"/>
<path d="M232.845 36.23L233.591 36.9569L232.845 36.23Z" fill="#9DB6A1"/>
<path d="M292.549 36.23L293.296 36.9569L292.549 36.23Z" fill="#91AD96"/>
<path d="M148.511 36.957L149.258 37.684L148.511 36.957Z" fill="#688F6F"/>
<path d="M201.5 36.957L202.246 37.684L201.5 36.957Z" fill="#618968"/>
<path d="M233.591 36.957L234.337 37.684L233.591 36.957Z" fill="#628A69"/>
<path d="M262.697 36.957L263.443 37.684L262.697 36.957Z" fill="#93AF98"/>
<path d="M293.296 36.957L294.042 37.684L293.296 36.957Z" fill="#89A78E"/>
<path d="M147.765 37.6841L148.511 38.411L147.765 37.6841Z" fill="#628A69"/>
<path d="M261.951 37.6841L262.697 38.411L261.951 37.6841Z" fill="#80A186"/>
<path d="M294.042 37.6841L294.788 38.411L294.042 37.6841Z" fill="#6C9272"/>
<path d="M157.965 38.6533L158.461 38.8949L157.965 38.6533Z" fill="#7FA085"/>
<path d="M158.96 38.4109V39.1378H162.691L158.96 38.4109Z" fill="#35693E"/>
<path d="M163.189 38.6533L163.685 38.8949L163.189 38.6533Z" fill="#93AF98"/>
<path d="M187.071 38.6533L187.567 38.8949L187.071 38.6533Z" fill="#54805C"/>
<path d="M188.066 38.799C176.145 41.5654 178.994 63.1426 191.797 60.5924C204.677 58.0269 201.767 35.6194 188.066 38.799Z" fill="#00420C"/>
<path d="M217.918 38.4109V39.1378H227.62L217.918 38.4109Z" fill="#2C6235"/>
<path d="M234.337 38.4109L235.083 39.1378L234.337 38.4109Z" fill="#91AD96"/>
<path d="M247.024 38.4109V46.4074H247.771L247.024 38.4109Z" fill="#B0C4B3"/>
<path d="M247.771 38.4109V39.1378H261.204L247.771 38.4109Z" fill="#2C6235"/>
<path d="M274.638 38.4109V60.9464H275.384L274.638 38.4109Z" fill="#B0C4B3"/>
<path d="M275.384 38.4109V39.1378H285.086L275.384 38.4109Z" fill="#2C6235"/>
<path d="M185.081 39.1379L185.827 39.8649L185.081 39.1379Z" fill="#9AB49E"/>
<path d="M217.918 39.1377V48.5881C221.387 48.5881 237.049 45.9232 228.043 39.8849C225.599 38.246 220.758 39.1377 217.918 39.1377ZM275.384 39.1377V60.2194C279.117 60.2194 284.728 61.2238 287.912 58.9528C293.304 55.1068 293.368 43.1454 287.255 39.8849C284.1 38.2023 278.882 39.1377 275.384 39.1377Z" fill="#00420C"/>
<path d="M30.5945 39.8647V69.6698C37.2254 61.1371 45.752 44.1181 30.5945 39.8647ZM102.24 43.4995L103.21 55.8577L111.196 69.6698H111.942V39.8647L102.24 43.4995Z" fill="#39808B"/>
<path d="M154.482 39.8647L155.228 40.5917L154.482 39.8647Z" fill="#638B6A"/>
<path d="M176.125 39.8647L176.871 40.5917L176.125 39.8647Z" fill="#668D6D"/>
<path d="M203.738 39.8647L204.485 40.5917L203.738 39.8647Z" fill="#709576"/>
<path d="M235.332 40.3496L235.581 40.8342L235.332 40.3496Z" fill="#AFC3B2"/>
<path d="M229.113 40.5918L229.859 41.3187L229.113 40.5918Z" fill="#8FAC94"/>
<path d="M175.379 41.3188L176.125 42.0458L175.379 41.3188Z" fill="#7B9D81"/>
<path d="M204.485 41.3188L205.231 42.0458L204.485 41.3188Z" fill="#87A68C"/>
<path d="M29.8482 42.0457V47.1343H30.5945L29.8482 42.0457Z" fill="#ADCBCF"/>
<path d="M197.768 42.0457L198.514 42.7726L197.768 42.0457Z" fill="#638B6A"/>
<path d="M229.859 42.0457V44.9535H230.606L229.859 42.0457Z" fill="#B1C5B4"/>
<path d="M289.564 42.0457L290.31 42.7726L289.564 42.0457Z" fill="#638B6A"/>
<path d="M151.497 42.7727L152.243 43.4997L151.497 42.7727Z" fill="#608967"/>
<path d="M174.881 43.2573L175.13 43.7419L174.881 43.2573Z" fill="#ACC1AF"/>
<path d="M205.48 43.2573L205.728 43.7419L205.48 43.2573Z" fill="#BBCCBE"/>
<path d="M38.8039 43.4995V56.5847H39.5502L38.8039 43.4995Z" fill="#859463"/>
<path d="M111.942 43.4995V49.3151H112.689L111.942 43.4995Z" fill="#8CB5BB"/>
<path d="M297.276 43.9844L297.525 44.469L297.276 43.9844Z" fill="#9AB49E"/>
<path d="M102.24 44.2266L101.494 55.1309C103.998 52.9999 103.455 47.0472 102.24 44.2266Z" fill="#385D63"/>
<path d="M144.282 44.7112L144.531 45.1958L144.282 44.7112Z" fill="#B9CBBC"/>
<path d="M174.135 45.4382L174.383 45.9228L174.135 45.4382Z" fill="#6D9273"/>
<path d="M206.226 45.4382L206.475 45.9228L206.226 45.4382Z" fill="#7E9F84"/>
<path d="M291.305 45.4382L291.554 45.9228L291.305 45.4382Z" fill="#88A68D"/>
<path d="M150.253 46.165L150.501 46.6496L150.253 46.165Z" fill="#618968"/>
<path d="M173.886 46.4075V52.2231H174.632L173.886 46.4075Z" fill="#DCE5DD"/>
<path d="M200.007 46.4075V51.4961H200.753L200.007 46.4075Z" fill="#789B7E"/>
<path d="M235.332 46.8921L235.581 47.3767L235.332 46.8921Z" fill="#3C6E45"/>
<path d="M247.771 46.4075V47.1344H259.712L247.771 46.4075Z" fill="#D4DFD6"/>
<path d="M297.773 46.4075V52.2231H298.52L297.773 46.4075Z" fill="#598460"/>
<path d="M143.287 47.1343V52.2229H144.034L143.287 47.1343Z" fill="#648C6B"/>
<path d="M179.857 47.1343V51.496H180.603L179.857 47.1343Z" fill="#7E9F84"/>
<path d="M228.367 47.1343L229.113 47.8612L228.367 47.1343Z" fill="#74987A"/>
<path d="M122.391 47.8613V48.5883H124.63L122.391 47.8613Z" fill="#C6C6C6"/>
<path d="M124.63 47.8613V48.5883H126.868L124.63 47.8613Z" fill="#8C8D8D"/>
<path d="M227.62 47.8613L228.367 48.5883L227.62 47.8613Z" fill="#6C9272"/>
<path d="M217.918 48.5884V49.3153H226.874L217.918 48.5884Z" fill="#88A68D"/>
<path d="M9.69778 49.3152V50.0421H14.922L9.69778 49.3152Z" fill="#8B8C8C"/>
<path d="M43.2817 63.1273C51.4759 52.7396 66.5954 52.6613 70.8952 66.7621H71.6415C77.112 48.6542 98.452 54.8676 102.24 70.3969L111.942 71.1238C108.035 57.9149 97.6273 47.3456 82.8362 50.1684C78.9113 50.9174 74.6947 55.2352 70.8952 55.1331C63.3602 54.9307 58.1259 47.7059 49.2522 49.7C42.471 51.2239 38.1141 57.2919 43.2817 63.1273Z" fill="#57C7D4"/>
<path d="M83.5825 49.3152V50.0421H86.5677L83.5825 49.3152Z" fill="#4C979F"/>
<path d="M89.553 49.3152V50.0421H93.2845L89.553 49.3152Z" fill="#4A8D95"/>
<path d="M7.45883 50.0422L8.20514 50.7692L7.45883 50.0422Z" fill="#8B8C8C"/>
<path d="M117.166 50.769L117.913 51.496L117.166 50.769Z" fill="#A8A8A9"/>
<path d="M150.004 51.4961V53.677H150.75L150.004 51.4961Z" fill="#57825E"/>
<path d="M247.771 51.4961V52.2231H259.712L247.771 51.4961Z" fill="#9CB5A0"/>
<path d="M174.135 52.7078L174.383 53.1924L174.135 52.7078Z" fill="#618968"/>
<path d="M205.977 52.2231V54.404H206.724L205.977 52.2231Z" fill="#739779"/>
<path d="M247.024 52.2231V60.9466H247.771L247.024 52.2231Z" fill="#B0C4B3"/>
<path d="M229.859 52.95L230.606 53.6769L229.859 52.95Z" fill="#75987B"/>
<path d="M3.72726 53.677L4.47357 54.404L3.72726 53.677Z" fill="#A8A8A9"/>
<path d="M144.282 54.1616L144.531 54.6462L144.282 54.1616Z" fill="#89A78E"/>
<path d="M180.603 53.677L181.349 54.404L180.603 53.677Z" fill="#7C9E82"/>
<path d="M199.261 53.677L200.007 54.404L199.261 53.677Z" fill="#739779"/>
<path d="M217.918 53.677V54.404H228.367L217.918 53.677Z" fill="#D4DFD6"/>
<path d="M40.2965 54.4038V60.2194H41.0428L40.2965 54.4038Z" fill="#BCB967"/>
<path d="M297.276 54.8887L297.525 55.3732L297.276 54.8887Z" fill="#47764F"/>
<path d="M2.98102 55.1309V59.4926H3.72733L2.98102 55.1309Z" fill="#C5C5C5"/>
<path d="M44.0281 66.035C47.1988 63.1822 50.1054 59.6322 54.4764 58.5131C61.8427 56.627 68.2541 64.125 69.4026 70.3967H73.1342C75.8537 53.4251 95.8272 57.043 100.001 71.1237H111.196V70.3967H102.24C99.814 54.6307 75.0992 48.0998 71.6415 66.762C69.1499 61.6709 65.8996 56.4581 59.7006 55.3702C53.1104 54.2137 42.0405 57.9963 44.0281 66.035Z" fill="#39808B"/>
<path d="M150.75 55.1309L151.497 55.8578L150.75 55.1309Z" fill="#9DB6A1"/>
<path d="M174.881 55.6155L175.13 56.1001L174.881 55.6155Z" fill="#42724A"/>
<path d="M205.48 55.6155L205.728 56.1001L205.48 55.6155Z" fill="#507D58"/>
<path d="M290.31 55.1309L291.057 55.8578L290.31 55.1309Z" fill="#7C9E82"/>
<path d="M38.8039 56.5847V60.2195H39.5502L38.8039 56.5847Z" fill="#97BF8F"/>
<path d="M144.78 56.5847L145.526 57.3117L144.78 56.5847Z" fill="#85A48A"/>
<path d="M182.095 56.5847L182.842 57.3117L182.095 56.5847Z" fill="#8EAB93"/>
<path d="M197.768 56.5847L198.514 57.3117L197.768 56.5847Z" fill="#94AF99"/>
<path d="M289.564 56.5847L290.31 57.3117L289.564 56.5847Z" fill="#80A186"/>
<path d="M296.281 56.5847L297.027 57.3117L296.281 56.5847Z" fill="#9AB49E"/>
<path d="M38.0576 57.3118L30.5945 71.1239H35.8187L38.0576 57.3118Z" fill="#57C7D4"/>
<path d="M114.43 57.7964L114.679 58.281L114.43 57.7964Z" fill="#C5C5C5"/>
<path d="M197.022 57.3118L197.768 58.0387L197.022 57.3118Z" fill="#608967"/>
<path d="M204.485 57.3118L205.231 58.0387L204.485 57.3118Z" fill="#6A9071"/>
<path d="M53.7301 58.0386V58.7655H58.9542L53.7301 58.0386ZM82.8362 58.0386V58.7655H87.314L82.8362 58.0386Z" fill="#2E5056"/>
<path d="M145.526 58.0386L146.273 58.7655L145.526 58.0386Z" fill="#87A68C"/>
<path d="M196.275 58.0386L197.022 58.7655L196.275 58.0386Z" fill="#5F8866"/>
<path d="M44.028 71.1239C41.2969 71.1239 32.3617 69.7293 30.7257 72.2471C28.6276 75.4762 40.3184 74.7587 41.7891 74.7587C41.9706 94.5311 67.7078 93.5483 69.4026 74.7587H73.1341C74.7417 93.9001 99.1259 94.1022 100.748 74.7587C102.538 74.7587 112.633 75.8012 112.001 72.7014C111.429 69.8973 102.19 71.1239 100.001 71.1239C97.2967 56.3552 74.6663 53.8228 73.1341 70.397H69.4026C67.7553 54.7316 44.1756 55.2423 44.028 71.1239Z" fill="#231F20"/>
<path d="M184.334 58.7656L185.081 59.4926L184.334 58.7656Z" fill="#83A388"/>
<path d="M195.529 58.7656L196.275 59.4926L195.529 58.7656Z" fill="#91AD96"/>
<path d="M168.662 59.4927L169.408 60.2196L168.662 59.4927Z" fill="#A0B8A4"/>
<path d="M176.871 59.4927L177.618 60.2196L176.871 59.4927Z" fill="#9FB8A3"/>
<path d="M286.579 59.4927L287.325 60.2196L286.579 59.4927Z" fill="#8FAC94"/>
<path d="M111.942 60.2195V66.0351H112.689L111.942 60.2195Z" fill="#83B0B6"/>
<path d="M115.176 60.7041L115.425 61.1887L115.176 60.7041Z" fill="#A8A8A9"/>
<path d="M147.019 60.2195L147.765 60.9464L147.019 60.2195Z" fill="#82A287"/>
<path d="M157.467 60.2195V60.9464H162.691L157.467 60.2195Z" fill="#366A3F"/>
<path d="M163.189 60.4619L163.685 60.7035L163.189 60.4619Z" fill="#7B9D81"/>
<path d="M192.295 60.4619L192.791 60.7035L192.295 60.4619Z" fill="#97B29B"/>
<path d="M247.771 60.2195V60.9464H261.204L247.771 60.2195ZM275.384 60.2195V60.9464H285.086L275.384 60.2195Z" fill="#709576"/>
<path d="M54.974 61.1887L55.4706 61.4303L54.974 61.1887Z" fill="#908E8F"/>
<path d="M56.4666 61.1887L56.9632 61.4303L56.4666 61.1887Z" fill="#C7C6C7"/>
<path d="M57.9592 61.1887L58.4558 61.4303L57.9592 61.1887Z" fill="#828081"/>
<path d="M83.5825 60.9465V61.6735H86.5677L83.5825 60.9465Z" fill="#ACAAAB"/>
<path d="M87.0655 61.1887L87.5617 61.4303L87.0655 61.1887Z" fill="#757273"/>
<path d="M147.765 60.9465L148.511 61.6735L147.765 60.9465Z" fill="#9BB59F"/>
<path d="M170.154 60.9465V63.1274H170.901L170.154 60.9465Z" fill="#82A287"/>
<path d="M52.9844 62.1843C39.8592 66.5288 43.7469 91.5381 58.9536 85.8504C71.1866 81.2742 68.0099 57.2109 52.9844 62.1843ZM81.3547 62.4205C69.1147 68.5649 78.9255 92.8117 92.4688 85.4316C104.146 79.0686 94.5144 55.8148 81.3547 62.4205Z" fill="white"/>
<path d="M262.697 61.6733L263.443 62.4003L262.697 61.6733Z" fill="#9CB5A0"/>
<path d="M4.47357 62.4004L5.21988 63.1273L4.47357 62.4004Z" fill="#6F7070"/>
<path d="M115.674 62.4004L116.42 63.1273L115.674 62.4004Z" fill="#A8A8A9"/>
<path d="M149.258 62.4004L150.004 63.1273L149.258 62.4004Z" fill="#7FA085"/>
<path d="M5.21988 63.1274L5.96619 63.8544L5.21988 63.1274Z" fill="#9A9B9B"/>
<path d="M49.9985 63.1274L50.7448 63.8544L49.9985 63.1274Z" fill="#9E9C9D"/>
<path d="M91.7919 63.1274L92.5382 63.8544L91.7919 63.1274Z" fill="#828081"/>
<path d="M5.96622 63.8542L6.71253 64.5812L5.96622 63.8542Z" fill="#6F7070"/>
<path d="M151.497 63.8542L152.243 64.5812L151.497 63.8542Z" fill="#8AA88F"/>
<path d="M169.408 63.8542L170.154 64.5812L169.408 63.8542Z" fill="#76997C"/>
<path d="M181.349 63.8542L182.095 64.5812L181.349 63.8542ZM198.514 63.8542L199.261 64.5812L198.514 63.8542Z" fill="#628A69"/>
<path d="M290.31 63.8542L291.057 64.5812L290.31 63.8542Z" fill="#8AA88F"/>
<path d="M7.45883 64.5813L8.20514 65.3082L7.45883 64.5813Z" fill="#A9A9AA"/>
<path d="M152.989 64.5813L153.736 65.3082L152.989 64.5813Z" fill="#86A58B"/>
<path d="M167.916 64.5813L168.662 65.3082L167.916 64.5813Z" fill="#99B39D"/>
<path d="M182.842 64.5813L183.588 65.3082L182.842 64.5813Z" fill="#7B9D81"/>
<path d="M197.022 64.5813L197.768 65.3082L197.022 64.5813Z" fill="#7C9E82"/>
<path d="M241.8 64.5813L242.547 65.3082L241.8 64.5813Z" fill="#92AE97"/>
<path d="M262.697 64.5813L263.443 65.3082L262.697 64.5813Z" fill="#678E6E"/>
<path d="M269.414 64.5813L270.16 65.3082L269.414 64.5813Z" fill="#92AE97"/>
<path d="M288.818 64.5813L289.564 65.3082L288.818 64.5813Z" fill="#8FAC94"/>
<path d="M8.95148 65.3081V66.0351H11.1904L8.95148 65.3081Z" fill="#8C8D8D"/>
<path d="M11.1904 65.3081V66.0351H14.9219L11.1904 65.3081Z" fill="#C6C6C6"/>
<path d="M29.8482 65.3081V69.6698H30.5945L29.8482 65.3081Z" fill="#C4D9DC"/>
<path d="M94.0308 65.3081L94.7771 66.0351L94.0308 65.3081Z" fill="#908E8F"/>
<path d="M118.659 65.3081L119.405 66.0351L118.659 65.3081Z" fill="#7D7D7E"/>
<path d="M154.98 65.5505L155.476 65.7921L154.98 65.5505Z" fill="#99B39D"/>
<path d="M166.174 65.5505L166.671 65.7921L166.174 65.5505Z" fill="#638B6A"/>
<path d="M213.44 65.3081L214.187 66.0351L213.44 65.3081Z" fill="#88A68D"/>
<path d="M242.547 65.3081L243.293 66.0351L242.547 65.3081ZM270.16 65.3081L270.906 66.0351L270.16 65.3081Z" fill="#729678"/>
<path d="M287.077 65.5505L287.573 65.7921L287.077 65.5505Z" fill="#45754D"/>
<path d="M14.922 66.0352V83.482H15.6683L14.922 66.0352Z" fill="#C5C5C5"/>
<path d="M35.8186 66.0352V70.3969H36.5649L35.8186 66.0352Z" fill="#CAB858"/>
<path d="M76.8657 66.0352L77.612 66.7621L76.8657 66.0352Z" fill="#908E8F"/>
<path d="M157.467 66.0352V66.7621H163.438L157.467 66.0352Z" fill="#9BB59F"/>
<path d="M187.32 66.0352V66.7621H193.29L187.32 66.0352Z" fill="#9CB5A0"/>
<path d="M121.644 66.7622V67.4892H126.868L121.644 66.7622Z" fill="#515253"/>
<path d="M95.5234 67.489L96.2698 68.216L95.5234 67.489Z" fill="#828081"/>
<path d="M35.8186 70.397V71.1239H43.2817L35.8186 70.397Z" fill="#C48D25"/>
<path d="M60.1981 70.6392L60.6948 70.8808L60.1981 70.6392Z" fill="#BAB9BA"/>
<path d="M66.4173 70.397V74.7587H67.1636L66.4173 70.397Z" fill="#908E8F"/>
<path d="M75.3731 70.397V75.4857H76.1194L75.3731 70.397ZM81.3436 70.397V71.1239L82.8362 73.3048H83.5825V70.397H81.3436ZM44.7744 71.1239V73.3048H45.5207L44.7744 71.1239Z" fill="#C7C6C7"/>
<path d="M58.9543 71.1238V73.3046H59.7006L58.9543 71.1238Z" fill="#908E8F"/>
<path d="M59.7005 71.1238L55.2227 74.7585C55.2337 75.9449 55.1515 77.2069 55.3931 78.3795C57.4228 88.2261 71.7482 73.5707 59.7005 71.1238Z" fill="#231F20"/>
<path d="M61.9395 71.1238L62.6858 71.8507L61.9395 71.1238Z" fill="#838182"/>
<path d="M87.314 74.7585L82.8362 71.1238C70.2706 73.0589 84.3385 88.2588 87.0767 78.3969C87.3991 77.2374 87.2999 75.9442 87.314 74.7585Z" fill="#231F20"/>
<path d="M97.2646 71.6086L97.5135 72.0928L97.2646 71.6086Z" fill="#908E8F"/>
<path d="M111.942 71.1238L112.689 71.8507L111.942 71.1238Z" fill="#A7A9AA"/>
<path d="M29.8482 74.0317L28.3555 87.8438C30.8013 87.2994 33.2791 86.3943 35.8186 86.459C52.6974 86.8894 44.8325 104.599 44.8331 113.287C44.8333 117.184 46.5238 120.213 48.5059 123.465H43.2817L52.2375 132.915H52.9838C55.6747 131.207 57.2073 131.196 58.2079 134.369C61.09 134.157 62.523 134.497 63.4321 137.277L71.596 139.307L79.1046 137.277C80.0136 134.497 81.4465 134.157 84.3288 134.369C85.3296 131.196 86.8618 131.207 89.553 132.915H90.2993L98.5087 123.465L94.0308 122.738C101.386 112.586 86.7162 90.0901 104.479 86.5928C107.406 86.017 110.51 86.8923 113.435 87.1169L112.689 74.0317L102.24 75.4856C101.329 84.1531 92.021 92.846 82.8362 88.629C76.7993 85.8571 74.6305 81.0003 70.8952 76.2126C64.5052 91.6116 43.2608 95.0225 40.2965 75.4856L29.8482 74.0317Z" fill="#57C7D4"/>
<path d="M64.1784 74.0317V78.3935H64.9247L64.1784 74.0317Z" fill="#595657"/>
<path d="M86.5677 74.0317L87.3141 74.7587L86.5677 74.0317Z" fill="#908E8F"/>
<path d="M32.0871 74.7585V75.4855H40.2965C40.7252 80.2681 42.383 84.9112 47.0133 87.1167L41.7891 74.7585H32.0871ZM69.4026 74.7585L66.4173 84.2089H67.1636L70.8952 76.2125L73.8804 82.0281H74.6268L73.1341 74.7585H69.4026ZM100.748 74.7585L97.0161 86.3898C100.368 83.591 102.013 79.752 102.24 75.4855H111.196L100.748 74.7585Z" fill="#39808B"/>
<path d="M54.4764 75.4856V79.1204H55.2227L54.4764 75.4856ZM87.314 75.4856V77.6665H88.0603L87.314 75.4856Z" fill="#908E8F"/>
<path d="M65.9198 77.4243L66.1682 77.9085L65.9198 77.4243Z" fill="#757273"/>
<path d="M97.0161 76.9395V79.1203H97.7624L97.0161 76.9395Z" fill="#9E9C9D"/>
<path d="M44.7744 77.6665V79.8474H45.5207L44.7744 77.6665Z" fill="#908E8F"/>
<path d="M28.3555 78.3933V83.482H29.1018L28.3555 78.3933Z" fill="#AAE3E9"/>
<path d="M64.9247 79.1204L65.6711 79.8473L64.9247 79.1204Z" fill="#908E8F"/>
<path d="M113.435 79.1204V82.7551H114.181L113.435 79.1204Z" fill="#B5E6EC"/>
<path d="M64.1784 80.5742L64.9247 81.3012L64.1784 80.5742Z" fill="#908E8F"/>
<path d="M254.985 80.8163L255.482 81.0583L254.985 80.8163Z" fill="#4F7C57"/>
<path d="M56.7153 81.3011L57.4616 82.0281L56.7153 81.3011Z" fill="#9E9C9D"/>
<path d="M173.14 81.3011L173.886 82.0281L173.14 81.3011Z" fill="#7C9E82"/>
<path d="M173.886 81.3011L173.14 95.8402C175.801 95.7166 179.591 96.3709 181.772 94.5731C187.394 89.9381 180.549 84.9192 175.379 86.3898V81.3011H173.886ZM253.741 81.3011L252.995 84.209L255.98 81.3011H253.741Z" fill="white"/>
<path d="M269.414 81.3011V82.0281H271.653L269.414 81.3011Z" fill="#6D9273"/>
<path d="M58.2079 82.0281V82.755H60.4469L58.2079 82.0281Z" fill="#C7C6C7"/>
<path d="M74.6268 82.0281L76.1194 84.2089L74.6268 82.0281Z" fill="#3A848E"/>
<path d="M82.0898 82.0281V82.755H84.3288L82.0898 82.0281Z" fill="#C7C6C7"/>
<path d="M161.24 82.7761C153.81 86.6472 159.211 99.0839 167.136 94.9831C174.593 91.1252 168.869 78.8004 161.24 82.7761Z" fill="white"/>
<path d="M166.423 82.0281L167.169 82.755L166.423 82.0281Z" fill="#84A389"/>
<path d="M175.379 82.0281V86.3898H176.125L175.379 82.0281Z" fill="#407149"/>
<path d="M252.995 82.0281L253.741 82.755L252.995 82.0281Z" fill="#8CA991"/>
<path d="M268.916 82.5129L269.165 82.9971L268.916 82.5129Z" fill="#3D6F46"/>
<path d="M269.414 82.0281V83.482H271.653V82.0281H269.414Z" fill="white"/>
<path d="M94.7771 82.7551L95.5234 83.4821L94.7771 82.7551Z" fill="#9E9C9D"/>
<path d="M113.683 83.24L113.932 83.7241L113.683 83.24Z" fill="#39767D"/>
<path d="M242.298 82.9972L242.794 83.2392L242.298 82.9972Z" fill="#3F7048"/>
<path d="M14.922 83.482V84.209L29.1019 84.9359C26.4792 82.0121 18.7213 83.482 14.922 83.482Z" fill="#535454"/>
<path d="M158.96 83.4819L159.706 84.2089L158.96 83.4819Z" fill="#698F70"/>
<path d="M168.662 83.4819L169.408 84.2089L168.662 83.4819Z" fill="#6B9171"/>
<path d="M241.054 83.4819L238.815 85.6628C240.646 89.6472 240.371 95.4396 245.532 95.8401L243.293 93.6593L245.532 86.3897L243.293 83.4819H241.054Z" fill="white"/>
<path d="M252.497 83.9669L252.746 84.4511L252.497 83.9669Z" fill="#396C42"/>
<path d="M269.414 83.4819V84.2089H271.653L269.414 83.4819Z" fill="#BECFC1"/>
<path d="M113.435 84.209V87.8438H114.181L113.435 84.209Z" fill="#C2E6EA"/>
<path d="M114.181 84.209C114.522 88.607 117.746 90.6098 119.578 94.3863C122.164 99.7178 119.511 105.705 116.599 110.379C110.286 120.512 90.5545 123.607 89.553 136.55H126.868V118.376C141.782 118.336 141.782 102.423 126.868 102.383V84.209H114.181Z" fill="white"/>
<path d="M162.801 84.9984C158.758 86.9401 160.568 95.0006 165.509 93.088C169.849 91.408 167.484 82.75 162.801 84.9984Z" fill="#00420C"/>
<path d="M251.502 84.9359V85.6629H254.488L251.502 84.9359Z" fill="#AEC3B1"/>
<path d="M14.9219 100.929H15.6682V85.6629H28.3555C14.4882 79.9948 14.9219 91.3491 14.9219 100.929Z" fill="#8B8C8C"/>
<path d="M49.2522 84.9359L49.9985 85.6629L49.2522 84.9359Z" fill="#918F90"/>
<path d="M92.5382 84.9359L93.2845 85.6629L92.5382 84.9359Z" fill="#838182"/>
<path d="M161.199 84.9359L161.945 85.6629L161.199 84.9359Z" fill="#638B6A"/>
<path d="M166.423 84.9359L167.169 85.6629L166.423 84.9359Z" fill="#698F70"/>
<path d="M177.618 84.9359V85.6629H180.603L177.618 84.9359Z" fill="#B7C9BA"/>
<path d="M187.32 84.9359V85.6629H191.051L187.32 84.9359Z" fill="#ADC2B0"/>
<path d="M198.514 84.9359V85.6629H201.5L198.514 84.9359Z" fill="#A9BFAD"/>
<path d="M211.202 84.9359V85.6629H214.187L211.202 84.9359Z" fill="#A8BEAC"/>
<path d="M216.177 85.178L216.673 85.42L216.177 85.178Z" fill="#698F70"/>
<path d="M229.859 84.9359V85.6629H233.591L229.859 84.9359Z" fill="#A5BCA9"/>
<path d="M235.581 85.178L236.077 85.42L235.581 85.178Z" fill="#B3C6B6"/>
<path d="M240.059 85.178L240.555 85.42L240.059 85.178Z" fill="#43734B"/>
<path d="M261.702 85.178L262.198 85.42L261.702 85.178Z" fill="#4F7C57"/>
<path d="M264.936 84.9359V85.6629H267.175L264.936 84.9359Z" fill="#B5C8B8"/>
<path d="M276.877 84.9359V85.6629H280.608L276.877 84.9359Z" fill="#AAC0AE"/>
<path d="M15.6683 85.6628V100.202L21.6388 100.929L28.3555 85.6628H15.6683Z" fill="white"/>
<path d="M157.716 86.1477L157.965 86.6319L157.716 86.1477Z" fill="#BDCEC0"/>
<path d="M160.452 85.6628L161.199 86.3898L160.452 85.6628Z" fill="#88A68D"/>
<path d="M167.169 85.6628L167.916 86.3898L167.169 85.6628Z" fill="#89A78E"/>
<path d="M170.403 86.1477L170.652 86.6319L170.403 86.1477Z" fill="#C3D2C5"/>
<path d="M191.797 92.2055V93.6594L185.081 92.9324C186.473 95.3917 192.813 97.6133 192.815 92.9295C192.817 90.5546 189.211 89.0571 188.066 87.1168L193.29 87.8438C189.549 82.2222 181.56 90.0232 191.797 92.2055Z" fill="white"/>
<path d="M197.022 85.6628L197.768 86.3898L197.022 85.6628Z" fill="#9CB5A0"/>
<path d="M204.485 92.9324C201.541 93.365 199.909 93.6543 197.768 91.4785C199 91.4778 200.275 91.5483 201.503 91.4356C209.378 90.7138 199.284 81.2983 196.083 88.0095C193.298 93.8491 201.147 98.828 204.485 92.9324ZM207.47 85.6629V95.8403L214.187 87.1168V85.6629H207.47Z" fill="white"/>
<path d="M215.182 86.1477L215.43 86.6319L215.182 86.1477Z" fill="#517E59"/>
<path d="M215.679 85.6629L219.411 95.8402H220.904L225.381 85.6629C222.357 86.6879 221.704 89.3602 220.904 92.2054H220.157L217.918 85.6629H215.679ZM236.576 95.8402L237.322 85.6629C234.916 85.7835 231.43 85.1155 229.32 86.4109C221.036 91.4988 232.471 95.6003 236.576 95.8402Z" fill="white"/>
<path d="M234.337 85.6628L235.083 86.3898L234.337 85.6628Z" fill="#688F6F"/>
<path d="M245.78 86.1477L246.029 86.6319L245.78 86.1477Z" fill="#89A78E"/>
<path d="M250.12 86.4102C244.489 89.6444 250.051 98.3765 255.81 94.9824C261.517 91.6195 255.976 83.0465 250.12 86.4102Z" fill="white"/>
<path d="M260.458 85.6628V95.1132H261.204L260.458 85.6628Z" fill="#BCCDBF"/>
<path d="M261.204 85.6628V95.8402H262.697C262.7 91.7591 262.597 88.41 267.175 87.1167V85.6628H261.204Z" fill="white"/>
<path d="M263.195 85.9049L263.691 86.1469L263.195 85.9049Z" fill="#97B29B"/>
<path d="M267.423 86.1477L267.672 86.6319L267.423 86.1477Z" fill="#8AA88F"/>
<path d="M269.414 85.6629V95.8403C272.697 93.7663 271.653 89.1123 271.653 85.6629H269.414ZM276.241 86.4102C270.964 89.4416 275.634 98.0357 281.311 95.0901C287.502 91.8784 282.299 82.9303 276.241 86.4102Z" fill="white"/>
<path d="M48.5059 123.464C46.9744 119.841 44.6711 116.679 44.9333 112.56C45.3182 106.511 49.1422 101.357 47.1601 95.1133C44.0952 85.4579 30.4989 83.3083 24.3648 91.5098C13.0895 106.586 34.5193 123.427 48.5059 123.464Z" fill="#39808B"/>
<path d="M52.2375 86.3899V87.1169H55.969L52.2375 86.3899Z" fill="#C8C7C8"/>
<path d="M56.4666 86.6318L56.9632 86.8739L56.4666 86.6318Z" fill="#757374"/>
<path d="M85.5729 86.6318L86.0691 86.8739L85.5729 86.6318Z" fill="#918F90"/>
<path d="M86.5677 86.3899V87.1169H89.553L86.5677 86.3899Z" fill="#C8C7C8"/>
<path d="M94.0308 122.738C108.451 126.771 127.869 104.24 118.231 91.4895C112.301 83.6435 97.5064 84.7913 95.0712 95.1133C93.53 101.649 97.3668 106.425 97.6549 112.56C97.8303 116.306 95.7466 119.548 94.0308 122.738Z" fill="#39808B"/>
<path d="M206.724 86.3899V95.1133H207.47L206.724 86.3899Z" fill="#3C6E45"/>
<path d="M268.667 86.3899V95.1133H269.414L268.667 86.3899Z" fill="#306539"/>
<path d="M274.638 86.3899L275.384 87.1169L274.638 86.3899Z" fill="#80A186"/>
<path d="M64.1784 87.1167V87.8437H78.3583L64.1784 87.1167Z" fill="#80C2A9"/>
<path d="M159.706 87.1167V90.7515H160.452L159.706 87.1167Z" fill="#719577"/>
<path d="M167.916 87.1167V90.7515H168.662L167.916 87.1167Z" fill="#6A9071"/>
<path d="M176.871 87.1167V87.8437H179.856L176.871 87.1167Z" fill="#4D7B55"/>
<path d="M185.081 87.1167V89.2976H185.827L185.081 87.1167Z" fill="#779A7D"/>
<path d="M195.529 87.1167L196.275 87.8437L195.529 87.1167Z" fill="#8BA990"/>
<path d="M198.514 87.1167V87.8437H201.5L198.514 87.1167Z" fill="#527E5A"/>
<path d="M210.455 87.1167L211.202 87.8437L210.455 87.1167Z" fill="#93AF98"/>
<path d="M211.202 87.1167V87.8437H214.187L211.202 87.1167Z" fill="#366A3F"/>
<path d="M230.606 87.1167V87.8437H233.591L230.606 87.1167Z" fill="#4A7852"/>
<path d="M243.293 87.1167V87.8437H245.532L243.293 87.1167Z" fill="#C4D3C6"/>
<path d="M251.502 87.1167V87.8437H254.488L251.502 87.1167Z" fill="#4F7C57"/>
<path d="M266.18 87.3589L266.676 87.6009L266.18 87.3589Z" fill="#668D6D"/>
<path d="M277.623 87.1167V87.8437H279.862L277.623 87.1167Z" fill="#47764F"/>
<path d="M64.1784 87.8438L70.8952 99.475H71.6415L78.3583 87.8438H64.1784Z" fill="#FAB226"/>
<path d="M176.125 87.8438C176.251 98.2232 185.687 88.1498 176.125 87.8438V87.8438Z" fill="#00420C"/>
<path d="M192.295 88.0858L192.791 88.3278L192.295 88.0858Z" fill="#3F7048"/>
<path d="M197.768 87.8438V89.2977H202.246V87.8438H197.768Z" fill="#00420C"/>
<path d="M215.679 87.8438L216.426 88.5707L215.679 87.8438Z" fill="#7FA085"/>
<path d="M227.123 88.3286L227.371 88.8128L227.123 88.3286Z" fill="#BECFC1"/>
<path d="M230.312 88.5939C227.675 90.6272 231.327 94.8704 233.884 92.4802C236.405 90.1234 232.951 86.5606 230.312 88.5939Z" fill="#00420C"/>
<path d="M243.293 87.8438V93.6594H244.039L243.293 87.8438Z" fill="#285F32"/>
<path d="M251.313 88.594C248.674 90.6738 252.211 94.8821 254.781 92.4803C257.246 90.1758 253.92 86.5396 251.313 88.594ZM277.328 88.594C274.701 90.6418 278.368 94.8908 280.893 92.4803C283.301 90.1824 279.922 86.5716 277.328 88.594Z" fill="#00420C"/>
<path d="M283.594 87.8438L284.34 88.5707L283.594 87.8438Z" fill="#6E9374"/>
<path d="M175.379 88.5707V92.2054H176.125L175.379 88.5707Z" fill="#2F6438"/>
<path d="M194.783 88.5707V92.2054H195.529L194.783 88.5707Z" fill="#BDCEC0"/>
<path d="M197.022 88.5707C198.687 90.4273 201.326 90.4273 202.992 88.5707H197.022Z" fill="#D4DFD6"/>
<path d="M218.665 88.5707L219.411 89.2976L218.665 88.5707Z" fill="#799B7F"/>
<path d="M221.65 88.5707L222.396 89.2976L221.65 88.5707Z" fill="#82A287"/>
<path d="M250.01 88.5707L250.756 89.2976L250.01 88.5707Z" fill="#7A9C80"/>
<path d="M262.697 88.5707V95.1133H263.443L262.697 88.5707Z" fill="#80A186"/>
<path d="M273.145 88.5707V92.2054H273.892L273.145 88.5707Z" fill="#779A7D"/>
<path d="M281.355 88.5707L282.101 89.2976L281.355 88.5707Z" fill="#A1B9A5"/>
<path d="M190.056 89.5398L190.553 89.7818L190.056 89.5398Z" fill="#4A7852"/>
<path d="M216.426 89.2976L217.172 90.0246L216.426 89.2976Z" fill="#98B29C"/>
<path d="M247.024 89.2976V91.4785H247.771L247.024 89.2976Z" fill="#42724A"/>
<path d="M258.219 89.2976V92.2054H258.965L258.219 89.2976Z" fill="#618968"/>
<path d="M191.797 90.0247L192.544 90.7516L191.797 90.0247Z" fill="#719577"/>
<path d="M220.904 90.0247L221.65 90.7516L220.904 90.0247Z" fill="#618968"/>
<path d="M275.633 90.5095L275.882 90.9937L275.633 90.5095Z" fill="#C4D3C6"/>
<path d="M192.544 90.7516L193.29 91.4785L192.544 90.7516Z" fill="#8AA88F"/>
<path d="M204.485 90.7516L205.231 91.4785L204.485 90.7516Z" fill="#658C6C"/>
<path d="M157.467 91.4785L158.213 92.2055L157.467 91.4785Z" fill="#6A9071"/>
<path d="M160.452 91.4785L161.199 92.2055L160.452 91.4785Z" fill="#7FA085"/>
<path d="M167.169 91.4785L167.916 92.2055L167.169 91.4785Z" fill="#7D9E83"/>
<path d="M170.154 91.4785L170.901 92.2055L170.154 91.4785Z" fill="#6F9475"/>
<path d="M189.559 91.4785L190.305 92.2055L189.559 91.4785Z" fill="#668D6D"/>
<path d="M220.157 91.4785L220.904 92.2055L220.157 91.4785Z" fill="#789B7E"/>
<path d="M191.3 92.6903L191.549 93.1744L191.3 92.6903Z" fill="#AEC3B1"/>
<path d="M193.539 92.6903L193.787 93.1744L193.539 92.6903Z" fill="#417249"/>
<path d="M222.396 92.2054L223.142 92.9324L222.396 92.2054Z" fill="#739779"/>
<path d="M226.874 92.2054L227.62 92.9324L226.874 92.2054Z" fill="#96B19A"/>
<path d="M276.131 92.2054L276.877 92.9324L276.131 92.2054Z" fill="#81A186"/>
<path d="M161.945 92.9324L162.691 93.6593L161.945 92.9324Z" fill="#A0B8A4"/>
<path d="M179.857 92.9324L180.603 93.6593L179.857 92.9324Z" fill="#99B39D"/>
<path d="M254.488 92.9324L255.234 93.6593L254.488 92.9324Z" fill="#93AF98"/>
<path d="M257.473 92.9324L258.219 93.6593L257.473 92.9324Z" fill="#7A9C80"/>
<path d="M273.892 92.9324L274.638 93.6593L273.892 92.9324Z" fill="#9EB7A2"/>
<path d="M276.877 92.9324L277.623 93.6593L276.877 92.9324Z" fill="#789B7E"/>
<path d="M158.96 93.6594L159.706 94.3864L158.96 93.6594Z" fill="#779A7D"/>
<path d="M168.662 93.6594L169.408 94.3864L168.662 93.6594Z" fill="#799B7F"/>
<path d="M178.115 93.9014L178.612 94.1434L178.115 93.9014Z" fill="#BECFC1"/>
<path d="M188.066 93.6594V94.3864H191.051L188.066 93.6594Z" fill="#668D6D"/>
<path d="M200.505 93.9014L201.001 94.1434L200.505 93.9014Z" fill="#C5D4C7"/>
<path d="M221.65 93.6594L222.396 94.3864L221.65 93.6594Z" fill="#8AA88F"/>
<path d="M227.62 93.6594L228.367 94.3864L227.62 93.6594Z" fill="#96B19A"/>
<path d="M231.85 93.9014L232.346 94.1434L231.85 93.9014Z" fill="#C0D0C3"/>
<path d="M245.78 94.1443L246.029 94.6284L245.78 94.1443Z" fill="#698F70"/>
<path d="M252.746 93.9014L253.243 94.1434L252.746 93.9014Z" fill="#C2D1C4"/>
<path d="M282.847 93.6594L283.594 94.3864L282.847 93.6594Z" fill="#8DAA92"/>
<path d="M196.275 94.3862L197.022 95.1132L196.275 94.3862Z" fill="#668D6D"/>
<path d="M203.738 94.3862L204.485 95.1132L203.738 94.3862Z" fill="#86A58B"/>
<path d="M218.665 94.3862L219.411 95.1132L218.665 94.3862Z" fill="#6E9374"/>
<path d="M241.054 94.3862L241.8 95.1132L241.054 94.3862Z" fill="#99B39D"/>
<path d="M282.101 94.3862L282.847 95.1132L282.101 94.3862Z" fill="#98B29C"/>
<path d="M166.423 95.1133L167.169 95.8402L166.423 95.1133Z" fill="#93AF98"/>
<path d="M176.125 95.1133L176.871 95.8402L176.125 95.1133Z" fill="#618968"/>
<path d="M180.603 95.1133L181.349 95.8402L180.603 95.1133Z" fill="#80A186"/>
<path d="M208.963 95.1133L209.709 95.8402L208.963 95.1133Z" fill="#7A9C80"/>
<path d="M220.904 95.1133L221.65 95.8402L220.904 95.1133Z" fill="#6C9272"/>
<path d="M229.113 95.1133L229.859 95.8402L229.113 95.1133ZM233.591 95.1133L234.337 95.8402L233.591 95.1133Z" fill="#6E9374"/>
<path d="M236.576 95.1133L237.322 95.8402L236.576 95.1133Z" fill="#90AC95"/>
<path d="M250.01 95.1133L250.756 95.8402L250.01 95.1133Z" fill="#628A69"/>
<path d="M255.234 95.1133L255.98 95.8402L255.234 95.1133Z" fill="#6E9374"/>
<path d="M270.906 95.1133L271.653 95.8402L270.906 95.1133Z" fill="#86A58B"/>
<path d="M276.131 95.1133L276.877 95.8402L276.131 95.1133Z" fill="#80A186"/>
<path d="M21.6387 95.8402L20.8924 101.656L21.6387 95.8402Z" fill="#7BABB2"/>
<path d="M162.691 95.8402V96.5672H165.677L162.691 95.8402Z" fill="#3D6F46"/>
<path d="M177.618 95.8402V96.5672H179.856L177.618 95.8402Z" fill="#3C6E45"/>
<path d="M188.066 95.8402V96.5672H190.305L188.066 95.8402Z" fill="#396C42"/>
<path d="M199.261 95.8402V96.5672H201.499L199.261 95.8402Z" fill="#3C6E45"/>
<path d="M230.606 95.8402V96.5672H232.845L230.606 95.8402Z" fill="#3B6D44"/>
<path d="M120.152 96.5671V101.656H120.898L120.152 96.5671Z" fill="#A0C2C7"/>
<path d="M15.6683 100.202V100.929H19.3998L15.6683 100.202Z" fill="#C6C6C6"/>
<path d="M126.868 101.656V102.383H130.6L126.868 101.656Z" fill="#515253"/>
<path d="M132.839 102.383L133.585 103.11L132.839 102.383Z" fill="#A8A8A9"/>
<path d="M119.654 103.595L119.903 104.079L119.654 103.595Z" fill="#A8C7CC"/>
<path d="M138.312 107.229L138.56 107.714L138.312 107.229Z" fill="#B6B7B7"/>
<path d="M233.342 107.714L233.839 107.956L233.342 107.714Z" fill="#74987A"/>
<path d="M196.275 108.198L197.022 108.925L196.275 108.198Z" fill="#668D6D"/>
<path d="M197.022 108.198L196.275 113.287C191.231 111.852 185.627 116.015 190.009 121.052C191.959 123.294 195.829 122.458 198.514 122.738V108.198H197.022ZM232.098 108.198L231.352 111.106L234.337 108.198H232.098Z" fill="white"/>
<path d="M252.746 108.44L253.243 108.682L252.746 108.44Z" fill="#638B6A"/>
<path d="M138.809 108.925V111.833H139.556L138.809 108.925Z" fill="#515253"/>
<path d="M165.677 108.925V122.738H167.169V117.649C177.651 117.557 174.994 108.933 165.677 108.925Z" fill="white"/>
<path d="M198.514 108.925V122.011H199.261L198.514 108.925Z" fill="#58835F"/>
<path d="M251.751 109.41L252 109.894L251.751 109.41Z" fill="#BDCEC0"/>
<path d="M252.249 108.925V110.379H253.741V108.925H252.249Z" fill="white"/>
<path d="M253.99 109.41L254.239 109.894L253.99 109.41Z" fill="#9DB6A1"/>
<path d="M164.93 109.652V122.011H165.677L164.93 109.652Z" fill="#B8CABB"/>
<path d="M173.14 109.652L173.886 110.379L173.14 109.652Z" fill="#6F9475"/>
<path d="M252.746 110.621L253.243 110.863L252.746 110.621Z" fill="#B4C7B7"/>
<path d="M25.3703 111.106C23.9876 116.755 19.6906 118.328 14.1756 118.376V137.277H52.9838V136.55H14.9219V119.83C19.2864 119.492 29.14 117.171 25.3703 111.106Z" fill="#191A1B"/>
<path d="M167.169 111.106V115.468H167.916L167.169 111.106Z" fill="#648C6B"/>
<path d="M167.916 111.106V111.833H171.647L167.916 111.106Z" fill="#2C6235"/>
<path d="M229.859 111.833V112.56H233.591L229.859 111.833Z" fill="#B6C9B9"/>
<path d="M167.916 111.833V115.468C170.799 115.25 171.907 114.676 172.393 111.833H167.916Z" fill="#00420C"/>
<path d="M174.632 111.833V114.741H175.379L174.632 111.833Z" fill="#678E6E"/>
<path d="M179.857 111.833V112.56H183.588L179.857 111.833Z" fill="#A1B9A5"/>
<path d="M191.797 111.833V112.56H194.783L191.797 111.833Z" fill="#B5C8B8"/>
<path d="M203.738 111.833V112.56H207.47L203.738 111.833Z" fill="#A5BCA9"/>
<path d="M209.46 112.075L209.957 112.317L209.46 112.075Z" fill="#B3C6B6"/>
<path d="M216.426 111.833V112.56H220.157L216.426 111.833Z" fill="#A7BDAB"/>
<path d="M222.894 112.075L223.39 112.317L222.894 112.075Z" fill="#84A389"/>
<path d="M241.8 111.833V112.56H245.532L241.8 111.833Z" fill="#A1B9A5"/>
<path d="M247.771 111.833C245.094 112.948 241.29 112.01 239.583 114.849C236.33 120.257 242.501 123.595 247.024 121.284C245.436 124.324 243.632 124.496 240.308 124.191C242.109 126.899 246.616 127.176 248.496 124.084C250.299 121.118 249.809 114.454 247.771 111.833Z" fill="white"/>
<path d="M252.746 112.075L253.243 112.317L252.746 112.075Z" fill="#54805C"/>
<path d="M259.712 111.833V112.56H263.443L259.712 111.833Z" fill="#A6BDAA"/>
<path d="M270.16 111.833V112.56H273.892L270.16 111.833Z" fill="#A2BAA6"/>
<path d="M138.312 113.045L138.56 113.529L138.312 113.045Z" fill="#6E6F6F"/>
<path d="M178.364 112.56L179.11 113.287L178.364 112.56Z" fill="#6D9273"/>
<path d="M185.827 120.557L179.11 118.376H186.573C185.997 113.351 178.763 109.586 177.112 116.209C175.798 121.478 182.613 124.986 185.827 120.557Z" fill="white"/>
<path d="M195.529 112.56L196.275 113.287L195.529 112.56Z" fill="#86A58B"/>
<path d="M210.455 122.738L211.202 112.56C208.795 112.681 205.309 112.013 203.2 113.308C194.916 118.396 206.35 122.498 210.455 122.738Z" fill="white"/>
<path d="M208.216 112.56L208.963 113.287L208.216 112.56Z" fill="#688F6F"/>
<path d="M221.65 122.011L214.933 124.191C216.688 126.828 221.726 127.379 223.335 124.026C224.828 120.913 223.889 115.933 223.889 112.56C221.303 112.69 217.383 111.905 215.317 113.725C209.909 118.491 216.687 123.118 221.65 122.011Z" fill="white"/>
<path d="M223.889 112.56V123.464H224.635L223.889 112.56Z" fill="#608967"/>
<path d="M228.537 113.307C223.082 116.545 228.703 125.022 234.227 121.88C239.929 118.637 234.322 109.875 228.537 113.307Z" fill="white"/>
<path d="M234.337 112.56L235.083 113.287L234.337 112.56Z" fill="#6C9272"/>
<path d="M240.308 112.56L241.054 113.287L240.308 112.56Z" fill="#608967"/>
<path d="M251.502 112.56V122.011H252.249L251.502 112.56Z" fill="#B0C4B3"/>
<path d="M252.249 112.56V122.738H253.741V112.56H252.249Z" fill="white"/>
<path d="M253.741 112.56V122.011H254.488L253.741 112.56Z" fill="#90AC95"/>
<path d="M264.936 120.557C257.923 120.906 257.594 114.227 264.936 114.741C264.214 111.459 258.362 111.689 257.1 114.761C254.87 120.191 262.244 126.464 264.936 120.557Z" fill="white"/>
<path d="M268.667 112.56L269.414 113.287L268.667 112.56Z" fill="#88A68D"/>
<path d="M269.584 113.1C264.387 115.433 268.041 124.465 273.848 122.295C279.953 120.015 276.242 110.112 269.584 113.1Z" fill="white"/>
<path d="M274.638 112.56L275.384 113.287L274.638 112.56Z" fill="#99B39D"/>
<path d="M26.8629 113.287C24.2303 117.628 20.8208 119.597 15.6683 119.83V135.823H52.9838C51.357 125.553 34.2829 119.514 26.8629 113.287Z" fill="white"/>
<path d="M177.618 113.287L178.364 114.014L177.618 113.287Z" fill="#8BA990"/>
<path d="M235.083 113.287L235.83 114.014L235.083 113.287Z" fill="#9AB49E"/>
<path d="M239.561 113.287L240.308 114.014L239.561 113.287Z" fill="#719577"/>
<path d="M249.263 113.287V122.737H250.01L249.263 113.287Z" fill="#20592A"/>
<path d="M265.184 113.772L265.433 114.256L265.184 113.772Z" fill="#417249"/>
<path d="M26.1166 114.014L26.8629 114.741L26.1166 114.014Z" fill="#A8A8A9"/>
<path d="M179.857 114.014V114.741H182.842L179.857 114.014Z" fill="#5A8461"/>
<path d="M192.544 114.014V114.741H194.783L192.544 114.014Z" fill="#43734B"/>
<path d="M204.485 114.014V114.741H207.47L204.485 114.014Z" fill="#4A7852"/>
<path d="M217.172 114.014V114.741H220.157L217.172 114.014Z" fill="#4D7B55"/>
<path d="M230.606 114.014V114.741H232.845L230.606 114.014Z" fill="#45754D"/>
<path d="M235.83 114.014L236.576 114.741L235.83 114.014Z" fill="#648C6B"/>
<path d="M242.547 114.014V114.741H245.532L242.547 114.014Z" fill="#45754D"/>
<path d="M256.726 114.014L257.473 114.741L256.726 114.014Z" fill="#9EB7A2"/>
<path d="M260.458 114.014V114.741H262.697L260.458 114.014Z" fill="#43734B"/>
<path d="M267.175 114.014L267.921 114.741L267.175 114.014Z" fill="#88A68D"/>
<path d="M270.906 114.014V114.741H273.145L270.906 114.014Z" fill="#44744C"/>
<path d="M85.8214 114.741V115.468H89.5529L85.8214 114.741Z" fill="#48A4B0"/>
<path d="M179.11 114.741L179.857 115.468L179.11 114.741Z" fill="#76997C"/>
<path d="M179.11 115.468V116.195H183.588V114.741L179.11 115.468Z" fill="#00420C"/>
<path d="M185.827 114.741L186.573 115.468L185.827 114.741Z" fill="#90AC95"/>
<path d="M191.051 114.741L191.797 115.468L191.051 114.741Z" fill="#7D9E83"/>
<path d="M192.245 115.502C190.091 117.077 191.797 121.348 194.56 119.767C197.461 118.105 195.074 113.433 192.245 115.502Z" fill="#00420C"/>
<path d="M201.002 115.226L201.251 115.71L201.002 115.226Z" fill="#BECFC1"/>
<path d="M204.191 115.491C201.554 117.525 205.206 121.768 207.763 119.378C210.284 117.021 206.83 113.458 204.191 115.491Z" fill="#00420C"/>
<path d="M213.689 115.226L213.938 115.71L213.689 115.226Z" fill="#BDCEC0"/>
<path d="M216.879 115.491C214.241 117.525 217.893 121.768 220.451 119.378C222.972 117.021 219.518 113.458 216.879 115.491Z" fill="#00420C"/>
<path d="M229.113 114.741L229.859 115.468L229.113 114.741Z" fill="#6F9475"/>
<path d="M230.307 115.502C228.153 117.077 229.859 121.348 232.621 119.767C235.523 118.105 233.136 113.433 230.307 115.502ZM242.253 115.491C239.616 117.525 243.268 121.768 245.825 119.378C248.346 117.021 244.892 113.458 242.253 115.491Z" fill="#00420C"/>
<path d="M258.965 114.741L259.712 115.468L258.965 114.741Z" fill="#A1B9A5"/>
<path d="M263.941 114.983L264.437 115.225L263.941 114.983Z" fill="#3F7048"/>
<path d="M270.608 115.502C268.152 117.298 270.711 121.794 273.444 119.795C275.9 117.999 273.341 113.504 270.608 115.502Z" fill="#00420C"/>
<path d="M273.892 114.741L274.638 115.468L273.892 114.741Z" fill="#93AF98"/>
<path d="M136.57 115.468L137.317 116.195L136.57 115.468Z" fill="#6F7070"/>
<path d="M173.886 115.468L174.632 116.195L173.886 115.468Z" fill="#7C9E82"/>
<path d="M183.588 115.468L184.334 116.195L183.588 115.468Z" fill="#5F8866"/>
<path d="M188.066 115.468V119.103H188.812L188.066 115.468Z" fill="#B9CBBC"/>
<path d="M236.576 115.468V119.103H237.322L236.576 115.468Z" fill="#95B09A"/>
<path d="M255.98 115.468V119.103H256.726L255.98 115.468Z" fill="#B9CBBC"/>
<path d="M266.428 115.468V119.103H267.175L266.428 115.468Z" fill="#B7C9BA"/>
<path d="M276.877 115.468V119.103H277.623L276.877 115.468Z" fill="#D5E0D7"/>
<path d="M24.624 116.195L25.3703 116.922L24.624 116.195Z" fill="#A8A8A9"/>
<path d="M135.824 116.195L136.57 116.922L135.824 116.195Z" fill="#6F7070"/>
<path d="M176.125 116.195V119.103H176.871L176.125 116.195Z" fill="#7E9F84"/>
<path d="M179.11 116.195V116.922H184.334L179.11 116.195Z" fill="#D4DFD6"/>
<path d="M190.305 116.195V119.103H191.051L190.305 116.195Z" fill="#55815D"/>
<path d="M228.367 116.195V119.103H229.113L228.367 116.195Z" fill="#386B41"/>
<path d="M234.337 116.195V118.376H235.083L234.337 116.195Z" fill="#9DB6A1"/>
<path d="M238.069 116.195V118.376H238.815L238.069 116.195Z" fill="#43734B"/>
<path d="M258.219 116.195V118.376H258.965L258.219 116.195Z" fill="#75987B"/>
<path d="M268.667 116.195V118.376H269.414L268.667 116.195Z" fill="#789B7E"/>
<path d="M274.638 116.195V119.103H275.384L274.638 116.195Z" fill="#5D8764"/>
<path d="M23.8776 116.922L24.6239 117.649L23.8776 116.922Z" fill="#A8A8A9"/>
<path d="M172.393 116.922L173.14 117.649L172.393 116.922Z" fill="#7FA085"/>
<path d="M132.839 117.649L133.585 118.376L132.839 117.649Z" fill="#A9A9AA"/>
<path d="M167.169 117.649V122.011H167.916L167.169 117.649Z" fill="#648C6B"/>
<path d="M167.916 117.649V118.376H171.647L167.916 117.649Z" fill="#3C6E45"/>
<path d="M21.6387 118.376L22.385 119.103L21.6387 118.376Z" fill="#8B8C8C"/>
<path d="M126.868 118.376V119.103H130.6L126.868 118.376Z" fill="#525354"/>
<path d="M17.9072 119.103V119.83H20.1461L17.9072 119.103Z" fill="#515253"/>
<path d="M179.11 119.103L179.857 119.83L179.11 119.103Z" fill="#658C6C"/>
<path d="M195.529 119.103L196.275 119.83L195.529 119.103Z" fill="#86A58B"/>
<path d="M200.753 119.103L201.5 119.83L200.753 119.103Z" fill="#96B19A"/>
<path d="M213.44 119.103L214.187 119.83L213.44 119.103Z" fill="#94AF99"/>
<path d="M220.904 119.103L221.65 119.83L220.904 119.103Z" fill="#87A68C"/>
<path d="M226.128 119.103L226.874 119.83L226.128 119.103Z" fill="#8AA88F"/>
<path d="M233.591 119.103L234.337 119.83L233.591 119.103Z" fill="#688F6F"/>
<path d="M241.054 119.103L241.8 119.83L241.054 119.103Z" fill="#94AF99"/>
<path d="M14.922 119.83V136.55H15.6683L14.922 119.83Z" fill="#8B8C8C"/>
<path d="M81.3435 119.83V120.557H84.3288L81.3435 119.83Z" fill="#3E8D98"/>
<path d="M179.857 119.83L180.603 120.557L179.857 119.83Z" fill="#6D9273"/>
<path d="M184.832 120.072L185.328 120.314L184.832 120.072Z" fill="#B2C6B5"/>
<path d="M194.783 119.83L195.529 120.557L194.783 119.83Z" fill="#719577"/>
<path d="M220.157 119.83L220.904 120.557L220.157 119.83Z" fill="#789B7E"/>
<path d="M232.845 119.83L233.591 120.557L232.845 119.83Z" fill="#658C6C"/>
<path d="M238.815 119.83L239.561 120.557L238.815 119.83Z" fill="#709576"/>
<path d="M241.8 119.83L242.547 120.557L241.8 119.83Z" fill="#80A186"/>
<path d="M263.941 120.072L264.437 120.314L263.941 120.072Z" fill="#A5BCA9"/>
<path d="M181.847 120.799L182.343 121.041L181.847 120.799Z" fill="#BECFC1"/>
<path d="M193.042 120.799L193.538 121.041L193.042 120.799Z" fill="#BBCCBE"/>
<path d="M201.5 120.557L202.246 121.284L201.5 120.557Z" fill="#96B19A"/>
<path d="M205.729 120.799L206.225 121.041L205.729 120.799Z" fill="#C0D0C3"/>
<path d="M214.187 120.557L214.933 121.284L214.187 120.557Z" fill="#90AC95"/>
<path d="M218.416 120.799L218.912 121.041L218.416 120.799Z" fill="#BCCDBF"/>
<path d="M226.874 120.557L227.62 121.284L226.874 120.557Z" fill="#739779"/>
<path d="M231.103 120.799L231.6 121.041L231.103 120.799Z" fill="#BDCEC0"/>
<path d="M243.791 120.799L244.287 121.041L243.791 120.799Z" fill="#C3D2C5"/>
<path d="M260.458 120.557V121.284H262.697L260.458 120.557Z" fill="#B9CBBC"/>
<path d="M265.184 121.042L265.433 121.526L265.184 121.042Z" fill="#4A7852"/>
<path d="M189.559 121.284L190.305 122.011L189.559 121.284Z" fill="#7C9E82"/>
<path d="M227.62 121.284L228.367 122.011L227.62 121.284Z" fill="#83A388"/>
<path d="M246.278 121.284L247.024 122.011L246.278 121.284Z" fill="#99B39D"/>
<path d="M257.473 121.284L258.219 122.011L257.473 121.284Z" fill="#779A7D"/>
<path d="M275.384 121.284L276.131 122.011L275.384 121.284Z" fill="#658C6C"/>
<path d="M179.11 122.01L179.857 122.737L179.11 122.01Z" fill="#88A68D"/>
<path d="M184.334 122.01L185.081 122.737L184.334 122.01Z" fill="#698F70"/>
<path d="M194.783 122.01L195.529 122.737L194.783 122.01Z" fill="#92AE97"/>
<path d="M196.275 122.01L197.022 122.737L196.275 122.01Z" fill="#638B6A"/>
<path d="M202.992 122.01L203.738 122.737L202.992 122.01ZM207.47 122.01L208.216 122.737L207.47 122.01Z" fill="#6E9374"/>
<path d="M210.455 122.01L211.202 122.737L210.455 122.01Z" fill="#90AC95"/>
<path d="M215.679 122.01L216.426 122.737L215.679 122.01Z" fill="#648C6B"/>
<path d="M220.157 122.01L220.904 122.737L220.157 122.01Z" fill="#76997C"/>
<path d="M233.591 122.01L234.337 122.737L233.591 122.01Z" fill="#8AA88F"/>
<path d="M241.054 122.01L241.8 122.737L241.054 122.01Z" fill="#84A389"/>
<path d="M41.5404 122.979L42.037 123.222L41.5404 122.979Z" fill="#8AB4BA"/>
<path d="M204.485 122.738V123.465H206.724L204.485 122.738ZM230.606 122.738V123.465H232.845L230.606 122.738Z" fill="#3B6D44"/>
<path d="M242.547 122.738V123.465H244.785L242.547 122.738Z" fill="#3C6E45"/>
<path d="M260.458 122.738V123.465H262.697L260.458 122.738Z" fill="#3E7047"/>
<path d="M270.906 122.738V123.465H273.145L270.906 122.738Z" fill="#3C6E45"/>
<path d="M215.431 123.707L215.927 123.949L215.431 123.707Z" fill="#87A68C"/>
<path d="M240.805 123.707L241.302 123.949L240.805 123.707Z" fill="#76997C"/>
<path d="M70.1489 124.191V124.918H72.3879L70.1489 124.191ZM77.612 124.191V124.918H79.851L77.612 124.191Z" fill="#3C8994"/>
<path d="M214.435 124.676L214.684 125.16L214.435 124.676Z" fill="#497851"/>
<path d="M217.918 124.191V124.918H220.157L217.918 124.191Z" fill="#94AF99"/>
<path d="M223.143 124.191L223.889 124.918L223.143 124.191Z" fill="#789B7E"/>
<path d="M239.81 124.676L240.059 125.16L239.81 124.676Z" fill="#89A78E"/>
<path d="M242.547 124.191V124.918H245.532L242.547 124.191Z" fill="#9BB59F"/>
<path d="M247.771 124.918L248.517 125.645L247.771 124.918Z" fill="#688F6F"/>
<path d="M240.308 125.645L241.054 126.372L240.308 125.645Z" fill="#81A186"/>
<path d="M217.172 126.372V127.099H220.157L217.172 126.372Z" fill="#5C8663"/>
<path d="M242.547 126.372V127.099H245.532L242.547 126.372Z" fill="#618968"/>
<path d="M58.2079 139.457C59.1455 142.458 60.5636 142.934 63.4321 141.638C63.9185 144.481 65.0259 145.055 67.91 145.273V136.55L63.4321 137.277C62.8717 134.135 61.2448 133.82 58.2079 134.369C56.6015 125.001 47.4791 141.786 58.2079 139.457ZM84.3288 134.369C81.2921 133.82 79.6651 134.135 79.1046 137.277L74.6268 136.55V145.273C77.5105 145.055 78.618 144.481 79.1046 141.638C81.9734 142.934 83.3914 142.458 84.3288 139.457C95.0578 141.786 85.9349 125.001 84.3288 134.369Z" fill="#FAB226"/>
<path d="M15.6683 135.823V136.55H52.9838C43.3641 132.617 26.1535 135.823 15.6683 135.823Z" fill="#C6C6C6"/>
<path d="M65.4223 136.065L65.919 136.307L65.4223 136.065Z" fill="#9EBE88"/>
<path d="M75.3731 135.823V136.55H77.612L75.3731 135.823Z" fill="#94BF93"/>
<path d="M67.91 138.004V144.546H68.6563L67.91 138.004ZM73.8805 138.004V144.546H74.6268L73.8805 138.004Z" fill="#BC961F"/>
<path d="M62.6858 141.638L63.4321 143.819L62.6858 141.638ZM79.1046 141.638V143.819L80.5972 143.092V142.365L79.1046 141.638Z" fill="#3F5E12"/>
<path d="M64.9247 145.273V146H67.1637L64.9247 145.273ZM75.3731 145.273V146H77.612L75.3731 145.273Z" fill="#6A7117"/>
</svg>
