<svg width="80" height="80" viewBox="0 0 80 80" fill="none" xmlns="http://www.w3.org/2000/svg">
<path d="M72.6851 33.4716H70.0001V33.3333H40.0001V46.6666H58.8384C56.0901 54.4283 48.7051 60 40.0001 60C28.9551 60 20.0001 51.045 20.0001 40C20.0001 28.955 28.9551 20 40.0001 20C45.0984 20 49.7368 21.9233 53.2684 25.065L62.6968 15.6366C56.7434 10.0883 48.7801 6.66663 40.0001 6.66663C21.5917 6.66663 6.66675 21.5916 6.66675 40C6.66675 58.4083 21.5917 73.3333 40.0001 73.3333C58.4084 73.3333 73.3334 58.4083 73.3334 40C73.3334 37.765 73.1034 35.5833 72.6851 33.4716Z" fill="#FFC107"/>
<path d="M10.51 24.485L21.4617 32.5166C24.425 25.18 31.6017 20 40 20C45.0983 20 49.7367 21.9233 53.2683 25.065L62.6967 15.6366C56.7433 10.0883 48.78 6.66663 40 6.66663C27.1967 6.66663 16.0933 13.895 10.51 24.485Z" fill="#FF3D00"/>
<path d="M39.9999 73.3334C48.6099 73.3334 56.4333 70.0384 62.3483 64.68L52.0316 55.95C48.6849 58.485 44.5249 60 39.9999 60C31.33 60 23.9683 54.4717 21.195 46.7567L10.325 55.1317C15.8416 65.9267 27.045 73.3334 39.9999 73.3334Z" fill="#4CAF50"/>
<path d="M72.685 33.4717H70V33.3334H40V46.6667H58.8383C57.5183 50.395 55.12 53.61 52.0267 55.9517C52.0283 55.95 52.03 55.95 52.0317 55.9484L62.3483 64.6784C61.6183 65.3417 73.3333 56.6667 73.3333 40C73.3333 37.765 73.1033 35.5834 72.685 33.4717Z" fill="#1976D2"/>
</svg>
