<svg width="60" height="60" viewBox="0 0 60 60" fill="none" xmlns="http://www.w3.org/2000/svg">
<path d="M13.0002 25.9902C12.4483 25.9902 12.0002 26.4383 12.0002 26.9903V32.991C12.0002 33.543 12.4483 33.991 13.0002 33.991C13.5522 33.991 14.0002 33.543 14.0002 32.991V26.9903C14.0003 26.4383 13.5523 25.9902 13.0002 25.9902Z" fill="white"/>
<path d="M13.1083 0.267347L3.65305 4.05081C0.990021 5.03693 0 6.37512 0 8.98834V51.0019C0 53.6153 0.990021 54.9534 3.62809 55.9315L13.1273 59.732C13.5973 59.91 14.0692 60 14.5313 60C16.5414 60 18.0004 58.3198 18.0004 56.0045V3.98787C18.0004 1.14354 15.7323 -0.720651 13.1083 0.267347ZM16.0003 56.0045C16.0003 57.1976 15.4103 57.9997 14.5313 57.9997C14.3123 57.9997 14.0763 57.9527 13.8513 57.8687L4.3481 54.0653C2.46111 53.3662 2.00008 52.7642 2.00008 51.0019V8.98834C2.00008 7.22611 2.46111 6.62511 4.37213 5.91699L13.8323 2.13259C14.0763 2.04059 14.3112 1.99359 14.5303 1.99359C15.4093 1.99359 16.0003 2.79465 16.0003 3.98787V56.0045Z" fill="white"/>
<path d="M20.8755 5.98805H35.0007C36.6548 5.98805 38.0008 7.33421 38.0008 8.98838V23.99C38.0008 24.542 38.4478 24.9901 39.0008 24.9901C39.5538 24.9901 40.0008 24.542 40.0008 23.99V8.98838C40.0008 6.23112 37.7577 3.98779 35.0006 3.98779H20.8755C20.3235 3.98779 19.8755 4.43585 19.8755 4.98786C19.8755 5.53988 20.3235 5.98805 20.8755 5.98805Z" fill="white"/>
<path d="M39.0009 34.9912C38.4478 34.9912 38.0009 35.4393 38.0009 35.9913V50.9929C38.0009 52.6471 36.6548 53.9932 35.0008 53.9932H21.0005C20.4485 53.9932 20.0005 54.4413 20.0005 54.9933C20.0005 55.5453 20.4485 55.9934 21.0005 55.9934H35.0008C37.7578 55.9934 40.001 53.7502 40.001 50.9928V35.9912C40.0008 35.4393 39.5539 34.9912 39.0009 34.9912Z" fill="white"/>
<path d="M59.9242 29.6086C59.8733 29.4856 59.8002 29.3756 59.7072 29.2826L49.708 19.2815C49.3169 18.8905 48.6849 18.8905 48.2939 19.2815C47.9029 19.6726 47.9029 20.3047 48.2939 20.6957L56.5871 28.9905H23.0005C22.4485 28.9905 22.0005 29.4386 22.0005 29.9906C22.0005 30.5426 22.4485 30.9906 23.0005 30.9906H56.5872L48.2939 39.2847C47.9029 39.6758 47.9029 40.3078 48.2939 40.6988C48.4889 40.8938 48.745 40.9918 49.0009 40.9918C49.257 40.9918 49.513 40.8938 49.708 40.6988L59.7072 30.6987C59.8002 30.6056 59.8733 30.4957 59.9242 30.3727C60.0252 30.1288 60.0252 29.8527 59.9242 29.6086Z" fill="white"/>
</svg>
