<svg width="1920" height="1080" viewBox="0 0 1920 1080" fill="none" xmlns="http://www.w3.org/2000/svg">
<g clip-path="url(#clip0_3_3)">
<rect width="1920" height="1080" fill="#00420C"/>
<ellipse cx="1768" cy="50" rx="251" ry="248" fill="white"/>
<ellipse cx="1508" cy="173" rx="121" ry="125" fill="#D41B00"/>
<path d="M2172 694.028C2172 973.208 1894.64 1199.53 1552.5 1199.53C1210.36 1199.53 937 973.208 937 694.028C937 414.848 1217 734.028 1552.5 188.528C1701.5 -99.5 2172 414.848 2172 694.028Z" fill="#6D9273"/>
<path d="M1132 601V978H1885V601H1132Z" fill="#6D9273"/>
<path d="M1176.8 655.517V659.171L1219.74 675.615V677.442H1167.46V723.119C1128.19 723.144 1128.98 770.286 1167.46 770.623V858.322L1188 860.149L1169.33 854.668C1169.33 845.681 1165.02 821.991 1173.66 816.351C1180.61 811.807 1194.88 814.472 1202.94 814.472V812.645H1169.33V766.968C1132.96 766.65 1133.34 725.7 1169.33 724.946V679.269L1230.94 679.845L1311.22 659.171C1298.4 672.353 1256.91 679.293 1238.41 681.096L1266.41 696.134L1307.49 712.881L1331.76 704.573L1389.64 680.963L1449.38 679.269V723.119C1411.31 723.225 1411.12 768.767 1449.38 768.796V808.991H1417.64V812.645H1449.38V856.495C1486.78 859.488 1486.72 897.356 1449.38 900.345V944.195H1356.03V947.849H1453.12V902.172C1491.16 901.84 1491.52 855.468 1453.12 854.668V766.968C1416.15 766.865 1416.49 726.512 1453.12 724.946V677.442H1398.97V675.615L1445.65 657.344L1352.3 622.532L1309.36 608.54L1268.28 622.047L1176.8 655.517Z" fill="#231F20"/>
<path d="M1305.62 659.171V660.998L1311.22 662.825L1305.62 659.171Z" fill="#B38223"/>
<path d="M1230.94 679.269L1230.69 745.043L1223.47 777.931L1242.14 779.758L1233.08 745.043L1232.81 682.923L1309.36 662.825C1289.32 654.848 1252.39 677.177 1230.94 679.269Z" fill="#FAB226"/>
<path d="M1291.93 663.434L1293.17 664.041L1291.93 663.434Z" fill="#A07523"/>
<path d="M1306.87 663.434L1308.11 664.041L1306.87 663.434Z" fill="#705322"/>
<path d="M1299.4 665.261L1300.64 665.868L1299.4 665.261Z" fill="#846123"/>
<path d="M1278.86 667.088L1280.1 667.695L1278.86 667.088Z" fill="#B07F23"/>
<path d="M1271.39 668.915L1272.64 669.522L1271.39 668.915Z" fill="#9A7023"/>
<path d="M1286.33 668.915L1287.57 669.522L1286.33 668.915Z" fill="#705422"/>
<path d="M1278.86 670.743L1280.1 671.35L1278.86 670.743Z" fill="#856223"/>
<path d="M1258.32 672.569L1259.57 673.176L1258.32 672.569Z" fill="#AA7B23"/>
<path d="M1265.79 674.397L1267.03 675.004L1265.79 674.397Z" fill="#715521"/>
<path d="M1258.32 676.223L1259.57 676.83L1258.32 676.223Z" fill="#866322"/>
<path d="M1237.79 678.051L1239.03 678.658L1237.79 678.051Z" fill="#A37623"/>
<path d="M1169.33 679.269V681.096H1227.21L1169.33 679.269Z" fill="#8B8C8C"/>
<path d="M1245.26 679.878L1246.5 680.485L1245.26 679.878Z" fill="#705422"/>
<path d="M1391.5 679.269V681.096H1449.38L1391.5 679.269Z" fill="#515253"/>
<path d="M1169.33 681.096V724.946H1171.2L1169.33 681.096Z" fill="#C5C5C5"/>
<path d="M1171.2 681.096C1171.2 691.734 1175.45 713.488 1169.28 722.538C1160.99 734.696 1141.11 724.058 1141.39 746.871C1141.65 768.17 1161.42 757.857 1169.28 769.376C1175.45 778.427 1171.2 800.179 1171.2 810.818H1202.94L1207.66 779.758L1208.54 701.194L1229.07 710.329V681.096H1171.2Z" fill="white"/>
<path d="M1229.07 681.096V710.329H1230.94L1229.07 681.096Z" fill="#FDE1A9"/>
<path d="M1234.68 682.923V735.908C1253.95 727.102 1265.9 722.413 1286.95 729.877C1293.95 732.36 1302.13 740.933 1309.36 741.047C1319.07 741.2 1331.27 729.115 1341.1 726.387C1359.99 721.138 1371.66 730.753 1387.77 737.735V681.096L1331.76 703.791L1307.49 712.107L1234.68 682.923Z" fill="#393536"/>
<path d="M1387.77 681.096V710.329H1389.64L1387.77 681.096Z" fill="#A1A0A0"/>
<path d="M1389.64 681.096V710.329L1412.04 701.194L1417.64 808.991H1449.38V770.623C1411.16 769.743 1412.09 723.189 1449.38 721.292V681.096H1389.64Z" fill="white"/>
<path d="M1232.81 682.923V737.735H1234.68L1232.81 682.923Z" fill="#B1822B"/>
<path d="M1525.93 682.923V684.75H1540.87L1525.93 682.923Z" fill="#8AA88F"/>
<path d="M1598.12 683.532L1599.36 684.139L1598.12 683.532Z" fill="#6B9171"/>
<path d="M1600.61 683.786C1548.05 693.062 1563.83 778.077 1619.28 766.255C1668.51 755.76 1651.13 674.869 1600.61 683.786Z" fill="white"/>
<path d="M1613.06 683.532L1614.3 684.139L1613.06 683.532Z" fill="#9EB7A2"/>
<path d="M1669.69 682.923V684.75H1701.43L1669.69 682.923ZM1742.5 682.923V684.75H1785.44L1742.5 682.923ZM1811.58 682.923V684.75H1843.32L1811.58 682.923Z" fill="#44744C"/>
<path d="M1520.33 685.916C1464.5 701.706 1501.47 791.891 1551.79 764.095C1556.24 761.637 1559.65 754.662 1553.34 751.96C1546.82 749.169 1538.53 754.639 1531.53 753.76C1514.51 751.621 1503.45 733.337 1508.48 717.637C1511.96 706.761 1523.35 697.398 1535.26 697.809C1540.91 698.004 1549.53 703.106 1554.67 699.289C1560.32 695.087 1554.56 688.725 1550.09 686.848C1541.98 683.442 1528.73 683.54 1520.33 685.916Z" fill="white"/>
<path d="M1547.71 685.359L1548.95 685.966L1547.71 685.359Z" fill="#507D58"/>
<path d="M1677.16 735.908C1688.94 735.908 1704.91 738.855 1714.08 730.01C1728.09 716.493 1721.81 688.574 1701.43 685.16C1694.22 683.952 1670.99 681.529 1666.01 687.68C1659.49 695.729 1664.09 720.437 1664.09 730.427C1664.09 737.557 1660.3 760.24 1667.07 764.707C1679.49 772.899 1677.16 740.728 1677.16 735.908ZM1749.97 754.179C1749.97 747.143 1747.69 735.017 1755.85 731.529C1761.49 729.121 1784.26 734.243 1784.26 724.946C1784.26 715.649 1761.49 720.771 1755.85 718.362C1748.08 715.044 1749.97 704.27 1749.97 697.54C1755.81 697.54 1794.77 700.826 1788.85 688.95C1785.24 681.701 1743.7 681.649 1738.82 687.68C1735.2 692.154 1736.9 701.358 1736.9 706.675C1736.9 721.76 1731.84 747.344 1738.03 761.217C1741.99 770.101 1786.97 771.364 1789.49 761.324C1792.28 750.24 1756.52 754.179 1749.97 754.179Z" fill="white"/>
<path d="M1787.31 684.75L1789.18 686.577L1787.31 684.75Z" fill="#91AD96"/>
<path d="M1808.97 686.628C1802.16 691.909 1805.98 713.555 1805.98 721.292C1805.98 731.862 1801.75 753.712 1807.9 762.733C1816.09 774.741 1854.62 766.341 1863.78 758.941C1883.13 743.307 1881.64 705.668 1861.96 691.017C1853.31 684.572 1842.46 684.754 1832.12 684.75C1825.91 684.748 1814.17 682.604 1808.97 686.628Z" fill="white"/>
<path d="M1850.17 685.359L1851.41 685.966L1850.17 685.359Z" fill="#87A68C"/>
<path d="M1514.73 686.577L1516.59 688.404L1514.73 686.577Z" fill="#658C6C"/>
<path d="M1552.07 686.577L1553.93 688.404L1552.07 686.577Z" fill="#83A388"/>
<path d="M1789.18 686.577L1791.05 688.404L1789.18 686.577Z" fill="#8BA990"/>
<path d="M1510.99 688.404L1512.86 690.231L1510.99 688.404Z" fill="#638B6A"/>
<path d="M1585.67 688.404L1587.54 690.231L1585.67 688.404Z" fill="#A1B9A5"/>
<path d="M1662.22 688.404V761.487H1664.09C1664.09 740.596 1670.46 707.61 1662.22 688.404Z" fill="#688F6F"/>
<path d="M1710.76 688.404L1712.63 690.231L1710.76 688.404Z" fill="#8FAC94"/>
<path d="M1735.04 688.404V761.487H1736.9C1736.9 740.596 1743.27 707.61 1735.04 688.404ZM1804.12 688.404V761.487H1805.98C1805.98 740.596 1812.35 707.61 1804.12 688.404Z" fill="#688F6F"/>
<path d="M1861.99 690.231L1863.86 692.058L1861.99 690.231Z" fill="#668D6D"/>
<path d="M1557.67 692.058V697.539H1559.54L1557.67 692.058Z" fill="#799B7F"/>
<path d="M1714.5 692.058L1716.36 693.885L1714.5 692.058Z" fill="#9DB6A1"/>
<path d="M1863.86 692.058L1865.73 693.885L1863.86 692.058Z" fill="#91AD96"/>
<path d="M1503.53 693.885L1505.39 695.712L1503.53 693.885Z" fill="#688F6F"/>
<path d="M1636.08 693.885L1637.95 695.712L1636.08 693.885Z" fill="#618968"/>
<path d="M1716.37 693.885L1718.23 695.712L1716.37 693.885Z" fill="#628A69"/>
<path d="M1789.18 693.885L1791.05 695.712L1789.18 693.885Z" fill="#93AF98"/>
<path d="M1865.73 693.885L1867.59 695.712L1865.73 693.885Z" fill="#89A78E"/>
<path d="M1501.66 695.712L1503.53 697.539L1501.66 695.712Z" fill="#628A69"/>
<path d="M1787.31 695.712L1789.18 697.539L1787.31 695.712Z" fill="#80A186"/>
<path d="M1867.59 695.712L1869.46 697.539L1867.59 695.712Z" fill="#6C9272"/>
<path d="M1527.17 698.149L1528.42 698.756L1527.17 698.149Z" fill="#7FA085"/>
<path d="M1529.66 697.539V699.366H1539L1529.66 697.539Z" fill="#35693E"/>
<path d="M1540.24 698.149L1541.49 698.756L1540.24 698.149Z" fill="#93AF98"/>
<path d="M1599.99 698.149L1601.23 698.756L1599.99 698.149Z" fill="#54805C"/>
<path d="M1602.48 698.515C1572.66 705.468 1579.78 759.699 1611.81 753.289C1644.03 746.841 1636.75 690.524 1602.48 698.515Z" fill="#6D9273"/>
<path d="M1677.16 697.539V699.366H1701.43L1677.16 697.539Z" fill="#2C6235"/>
<path d="M1718.23 697.539L1720.1 699.366L1718.23 697.539Z" fill="#91AD96"/>
<path d="M1749.97 697.539V717.637H1751.84L1749.97 697.539Z" fill="#B0C4B3"/>
<path d="M1751.84 697.539V699.366H1785.44L1751.84 697.539Z" fill="#2C6235"/>
<path d="M1819.05 697.539V754.179H1820.92L1819.05 697.539Z" fill="#B0C4B3"/>
<path d="M1820.92 697.539V699.366H1845.19L1820.92 697.539Z" fill="#2C6235"/>
<path d="M1595.01 699.367L1596.88 701.194L1595.01 699.367Z" fill="#9AB49E"/>
<path d="M1677.16 699.366V723.118C1685.84 723.118 1725.02 716.421 1702.49 701.244C1696.37 697.125 1684.26 699.366 1677.16 699.366ZM1820.92 699.366V752.352C1830.26 752.352 1844.29 754.876 1852.26 749.168C1865.75 739.502 1865.91 709.439 1850.61 701.244C1842.72 697.015 1829.67 699.366 1820.92 699.366Z" fill="#6D9273"/>
<path d="M1208.54 701.193V776.104C1225.13 754.658 1246.46 711.884 1208.54 701.193ZM1387.77 710.329L1390.2 741.389L1410.17 776.104H1412.04V701.193L1387.77 710.329Z" fill="#39808B"/>
<path d="M1518.46 701.193L1520.33 703.021L1518.46 701.193Z" fill="#638B6A"/>
<path d="M1572.61 701.193L1574.47 703.021L1572.61 701.193Z" fill="#668D6D"/>
<path d="M1641.68 701.193L1643.55 703.021L1641.68 701.193Z" fill="#709576"/>
<path d="M1720.72 702.412L1721.34 703.63L1720.72 702.412Z" fill="#AFC3B2"/>
<path d="M1705.16 703.021L1707.03 704.848L1705.16 703.021Z" fill="#8FAC94"/>
<path d="M1570.74 704.848L1572.61 706.675L1570.74 704.848Z" fill="#7B9D81"/>
<path d="M1643.55 704.848L1645.42 706.675L1643.55 704.848Z" fill="#87A68C"/>
<path d="M1206.67 706.675V719.464H1208.54L1206.67 706.675Z" fill="#ADCBCF"/>
<path d="M1626.75 706.675L1628.62 708.502L1626.75 706.675Z" fill="#638B6A"/>
<path d="M1707.03 706.675V713.983H1708.9L1707.03 706.675Z" fill="#B1C5B4"/>
<path d="M1856.39 706.675L1858.26 708.502L1856.39 706.675Z" fill="#638B6A"/>
<path d="M1510.99 708.502L1512.86 710.329L1510.99 708.502Z" fill="#608967"/>
<path d="M1569.49 709.72L1570.11 710.938L1569.49 709.72Z" fill="#ACC1AF"/>
<path d="M1646.04 709.72L1646.66 710.938L1646.04 709.72Z" fill="#BBCCBE"/>
<path d="M1229.07 710.329V743.216H1230.94L1229.07 710.329Z" fill="#859463"/>
<path d="M1412.04 710.329V724.946H1413.91L1412.04 710.329Z" fill="#8CB5BB"/>
<path d="M1875.68 711.547L1876.3 712.765L1875.68 711.547Z" fill="#9AB49E"/>
<path d="M1387.77 712.156L1385.9 739.562C1392.17 734.206 1390.81 719.245 1387.77 712.156Z" fill="#385D63"/>
<path d="M1492.94 713.374L1493.57 714.592L1492.94 713.374Z" fill="#B9CBBC"/>
<path d="M1567.63 715.201L1568.25 716.419L1567.63 715.201Z" fill="#6D9273"/>
<path d="M1647.91 715.201L1648.53 716.419L1647.91 715.201Z" fill="#7E9F84"/>
<path d="M1860.75 715.201L1861.37 716.419L1860.75 715.201Z" fill="#88A68D"/>
<path d="M1507.88 717.028L1508.5 718.246L1507.88 717.028Z" fill="#618968"/>
<path d="M1567 717.637V732.254H1568.87L1567 717.637Z" fill="#DCE5DD"/>
<path d="M1632.35 717.637V730.427H1634.22L1632.35 717.637Z" fill="#789B7E"/>
<path d="M1720.72 718.855L1721.34 720.073L1720.72 718.855Z" fill="#3C6E45"/>
<path d="M1751.84 717.637V719.465H1781.71L1751.84 717.637Z" fill="#D4DFD6"/>
<path d="M1876.93 717.637V732.254H1878.8L1876.93 717.637Z" fill="#598460"/>
<path d="M1490.46 719.464V732.254H1492.32L1490.46 719.464Z" fill="#648C6B"/>
<path d="M1581.94 719.464V730.427H1583.81L1581.94 719.464Z" fill="#7E9F84"/>
<path d="M1703.3 719.464L1705.16 721.291L1703.3 719.464Z" fill="#74987A"/>
<path d="M1438.18 721.292V723.119H1443.78L1438.18 721.292Z" fill="#C6C6C6"/>
<path d="M1443.78 721.292V723.119H1449.38L1443.78 721.292Z" fill="#8C8D8D"/>
<path d="M1701.43 721.292L1703.3 723.119L1701.43 721.292Z" fill="#6C9272"/>
<path d="M1677.16 723.118V724.945H1699.56L1677.16 723.118Z" fill="#88A68D"/>
<path d="M1156.26 724.945V726.773H1169.33L1156.26 724.945Z" fill="#8B8C8C"/>
<path d="M1240.28 759.66C1260.77 733.552 1298.6 733.355 1309.36 768.795H1311.22C1324.91 723.284 1378.29 738.9 1387.77 777.931L1412.04 779.758C1402.27 746.559 1376.23 719.995 1339.23 727.09C1329.41 728.972 1318.86 739.824 1309.36 739.568C1290.51 739.059 1277.41 720.901 1255.21 725.913C1238.25 729.743 1227.35 744.994 1240.28 759.66Z" fill="#57C7D4"/>
<path d="M1341.1 724.945V726.773H1348.56L1341.1 724.945Z" fill="#4C979F"/>
<path d="M1356.03 724.945V726.773H1365.37L1356.03 724.945Z" fill="#4A8D95"/>
<path d="M1150.66 726.773L1152.53 728.6L1150.66 726.773Z" fill="#8B8C8C"/>
<path d="M1425.11 728.6L1426.98 730.427L1425.11 728.6Z" fill="#A8A8A9"/>
<path d="M1507.26 730.427V735.908H1509.13L1507.26 730.427Z" fill="#57825E"/>
<path d="M1751.84 730.427V732.254H1781.71L1751.84 730.427Z" fill="#9CB5A0"/>
<path d="M1567.63 733.472L1568.25 734.69L1567.63 733.472Z" fill="#618968"/>
<path d="M1647.29 732.254V737.735H1649.15L1647.29 732.254Z" fill="#739779"/>
<path d="M1749.97 732.254V754.179H1751.84L1749.97 732.254Z" fill="#B0C4B3"/>
<path d="M1707.03 734.081L1708.9 735.908L1707.03 734.081Z" fill="#75987B"/>
<path d="M1141.32 735.908L1143.19 737.735L1141.32 735.908Z" fill="#A8A8A9"/>
<path d="M1492.94 737.126L1493.57 738.344L1492.94 737.126Z" fill="#89A78E"/>
<path d="M1583.81 735.908L1585.67 737.735L1583.81 735.908Z" fill="#7C9E82"/>
<path d="M1630.48 735.908L1632.35 737.735L1630.48 735.908Z" fill="#739779"/>
<path d="M1677.16 735.908V737.735H1703.3L1677.16 735.908Z" fill="#D4DFD6"/>
<path d="M1232.81 737.735V752.351H1234.68L1232.81 737.735Z" fill="#BCB967"/>
<path d="M1875.68 738.953L1876.3 740.171L1875.68 738.953Z" fill="#47764F"/>
<path d="M1139.46 739.562V750.525H1141.32L1139.46 739.562Z" fill="#C5C5C5"/>
<path d="M1242.14 766.968C1250.08 759.798 1257.35 750.876 1268.28 748.063C1286.71 743.323 1302.75 762.168 1305.62 777.931H1314.96C1321.76 735.275 1371.73 744.368 1382.17 779.758H1410.17V777.931H1387.77C1381.7 738.306 1319.87 721.891 1311.22 768.795C1304.99 756 1296.86 742.898 1281.35 740.164C1264.86 737.257 1237.17 746.764 1242.14 766.968Z" fill="#39808B"/>
<path d="M1509.13 739.562L1510.99 741.389L1509.13 739.562Z" fill="#9DB6A1"/>
<path d="M1569.49 740.78L1570.11 741.998L1569.49 740.78Z" fill="#42724A"/>
<path d="M1646.04 740.78L1646.66 741.998L1646.04 740.78Z" fill="#507D58"/>
<path d="M1858.26 739.562L1860.13 741.389L1858.26 739.562Z" fill="#7C9E82"/>
<path d="M1229.07 743.216V752.352H1230.94L1229.07 743.216Z" fill="#97BF8F"/>
<path d="M1494.19 743.216L1496.06 745.043L1494.19 743.216Z" fill="#85A48A"/>
<path d="M1587.54 743.216L1589.41 745.043L1587.54 743.216Z" fill="#8EAB93"/>
<path d="M1626.75 743.216L1628.62 745.043L1626.75 743.216Z" fill="#94AF99"/>
<path d="M1856.39 743.216L1858.26 745.043L1856.39 743.216Z" fill="#80A186"/>
<path d="M1873.19 743.216L1875.06 745.043L1873.19 743.216Z" fill="#9AB49E"/>
<path d="M1227.21 745.043L1208.54 779.758H1221.61L1227.21 745.043Z" fill="#57C7D4"/>
<path d="M1418.26 746.261L1418.89 747.479L1418.26 746.261Z" fill="#C5C5C5"/>
<path d="M1624.88 745.043L1626.75 746.871L1624.88 745.043Z" fill="#608967"/>
<path d="M1643.55 745.043L1645.42 746.871L1643.55 745.043Z" fill="#6A9071"/>
<path d="M1266.41 746.871V748.698H1279.48L1266.41 746.871ZM1339.23 746.871V748.698H1350.43L1339.23 746.871Z" fill="#2E5056"/>
<path d="M1496.06 746.871L1497.92 748.698L1496.06 746.871Z" fill="#87A68C"/>
<path d="M1623.01 746.871L1624.88 748.698L1623.01 746.871Z" fill="#5F8866"/>
<path d="M1242.14 779.758C1235.31 779.758 1212.96 776.253 1208.87 782.581C1203.62 790.697 1232.86 788.893 1236.54 788.893C1237 838.588 1301.38 836.118 1305.62 788.893H1314.96C1318.98 837.002 1379.98 837.51 1384.04 788.893C1388.52 788.893 1413.77 791.513 1412.19 783.723C1410.76 776.675 1387.65 779.758 1382.17 779.758C1375.4 742.639 1318.79 736.274 1314.96 777.931H1305.62C1301.5 738.558 1242.51 739.842 1242.14 779.758Z" fill="#231F20"/>
<path d="M1593.14 748.698L1595.01 750.525L1593.14 748.698Z" fill="#83A388"/>
<path d="M1621.15 748.698L1623.01 750.525L1621.15 748.698Z" fill="#91AD96"/>
<path d="M1553.93 750.525L1555.8 752.352L1553.93 750.525Z" fill="#A0B8A4"/>
<path d="M1574.47 750.525L1576.34 752.352L1574.47 750.525Z" fill="#9FB8A3"/>
<path d="M1848.92 750.525L1850.79 752.352L1848.92 750.525Z" fill="#8FAC94"/>
<path d="M1412.04 752.351V766.968H1413.91L1412.04 752.351Z" fill="#83B0B6"/>
<path d="M1420.13 753.57L1420.75 754.788L1420.13 753.57Z" fill="#A8A8A9"/>
<path d="M1499.79 752.351L1501.66 754.179L1499.79 752.351Z" fill="#82A287"/>
<path d="M1525.93 752.351V754.179H1539L1525.93 752.351Z" fill="#366A3F"/>
<path d="M1540.24 752.961L1541.49 753.568L1540.24 752.961Z" fill="#7B9D81"/>
<path d="M1613.06 752.961L1614.3 753.568L1613.06 752.961Z" fill="#97B29B"/>
<path d="M1751.84 752.351V754.179H1785.44L1751.84 752.351ZM1820.92 752.351V754.179H1845.19L1820.92 752.351Z" fill="#709576"/>
<path d="M1269.53 754.788L1270.77 755.395L1269.53 754.788Z" fill="#908E8F"/>
<path d="M1273.26 754.788L1274.5 755.395L1273.26 754.788Z" fill="#C7C6C7"/>
<path d="M1276.99 754.788L1278.24 755.395L1276.99 754.788Z" fill="#828081"/>
<path d="M1341.1 754.179V756.006H1348.56L1341.1 754.179Z" fill="#ACAAAB"/>
<path d="M1349.81 754.788L1351.05 755.395L1349.81 754.788Z" fill="#757273"/>
<path d="M1501.66 754.179L1503.53 756.006L1501.66 754.179Z" fill="#9BB59F"/>
<path d="M1557.67 754.179V759.66H1559.54L1557.67 754.179Z" fill="#82A287"/>
<path d="M1264.55 757.29C1231.71 768.209 1241.44 831.066 1279.48 816.771C1310.08 805.269 1302.14 744.79 1264.55 757.29ZM1335.52 757.884C1304.9 773.326 1329.44 834.267 1363.33 815.718C1392.54 799.726 1368.44 741.281 1335.52 757.884Z" fill="white"/>
<path d="M1789.18 756.006L1791.05 757.833L1789.18 756.006Z" fill="#9CB5A0"/>
<path d="M1143.19 757.833L1145.06 759.66L1143.19 757.833Z" fill="#6F7070"/>
<path d="M1421.38 757.833L1423.24 759.66L1421.38 757.833Z" fill="#A8A8A9"/>
<path d="M1505.39 757.833L1507.26 759.66L1505.39 757.833Z" fill="#7FA085"/>
<path d="M1145.06 759.66L1146.93 761.487L1145.06 759.66Z" fill="#9A9B9B"/>
<path d="M1257.08 759.66L1258.95 761.487L1257.08 759.66Z" fill="#9E9C9D"/>
<path d="M1361.63 759.66L1363.5 761.487L1361.63 759.66Z" fill="#828081"/>
<path d="M1146.93 761.487L1148.79 763.314L1146.93 761.487Z" fill="#6F7070"/>
<path d="M1510.99 761.487L1512.86 763.314L1510.99 761.487Z" fill="#8AA88F"/>
<path d="M1555.8 761.487L1557.67 763.314L1555.8 761.487Z" fill="#76997C"/>
<path d="M1585.67 761.487L1587.54 763.314L1585.67 761.487ZM1628.62 761.487L1630.48 763.314L1628.62 761.487Z" fill="#628A69"/>
<path d="M1858.26 761.487L1860.13 763.314L1858.26 761.487Z" fill="#8AA88F"/>
<path d="M1150.66 763.314L1152.53 765.141L1150.66 763.314Z" fill="#A9A9AA"/>
<path d="M1514.73 763.314L1516.59 765.141L1514.73 763.314Z" fill="#86A58B"/>
<path d="M1552.07 763.314L1553.93 765.141L1552.07 763.314Z" fill="#99B39D"/>
<path d="M1589.41 763.314L1591.28 765.141L1589.41 763.314Z" fill="#7B9D81"/>
<path d="M1624.88 763.314L1626.75 765.141L1624.88 763.314Z" fill="#7C9E82"/>
<path d="M1736.9 763.314L1738.77 765.141L1736.9 763.314Z" fill="#92AE97"/>
<path d="M1789.18 763.314L1791.05 765.141L1789.18 763.314Z" fill="#678E6E"/>
<path d="M1805.98 763.314L1807.85 765.141L1805.98 763.314Z" fill="#92AE97"/>
<path d="M1854.52 763.314L1856.39 765.141L1854.52 763.314Z" fill="#8FAC94"/>
<path d="M1154.39 765.141V766.968H1159.99L1154.39 765.141Z" fill="#8C8D8D"/>
<path d="M1159.99 765.141V766.968H1169.33L1159.99 765.141Z" fill="#C6C6C6"/>
<path d="M1206.67 765.141V776.103H1208.54L1206.67 765.141Z" fill="#C4D9DC"/>
<path d="M1367.23 765.141L1369.1 766.968L1367.23 765.141Z" fill="#908E8F"/>
<path d="M1428.84 765.141L1430.71 766.968L1428.84 765.141Z" fill="#7D7D7E"/>
<path d="M1519.71 765.75L1520.95 766.357L1519.71 765.75Z" fill="#99B39D"/>
<path d="M1547.71 765.75L1548.95 766.357L1547.71 765.75Z" fill="#638B6A"/>
<path d="M1665.96 765.141L1667.82 766.968L1665.96 765.141Z" fill="#88A68D"/>
<path d="M1738.77 765.141L1740.64 766.968L1738.77 765.141ZM1807.85 765.141L1809.72 766.968L1807.85 765.141Z" fill="#729678"/>
<path d="M1850.17 765.75L1851.41 766.357L1850.17 765.75Z" fill="#45754D"/>
<path d="M1169.33 766.969V810.818H1171.2L1169.33 766.969Z" fill="#C5C5C5"/>
<path d="M1221.61 766.969V777.931H1223.47L1221.61 766.969Z" fill="#CAB858"/>
<path d="M1324.29 766.969L1326.16 768.796L1324.29 766.969Z" fill="#908E8F"/>
<path d="M1525.93 766.969V768.796H1540.87L1525.93 766.969Z" fill="#9BB59F"/>
<path d="M1600.61 766.969V768.796H1615.55L1600.61 766.969Z" fill="#9CB5A0"/>
<path d="M1436.31 768.795V770.622H1449.38L1436.31 768.795Z" fill="#515253"/>
<path d="M1370.97 770.622L1372.83 772.449L1370.97 770.622Z" fill="#828081"/>
<path d="M1221.61 777.931V779.758H1240.28L1221.61 777.931Z" fill="#C48D25"/>
<path d="M1282.6 778.54L1283.84 779.147L1282.6 778.54Z" fill="#BAB9BA"/>
<path d="M1298.15 777.931V788.893H1300.02L1298.15 777.931Z" fill="#908E8F"/>
<path d="M1320.56 777.931V790.72H1322.43L1320.56 777.931ZM1335.49 777.931V779.758L1339.23 785.239H1341.1V777.931H1335.49ZM1244.01 779.758V785.239H1245.88L1244.01 779.758Z" fill="#C7C6C7"/>
<path d="M1279.48 779.758V785.239H1281.35L1279.48 779.758Z" fill="#908E8F"/>
<path d="M1281.35 779.758L1270.15 788.893C1270.18 791.875 1269.97 795.047 1270.57 797.994C1275.65 822.742 1311.49 785.908 1281.35 779.758Z" fill="#231F20"/>
<path d="M1286.95 779.758L1288.82 781.585L1286.95 779.758Z" fill="#838182"/>
<path d="M1350.43 788.893L1339.23 779.758C1307.79 784.621 1342.99 822.824 1349.84 798.038C1350.64 795.124 1350.39 791.873 1350.43 788.893Z" fill="#231F20"/>
<path d="M1375.32 780.976L1375.94 782.193L1375.32 780.976Z" fill="#908E8F"/>
<path d="M1412.04 779.758L1413.91 781.585L1412.04 779.758Z" fill="#A7A9AA"/>
<path d="M1206.67 787.066L1202.94 821.781C1209.05 820.412 1215.25 818.137 1221.61 818.3C1263.83 819.382 1244.16 863.891 1244.16 885.728C1244.16 895.523 1248.39 903.135 1253.35 911.307H1240.28L1262.68 935.059H1264.55C1271.28 930.766 1275.11 930.738 1277.62 938.713C1284.83 938.182 1288.41 939.035 1290.69 946.022L1311.11 951.125L1329.89 946.022C1332.17 939.035 1335.75 938.182 1342.96 938.713C1345.47 930.738 1349.3 930.766 1356.03 935.059H1357.9L1378.44 911.307L1367.23 909.48C1385.63 883.965 1348.93 827.426 1393.37 818.636C1400.69 817.189 1408.46 819.389 1415.78 819.954L1413.91 787.066L1387.77 790.72C1385.49 812.505 1362.21 834.353 1339.23 823.754C1324.13 816.787 1318.7 804.581 1309.36 792.547C1293.37 831.25 1240.22 839.823 1232.81 790.72L1206.67 787.066Z" fill="#57C7D4"/>
<path d="M1292.55 787.066V798.029H1294.42L1292.55 787.066Z" fill="#595657"/>
<path d="M1348.56 787.066L1350.43 788.893L1348.56 787.066Z" fill="#908E8F"/>
<path d="M1212.27 788.893V790.72H1232.81C1233.88 802.741 1238.03 814.41 1249.61 819.953L1236.54 788.893H1212.27ZM1305.62 788.893L1298.15 812.645H1300.02L1309.36 792.547L1316.82 807.164H1318.69L1314.96 788.893H1305.62ZM1384.04 788.893L1374.7 818.126C1383.09 811.092 1387.2 801.443 1387.77 790.72H1410.17L1384.04 788.893Z" fill="#39808B"/>
<path d="M1268.28 790.72V799.856H1270.15L1268.28 790.72ZM1350.43 790.72V796.202H1352.3L1350.43 790.72Z" fill="#908E8F"/>
<path d="M1296.91 795.593L1297.53 796.81L1296.91 795.593Z" fill="#757273"/>
<path d="M1374.7 794.374V799.856H1376.57L1374.7 794.374Z" fill="#9E9C9D"/>
<path d="M1244.01 796.202V801.683H1245.88L1244.01 796.202Z" fill="#908E8F"/>
<path d="M1202.94 798.028V810.818H1204.8L1202.94 798.028Z" fill="#AAE3E9"/>
<path d="M1294.42 799.856L1296.29 801.683L1294.42 799.856Z" fill="#908E8F"/>
<path d="M1415.78 799.856V808.991H1417.64L1415.78 799.856Z" fill="#B5E6EC"/>
<path d="M1292.55 803.51L1294.42 805.337L1292.55 803.51Z" fill="#908E8F"/>
<path d="M1769.89 804.118L1771.13 804.727L1769.89 804.118Z" fill="#4F7C57"/>
<path d="M1273.88 805.337L1275.75 807.164L1273.88 805.337Z" fill="#9E9C9D"/>
<path d="M1565.14 805.337L1567 807.164L1565.14 805.337Z" fill="#7C9E82"/>
<path d="M1567 805.337L1565.14 841.878C1571.79 841.568 1581.28 843.212 1586.73 838.694C1600.8 827.044 1583.67 814.43 1570.74 818.126V805.337H1567ZM1766.77 805.337L1764.91 812.645L1772.38 805.337H1766.77Z" fill="white"/>
<path d="M1805.98 805.337V807.164H1811.58L1805.98 805.337Z" fill="#6D9273"/>
<path d="M1277.62 807.164V808.991H1283.22L1277.62 807.164Z" fill="#C7C6C7"/>
<path d="M1318.69 807.164L1322.42 812.645L1318.69 807.164Z" fill="#3A848E"/>
<path d="M1337.36 807.164V808.991H1342.96L1337.36 807.164Z" fill="#C7C6C7"/>
<path d="M1535.37 809.044C1516.78 818.773 1530.29 850.031 1550.12 839.724C1568.77 830.028 1554.45 799.052 1535.37 809.044Z" fill="white"/>
<path d="M1548.33 807.164L1550.2 808.991L1548.33 807.164Z" fill="#84A389"/>
<path d="M1570.74 807.164V818.126H1572.61L1570.74 807.164Z" fill="#407149"/>
<path d="M1764.91 807.164L1766.77 808.991L1764.91 807.164Z" fill="#8CA991"/>
<path d="M1804.74 808.383L1805.36 809.599L1804.74 808.383Z" fill="#3D6F46"/>
<path d="M1805.98 807.164V810.818H1811.58V807.164H1805.98Z" fill="white"/>
<path d="M1369.1 808.991L1370.97 810.818L1369.1 808.991Z" fill="#9E9C9D"/>
<path d="M1416.4 810.21L1417.02 811.427L1416.4 810.21Z" fill="#39767D"/>
<path d="M1738.15 809.6L1739.39 810.208L1738.15 809.6Z" fill="#3F7048"/>
<path d="M1169.33 810.818V812.645L1204.8 814.472C1198.24 807.124 1178.83 810.818 1169.33 810.818Z" fill="#535454"/>
<path d="M1529.66 810.818L1531.53 812.645L1529.66 810.818Z" fill="#698F70"/>
<path d="M1553.93 810.818L1555.8 812.645L1553.93 810.818Z" fill="#6B9171"/>
<path d="M1735.04 810.818L1729.43 816.299C1734.01 826.313 1733.33 840.871 1746.24 841.878L1740.64 836.397L1746.24 818.126L1740.64 810.818H1735.04Z" fill="white"/>
<path d="M1763.66 812.037L1764.28 813.254L1763.66 812.037Z" fill="#396C42"/>
<path d="M1805.98 810.818V812.645H1811.58L1805.98 810.818Z" fill="#BECFC1"/>
<path d="M1415.78 812.645V821.781H1417.64L1415.78 812.645Z" fill="#C2E6EA"/>
<path d="M1417.64 812.645C1418.49 823.699 1426.56 828.733 1431.14 838.224C1437.61 851.624 1430.98 866.672 1423.69 878.42C1407.9 903.886 1358.54 911.665 1356.03 944.195H1449.38V898.518C1486.69 898.417 1486.69 858.423 1449.38 858.322V812.645H1417.64Z" fill="white"/>
<path d="M1539.27 814.629C1529.16 819.51 1533.69 839.768 1546.05 834.961C1556.9 830.739 1550.99 808.978 1539.27 814.629Z" fill="#6D9273"/>
<path d="M1761.17 814.472V816.299H1768.64L1761.17 814.472Z" fill="#AEC3B1"/>
<path d="M1169.33 854.668H1171.2V816.299H1202.94C1168.24 802.054 1169.33 830.591 1169.33 854.668Z" fill="#8B8C8C"/>
<path d="M1255.21 814.472L1257.08 816.299L1255.21 814.472Z" fill="#918F90"/>
<path d="M1363.5 814.472L1365.37 816.299L1363.5 814.472Z" fill="#838182"/>
<path d="M1535.26 814.472L1537.13 816.299L1535.26 814.472Z" fill="#638B6A"/>
<path d="M1548.33 814.472L1550.2 816.299L1548.33 814.472Z" fill="#698F70"/>
<path d="M1576.34 814.472V816.299H1583.81L1576.34 814.472Z" fill="#B7C9BA"/>
<path d="M1600.61 814.472V816.299H1609.95L1600.61 814.472Z" fill="#ADC2B0"/>
<path d="M1628.62 814.472V816.299H1636.08L1628.62 814.472Z" fill="#A9BFAD"/>
<path d="M1660.35 814.472V816.299H1667.82L1660.35 814.472Z" fill="#A8BEAC"/>
<path d="M1672.8 815.081L1674.04 815.689L1672.8 815.081Z" fill="#698F70"/>
<path d="M1707.03 814.472V816.299H1716.37L1707.03 814.472Z" fill="#A5BCA9"/>
<path d="M1721.34 815.081L1722.59 815.689L1721.34 815.081Z" fill="#B3C6B6"/>
<path d="M1732.55 815.081L1733.79 815.689L1732.55 815.081Z" fill="#43734B"/>
<path d="M1786.69 815.081L1787.93 815.689L1786.69 815.081Z" fill="#4F7C57"/>
<path d="M1794.78 814.472V816.299H1800.38L1794.78 814.472Z" fill="#B5C8B8"/>
<path d="M1824.65 814.472V816.299H1833.99L1824.65 814.472Z" fill="#AAC0AE"/>
<path d="M1171.2 816.299V852.841L1186.13 854.668L1202.94 816.299H1171.2Z" fill="white"/>
<path d="M1526.55 817.518L1527.17 818.735L1526.55 817.518Z" fill="#BDCEC0"/>
<path d="M1533.4 816.299L1535.26 818.126L1533.4 816.299Z" fill="#88A68D"/>
<path d="M1550.2 816.299L1552.07 818.126L1550.2 816.299Z" fill="#89A78E"/>
<path d="M1558.29 817.518L1558.91 818.735L1558.29 817.518Z" fill="#C3D2C5"/>
<path d="M1611.81 832.743V836.397L1595.01 834.57C1598.49 840.751 1614.35 846.335 1614.36 834.563C1614.36 828.594 1605.34 824.83 1602.48 819.954L1615.55 821.781C1606.19 807.652 1586.2 827.258 1611.81 832.743Z" fill="white"/>
<path d="M1624.88 816.299L1626.75 818.126L1624.88 816.299Z" fill="#9CB5A0"/>
<path d="M1643.55 834.57C1636.19 835.657 1632.1 836.385 1626.75 830.916C1629.83 830.914 1633.02 831.092 1636.09 830.808C1655.79 828.994 1630.54 805.33 1622.53 822.197C1615.57 836.874 1635.2 849.388 1643.55 834.57ZM1651.02 816.3V841.879L1667.82 819.954V816.3H1651.02Z" fill="white"/>
<path d="M1670.31 817.518L1670.93 818.735L1670.31 817.518Z" fill="#517E59"/>
<path d="M1671.56 816.299L1680.89 841.878H1684.63L1695.83 816.299C1688.26 818.875 1686.63 825.592 1684.63 832.743H1682.76L1677.16 816.299H1671.56ZM1723.83 841.878L1725.7 816.299C1719.68 816.603 1710.96 814.923 1705.68 818.179C1684.96 830.967 1713.56 841.275 1723.83 841.878Z" fill="white"/>
<path d="M1718.23 816.299L1720.1 818.126L1718.23 816.299Z" fill="#688F6F"/>
<path d="M1746.86 817.518L1747.48 818.735L1746.86 817.518Z" fill="#89A78E"/>
<path d="M1757.72 818.178C1743.63 826.306 1757.54 848.253 1771.95 839.722C1786.23 831.27 1772.37 809.724 1757.72 818.178Z" fill="white"/>
<path d="M1783.58 816.299V840.051H1785.44L1783.58 816.299Z" fill="#BCCDBF"/>
<path d="M1785.44 816.299V841.878H1789.18C1789.19 831.621 1788.93 823.204 1800.38 819.953V816.299H1785.44Z" fill="white"/>
<path d="M1790.42 816.908L1791.67 817.516L1790.42 816.908Z" fill="#97B29B"/>
<path d="M1801 817.518L1801.62 818.735L1801 817.518Z" fill="#8AA88F"/>
<path d="M1805.98 816.299V841.878C1814.2 836.666 1811.58 824.969 1811.58 816.299H1805.98ZM1823.06 818.178C1809.86 825.797 1821.54 847.396 1835.74 839.993C1851.23 831.921 1838.22 809.431 1823.06 818.178Z" fill="white"/>
<path d="M1253.35 911.307C1249.51 902.201 1243.75 894.253 1244.41 883.901C1245.37 868.698 1254.94 855.744 1249.98 840.051C1242.31 815.784 1208.3 810.381 1192.95 830.994C1164.75 868.886 1218.36 911.212 1253.35 911.307Z" fill="#39808B"/>
<path d="M1262.68 818.127V819.954H1272.02L1262.68 818.127Z" fill="#C8C7C8"/>
<path d="M1273.26 818.735L1274.5 819.343L1273.26 818.735Z" fill="#757374"/>
<path d="M1346.07 818.735L1347.32 819.343L1346.07 818.735Z" fill="#918F90"/>
<path d="M1348.56 818.127V819.954H1356.03L1348.56 818.127Z" fill="#C8C7C8"/>
<path d="M1367.23 909.48C1403.31 919.619 1451.88 862.99 1427.77 830.944C1412.94 811.224 1375.93 814.109 1369.84 840.052C1365.98 856.479 1375.58 868.483 1376.3 883.901C1376.74 893.316 1371.53 901.463 1367.23 909.48Z" fill="#39808B"/>
<path d="M1649.15 818.127V840.052H1651.02L1649.15 818.127Z" fill="#3C6E45"/>
<path d="M1804.11 818.127V840.052H1805.98L1804.11 818.127Z" fill="#306539"/>
<path d="M1819.05 818.127L1820.92 819.954L1819.05 818.127Z" fill="#80A186"/>
<path d="M1292.55 819.953V821.78H1328.03L1292.55 819.953Z" fill="#80C2A9"/>
<path d="M1531.53 819.953V829.089H1533.4L1531.53 819.953Z" fill="#719577"/>
<path d="M1552.07 819.953V829.089H1553.93L1552.07 819.953Z" fill="#6A9071"/>
<path d="M1574.47 819.953V821.78H1581.94L1574.47 819.953Z" fill="#4D7B55"/>
<path d="M1595.01 819.953V825.435H1596.88L1595.01 819.953Z" fill="#779A7D"/>
<path d="M1621.15 819.953L1623.01 821.78L1621.15 819.953Z" fill="#8BA990"/>
<path d="M1628.62 819.953V821.78H1636.08L1628.62 819.953Z" fill="#527E5A"/>
<path d="M1658.49 819.953L1660.35 821.78L1658.49 819.953Z" fill="#93AF98"/>
<path d="M1660.35 819.953V821.78H1667.82L1660.35 819.953Z" fill="#366A3F"/>
<path d="M1708.9 819.953V821.78H1716.37L1708.9 819.953Z" fill="#4A7852"/>
<path d="M1740.64 819.953V821.78H1746.24L1740.64 819.953Z" fill="#C4D3C6"/>
<path d="M1761.17 819.953V821.78H1768.64L1761.17 819.953Z" fill="#4F7C57"/>
<path d="M1797.89 820.562L1799.13 821.17L1797.89 820.562Z" fill="#668D6D"/>
<path d="M1826.52 819.953V821.78H1832.12L1826.52 819.953Z" fill="#47764F"/>
<path d="M1292.55 821.781L1309.36 851.014H1311.22L1328.03 821.781H1292.55Z" fill="#FAB226"/>
<path d="M1572.61 821.781C1572.92 847.868 1596.53 822.55 1572.61 821.781V821.781Z" fill="#6D9273"/>
<path d="M1613.06 822.389L1614.3 822.997L1613.06 822.389Z" fill="#3F7048"/>
<path d="M1626.75 821.781V825.435H1637.95V821.781H1626.75Z" fill="#6D9273"/>
<path d="M1671.56 821.781L1673.42 823.608L1671.56 821.781Z" fill="#7FA085"/>
<path d="M1700.18 822.999L1700.8 824.216L1700.18 822.999Z" fill="#BECFC1"/>
<path d="M1708.16 823.666C1701.57 828.776 1710.7 839.441 1717.1 833.434C1723.41 827.51 1714.76 818.556 1708.16 823.666Z" fill="#6D9273"/>
<path d="M1740.64 821.781V836.397H1742.5L1740.64 821.781Z" fill="#285F32"/>
<path d="M1760.7 823.666C1754.1 828.893 1762.95 839.47 1769.38 833.434C1775.54 827.642 1767.22 818.503 1760.7 823.666ZM1825.78 823.666C1819.21 828.813 1828.38 839.492 1834.7 833.434C1840.72 827.658 1832.27 818.583 1825.78 823.666Z" fill="#6D9273"/>
<path d="M1841.46 821.781L1843.32 823.608L1841.46 821.781Z" fill="#6E9374"/>
<path d="M1570.74 823.608V832.743H1572.61L1570.74 823.608Z" fill="#2F6438"/>
<path d="M1619.28 823.608V832.743H1621.15L1619.28 823.608Z" fill="#BDCEC0"/>
<path d="M1624.88 823.608C1629.05 828.274 1635.65 828.274 1639.82 823.608H1624.88Z" fill="#D4DFD6"/>
<path d="M1679.02 823.608L1680.89 825.435L1679.02 823.608Z" fill="#799B7F"/>
<path d="M1686.49 823.608L1688.36 825.435L1686.49 823.608Z" fill="#82A287"/>
<path d="M1757.44 823.608L1759.31 825.435L1757.44 823.608Z" fill="#7A9C80"/>
<path d="M1789.18 823.608V840.051H1791.05L1789.18 823.608Z" fill="#80A186"/>
<path d="M1815.32 823.608V832.743H1817.18L1815.32 823.608Z" fill="#779A7D"/>
<path d="M1835.85 823.608L1837.72 825.435L1835.85 823.608Z" fill="#A1B9A5"/>
<path d="M1607.46 826.043L1608.7 826.652L1607.46 826.043Z" fill="#4A7852"/>
<path d="M1673.42 825.435L1675.29 827.262L1673.42 825.435Z" fill="#98B29C"/>
<path d="M1749.97 825.435V830.916H1751.84L1749.97 825.435Z" fill="#42724A"/>
<path d="M1777.98 825.435V832.743H1779.84L1777.98 825.435Z" fill="#618968"/>
<path d="M1611.81 827.262L1613.68 829.089L1611.81 827.262Z" fill="#719577"/>
<path d="M1684.63 827.262L1686.49 829.089L1684.63 827.262Z" fill="#618968"/>
<path d="M1821.54 828.481L1822.16 829.697L1821.54 828.481Z" fill="#C4D3C6"/>
<path d="M1613.68 829.089L1615.55 830.916L1613.68 829.089Z" fill="#8AA88F"/>
<path d="M1643.55 829.089L1645.42 830.916L1643.55 829.089Z" fill="#658C6C"/>
<path d="M1525.93 830.916L1527.8 832.743L1525.93 830.916Z" fill="#6A9071"/>
<path d="M1533.4 830.916L1535.26 832.743L1533.4 830.916Z" fill="#7FA085"/>
<path d="M1550.2 830.916L1552.07 832.743L1550.2 830.916Z" fill="#7D9E83"/>
<path d="M1557.67 830.916L1559.54 832.743L1557.67 830.916Z" fill="#6F9475"/>
<path d="M1606.21 830.916L1608.08 832.743L1606.21 830.916Z" fill="#668D6D"/>
<path d="M1682.76 830.916L1684.63 832.743L1682.76 830.916Z" fill="#789B7E"/>
<path d="M1610.57 833.962L1611.19 835.178L1610.57 833.962Z" fill="#AEC3B1"/>
<path d="M1616.17 833.962L1616.79 835.178L1616.17 833.962Z" fill="#417249"/>
<path d="M1688.36 832.743L1690.23 834.57L1688.36 832.743Z" fill="#739779"/>
<path d="M1699.56 832.743L1701.43 834.57L1699.56 832.743Z" fill="#96B19A"/>
<path d="M1822.79 832.743L1824.65 834.57L1822.79 832.743Z" fill="#81A186"/>
<path d="M1537.13 834.57L1539 836.397L1537.13 834.57Z" fill="#A0B8A4"/>
<path d="M1581.94 834.57L1583.81 836.397L1581.94 834.57Z" fill="#99B39D"/>
<path d="M1768.64 834.57L1770.51 836.397L1768.64 834.57Z" fill="#93AF98"/>
<path d="M1776.11 834.57L1777.98 836.397L1776.11 834.57Z" fill="#7A9C80"/>
<path d="M1817.18 834.57L1819.05 836.397L1817.18 834.57Z" fill="#9EB7A2"/>
<path d="M1824.65 834.57L1826.52 836.397L1824.65 834.57Z" fill="#789B7E"/>
<path d="M1529.66 836.397L1531.53 838.225L1529.66 836.397Z" fill="#779A7D"/>
<path d="M1553.93 836.397L1555.8 838.225L1553.93 836.397Z" fill="#799B7F"/>
<path d="M1577.58 837.005L1578.83 837.614L1577.58 837.005Z" fill="#BECFC1"/>
<path d="M1602.48 836.397V838.225H1609.95L1602.48 836.397Z" fill="#668D6D"/>
<path d="M1633.59 837.005L1634.84 837.614L1633.59 837.005Z" fill="#C5D4C7"/>
<path d="M1686.49 836.397L1688.36 838.225L1686.49 836.397Z" fill="#8AA88F"/>
<path d="M1701.43 836.397L1703.3 838.225L1701.43 836.397Z" fill="#96B19A"/>
<path d="M1712.01 837.005L1713.25 837.614L1712.01 837.005Z" fill="#C0D0C3"/>
<path d="M1746.86 837.616L1747.48 838.833L1746.86 837.616Z" fill="#698F70"/>
<path d="M1764.29 837.005L1765.53 837.614L1764.29 837.005Z" fill="#C2D1C4"/>
<path d="M1839.59 836.397L1841.46 838.225L1839.59 836.397Z" fill="#8DAA92"/>
<path d="M1623.01 838.224L1624.88 840.051L1623.01 838.224Z" fill="#668D6D"/>
<path d="M1641.68 838.224L1643.55 840.051L1641.68 838.224Z" fill="#86A58B"/>
<path d="M1679.02 838.224L1680.89 840.051L1679.02 838.224Z" fill="#6E9374"/>
<path d="M1735.04 838.224L1736.9 840.051L1735.04 838.224Z" fill="#99B39D"/>
<path d="M1837.72 838.224L1839.59 840.051L1837.72 838.224Z" fill="#98B29C"/>
<path d="M1548.33 840.051L1550.2 841.878L1548.33 840.051Z" fill="#93AF98"/>
<path d="M1572.61 840.051L1574.47 841.878L1572.61 840.051Z" fill="#618968"/>
<path d="M1583.81 840.051L1585.67 841.878L1583.81 840.051Z" fill="#80A186"/>
<path d="M1654.75 840.051L1656.62 841.878L1654.75 840.051Z" fill="#7A9C80"/>
<path d="M1684.63 840.051L1686.49 841.878L1684.63 840.051Z" fill="#6C9272"/>
<path d="M1705.16 840.051L1707.03 841.878L1705.16 840.051ZM1716.37 840.051L1718.23 841.878L1716.37 840.051Z" fill="#6E9374"/>
<path d="M1723.83 840.051L1725.7 841.878L1723.83 840.051Z" fill="#90AC95"/>
<path d="M1757.44 840.051L1759.31 841.878L1757.44 840.051Z" fill="#628A69"/>
<path d="M1770.51 840.051L1772.38 841.878L1770.51 840.051Z" fill="#6E9374"/>
<path d="M1809.72 840.051L1811.58 841.878L1809.72 840.051Z" fill="#86A58B"/>
<path d="M1822.79 840.051L1824.65 841.878L1822.79 840.051Z" fill="#80A186"/>
<path d="M1186.13 841.879L1184.27 856.495L1186.13 841.879Z" fill="#7BABB2"/>
<path d="M1539 841.879V843.706H1546.47L1539 841.879Z" fill="#3D6F46"/>
<path d="M1576.34 841.879V843.706H1581.94L1576.34 841.879Z" fill="#3C6E45"/>
<path d="M1602.48 841.879V843.706H1608.08L1602.48 841.879Z" fill="#396C42"/>
<path d="M1630.48 841.879V843.706H1636.08L1630.48 841.879Z" fill="#3C6E45"/>
<path d="M1708.9 841.879V843.706H1714.5L1708.9 841.879Z" fill="#3B6D44"/>
<path d="M1432.58 843.705V856.495H1434.45L1432.58 843.705Z" fill="#A0C2C7"/>
<path d="M1171.2 852.841V854.668H1180.53L1171.2 852.841Z" fill="#C6C6C6"/>
<path d="M1449.38 856.495V858.322H1458.72L1449.38 856.495Z" fill="#515253"/>
<path d="M1464.32 858.322L1466.19 860.149L1464.32 858.322Z" fill="#A8A8A9"/>
<path d="M1431.33 861.368L1431.95 862.585L1431.33 861.368Z" fill="#A8C7CC"/>
<path d="M1478.01 870.503L1478.63 871.72L1478.01 870.503Z" fill="#B6B7B7"/>
<path d="M1715.74 871.72L1716.98 872.328L1715.74 871.72Z" fill="#74987A"/>
<path d="M1623.01 872.939L1624.88 874.766L1623.01 872.939Z" fill="#668D6D"/>
<path d="M1624.88 872.939L1623.01 885.728C1610.4 882.122 1596.38 892.586 1607.34 905.243C1612.22 910.88 1621.9 908.779 1628.62 909.48V872.939H1624.88ZM1712.63 872.939L1710.76 880.247L1718.23 872.939H1712.63Z" fill="white"/>
<path d="M1764.29 873.547L1765.53 874.155L1764.29 873.547Z" fill="#638B6A"/>
<path d="M1479.25 874.766V882.074H1481.12L1479.25 874.766Z" fill="#515253"/>
<path d="M1546.47 874.766V909.48H1550.2V896.691C1576.42 896.459 1569.78 874.784 1546.47 874.766Z" fill="white"/>
<path d="M1628.62 874.766V907.653H1630.48L1628.62 874.766Z" fill="#58835F"/>
<path d="M1761.8 875.984L1762.42 877.201L1761.8 875.984Z" fill="#BDCEC0"/>
<path d="M1763.04 874.766V878.42H1766.77V874.766H1763.04Z" fill="white"/>
<path d="M1767.4 875.984L1768.02 877.201L1767.4 875.984Z" fill="#9DB6A1"/>
<path d="M1544.6 876.593V907.653H1546.47L1544.6 876.593Z" fill="#B8CABB"/>
<path d="M1565.14 876.593L1567 878.42L1565.14 876.593Z" fill="#6F9475"/>
<path d="M1764.29 879.028L1765.53 879.637L1764.29 879.028Z" fill="#B4C7B7"/>
<path d="M1195.47 880.247C1192.01 894.445 1181.26 898.397 1167.46 898.518V946.022H1264.55V944.195H1169.33V902.172C1180.25 901.322 1204.9 895.49 1195.47 880.247Z" fill="#191A1B"/>
<path d="M1550.2 880.247V891.209H1552.07L1550.2 880.247Z" fill="#648C6B"/>
<path d="M1552.07 880.247V882.074H1561.4L1552.07 880.247Z" fill="#2C6235"/>
<path d="M1707.03 882.074V883.901H1716.37L1707.03 882.074Z" fill="#B6C9B9"/>
<path d="M1552.07 882.074V891.21C1559.28 890.661 1562.05 889.22 1563.27 882.074H1552.07Z" fill="#6D9273"/>
<path d="M1568.87 882.074V889.383H1570.74L1568.87 882.074Z" fill="#678E6E"/>
<path d="M1581.94 882.074V883.901H1591.28L1581.94 882.074Z" fill="#A1B9A5"/>
<path d="M1611.81 882.074V883.901H1619.28L1611.81 882.074Z" fill="#B5C8B8"/>
<path d="M1641.68 882.074V883.901H1651.02L1641.68 882.074Z" fill="#A5BCA9"/>
<path d="M1656 882.683L1657.24 883.291L1656 882.683Z" fill="#B3C6B6"/>
<path d="M1673.42 882.074V883.901H1682.76L1673.42 882.074Z" fill="#A7BDAB"/>
<path d="M1689.61 882.683L1690.85 883.291L1689.61 882.683Z" fill="#84A389"/>
<path d="M1736.9 882.074V883.901H1746.24L1736.9 882.074Z" fill="#A1B9A5"/>
<path d="M1751.84 882.074C1745.14 884.875 1735.63 882.518 1731.36 889.653C1723.22 903.246 1738.66 911.636 1749.97 905.826C1746 913.469 1741.48 913.9 1733.17 913.134C1737.68 919.939 1748.95 920.636 1753.65 912.864C1758.16 905.41 1756.94 888.661 1751.84 882.074Z" fill="white"/>
<path d="M1764.29 882.683L1765.53 883.291L1764.29 882.683Z" fill="#54805C"/>
<path d="M1781.71 882.074V883.901H1791.05L1781.71 882.074Z" fill="#A6BDAA"/>
<path d="M1807.85 882.074V883.901H1817.18L1807.85 882.074Z" fill="#A2BAA6"/>
<path d="M1478.01 885.12L1478.63 886.337L1478.01 885.12Z" fill="#6E6F6F"/>
<path d="M1578.21 883.901L1580.07 885.728L1578.21 883.901Z" fill="#6D9273"/>
<path d="M1596.88 903.999L1580.07 898.517H1598.74C1597.3 885.889 1579.2 876.426 1575.07 893.071C1571.79 906.314 1588.84 915.131 1596.88 903.999Z" fill="white"/>
<path d="M1621.15 883.901L1623.01 885.728L1621.15 883.901Z" fill="#86A58B"/>
<path d="M1658.49 909.48L1660.35 883.901C1654.33 884.205 1645.61 882.526 1640.34 885.781C1619.61 898.569 1648.22 908.877 1658.49 909.48Z" fill="white"/>
<path d="M1652.89 883.901L1654.75 885.728L1652.89 883.901Z" fill="#688F6F"/>
<path d="M1686.49 907.653L1669.69 913.135C1674.08 919.761 1686.68 921.146 1690.71 912.718C1694.44 904.894 1692.09 892.377 1692.09 883.901C1685.62 884.228 1675.82 882.255 1670.65 886.83C1657.12 898.808 1674.08 910.438 1686.49 907.653Z" fill="white"/>
<path d="M1692.09 883.901V911.307H1693.96L1692.09 883.901Z" fill="#608967"/>
<path d="M1703.72 885.779C1690.08 893.915 1704.14 915.221 1717.96 907.324C1732.22 899.173 1718.19 877.152 1703.72 885.779Z" fill="white"/>
<path d="M1718.23 883.901L1720.1 885.728L1718.23 883.901Z" fill="#6C9272"/>
<path d="M1733.17 883.901L1735.04 885.728L1733.17 883.901Z" fill="#608967"/>
<path d="M1761.17 883.901V907.653H1763.04L1761.17 883.901Z" fill="#B0C4B3"/>
<path d="M1763.04 883.901V909.48H1766.77V883.901H1763.04Z" fill="white"/>
<path d="M1766.77 883.901V907.653H1768.64L1766.77 883.901Z" fill="#90AC95"/>
<path d="M1794.78 903.999C1777.24 904.878 1776.41 888.091 1794.78 889.383C1792.97 881.133 1778.33 881.711 1775.18 889.434C1769.6 903.08 1788.05 918.846 1794.78 903.999Z" fill="white"/>
<path d="M1804.11 883.901L1805.98 885.728L1804.11 883.901Z" fill="#88A68D"/>
<path d="M1806.41 885.259C1793.41 891.122 1802.55 913.821 1817.07 908.369C1832.35 902.638 1823.06 877.749 1806.41 885.259Z" fill="white"/>
<path d="M1819.05 883.901L1820.92 885.728L1819.05 883.901Z" fill="#99B39D"/>
<path d="M1199.2 885.728C1192.62 896.639 1184.09 901.587 1171.2 902.172V942.367H1264.55C1260.48 916.556 1217.76 901.379 1199.2 885.728Z" fill="white"/>
<path d="M1576.34 885.728L1578.21 887.555L1576.34 885.728Z" fill="#8BA990"/>
<path d="M1720.1 885.728L1721.97 887.555L1720.1 885.728Z" fill="#9AB49E"/>
<path d="M1731.3 885.728L1733.17 887.555L1731.3 885.728Z" fill="#719577"/>
<path d="M1755.57 885.728V909.48H1757.44L1755.57 885.728Z" fill="#20592A"/>
<path d="M1795.4 886.947L1796.02 888.164L1795.4 886.947Z" fill="#417249"/>
<path d="M1197.33 887.555L1199.2 889.382L1197.33 887.555Z" fill="#A8A8A9"/>
<path d="M1581.94 887.555V889.382H1589.41L1581.94 887.555Z" fill="#5A8461"/>
<path d="M1613.68 887.555V889.382H1619.28L1613.68 887.555Z" fill="#43734B"/>
<path d="M1643.55 887.555V889.382H1651.02L1643.55 887.555Z" fill="#4A7852"/>
<path d="M1675.29 887.555V889.382H1682.76L1675.29 887.555Z" fill="#4D7B55"/>
<path d="M1708.9 887.555V889.382H1714.5L1708.9 887.555Z" fill="#45754D"/>
<path d="M1721.97 887.555L1723.83 889.382L1721.97 887.555Z" fill="#648C6B"/>
<path d="M1738.77 887.555V889.382H1746.24L1738.77 887.555Z" fill="#45754D"/>
<path d="M1774.24 887.555L1776.11 889.382L1774.24 887.555Z" fill="#9EB7A2"/>
<path d="M1783.58 887.555V889.382H1789.18L1783.58 887.555Z" fill="#43734B"/>
<path d="M1800.38 887.555L1802.25 889.382L1800.38 887.555Z" fill="#88A68D"/>
<path d="M1809.72 887.555V889.382H1815.32L1809.72 887.555Z" fill="#44744C"/>
<path d="M1346.7 889.382V891.209H1356.03L1346.7 889.382Z" fill="#48A4B0"/>
<path d="M1580.07 889.382L1581.94 891.209L1580.07 889.382Z" fill="#76997C"/>
<path d="M1580.07 891.209V893.037H1591.28V889.382L1580.07 891.209Z" fill="#6D9273"/>
<path d="M1596.88 889.382L1598.74 891.209L1596.88 889.382Z" fill="#90AC95"/>
<path d="M1609.95 889.382L1611.81 891.209L1609.95 889.382Z" fill="#7D9E83"/>
<path d="M1612.93 891.295C1607.54 895.253 1611.81 905.989 1618.72 902.015C1625.98 897.838 1620.01 886.095 1612.93 891.295Z" fill="#6D9273"/>
<path d="M1634.84 890.601L1635.46 891.818L1634.84 890.601Z" fill="#BECFC1"/>
<path d="M1642.82 891.268C1636.22 896.378 1645.35 907.043 1651.75 901.036C1658.06 895.112 1649.42 886.158 1642.82 891.268Z" fill="#6D9273"/>
<path d="M1666.58 890.601L1667.2 891.818L1666.58 890.601Z" fill="#BDCEC0"/>
<path d="M1674.56 891.268C1667.96 896.378 1677.09 907.043 1683.49 901.036C1689.8 895.112 1681.16 886.158 1674.56 891.268Z" fill="#6D9273"/>
<path d="M1705.16 889.382L1707.03 891.209L1705.16 889.382Z" fill="#6F9475"/>
<path d="M1708.15 891.295C1702.76 895.253 1707.03 905.989 1713.94 902.015C1721.2 897.838 1715.23 886.096 1708.15 891.295ZM1738.04 891.268C1731.44 896.378 1740.57 907.043 1746.97 901.036C1753.28 895.112 1744.64 886.158 1738.04 891.268Z" fill="#6D9273"/>
<path d="M1779.84 889.382L1781.71 891.209L1779.84 889.382Z" fill="#A1B9A5"/>
<path d="M1792.29 889.991L1793.53 890.599L1792.29 889.991Z" fill="#3F7048"/>
<path d="M1808.97 891.295C1802.82 895.81 1809.23 907.109 1816.06 902.086C1822.21 897.571 1815.81 886.273 1808.97 891.295Z" fill="#6D9273"/>
<path d="M1817.18 889.382L1819.05 891.209L1817.18 889.382Z" fill="#93AF98"/>
<path d="M1473.65 891.209L1475.52 893.037L1473.65 891.209Z" fill="#6F7070"/>
<path d="M1567 891.209L1568.87 893.037L1567 891.209Z" fill="#7C9E82"/>
<path d="M1591.28 891.209L1593.14 893.037L1591.28 891.209Z" fill="#5F8866"/>
<path d="M1602.48 891.209V900.345H1604.34L1602.48 891.209Z" fill="#B9CBBC"/>
<path d="M1723.83 891.209V900.345H1725.7L1723.83 891.209Z" fill="#95B09A"/>
<path d="M1772.38 891.209V900.345H1774.24L1772.38 891.209Z" fill="#B9CBBC"/>
<path d="M1798.51 891.209V900.345H1800.38L1798.51 891.209Z" fill="#B7C9BA"/>
<path d="M1824.65 891.209V900.345H1826.52L1824.65 891.209Z" fill="#D5E0D7"/>
<path d="M1193.6 893.036L1195.47 894.863L1193.6 893.036Z" fill="#A8A8A9"/>
<path d="M1471.79 893.036L1473.65 894.863L1471.79 893.036Z" fill="#6F7070"/>
<path d="M1572.61 893.036V900.344H1574.47L1572.61 893.036Z" fill="#7E9F84"/>
<path d="M1580.07 893.036V894.863H1593.14L1580.07 893.036Z" fill="#D4DFD6"/>
<path d="M1608.08 893.036V900.344H1609.95L1608.08 893.036Z" fill="#55815D"/>
<path d="M1703.3 893.036V900.344H1705.16L1703.3 893.036Z" fill="#386B41"/>
<path d="M1718.23 893.036V898.517H1720.1L1718.23 893.036Z" fill="#9DB6A1"/>
<path d="M1727.57 893.036V898.517H1729.43L1727.57 893.036Z" fill="#43734B"/>
<path d="M1777.98 893.036V898.517H1779.84L1777.98 893.036Z" fill="#75987B"/>
<path d="M1804.11 893.036V898.517H1805.98L1804.11 893.036Z" fill="#789B7E"/>
<path d="M1819.05 893.036V900.344H1820.92L1819.05 893.036Z" fill="#5D8764"/>
<path d="M1191.73 894.864L1193.6 896.691L1191.73 894.864Z" fill="#A8A8A9"/>
<path d="M1563.27 894.864L1565.14 896.691L1563.27 894.864Z" fill="#7FA085"/>
<path d="M1464.32 896.691L1466.19 898.518L1464.32 896.691Z" fill="#A9A9AA"/>
<path d="M1550.2 896.691V907.653H1552.07L1550.2 896.691Z" fill="#648C6B"/>
<path d="M1552.07 896.691V898.518H1561.4L1552.07 896.691Z" fill="#3C6E45"/>
<path d="M1186.13 898.518L1188 900.345L1186.13 898.518Z" fill="#8B8C8C"/>
<path d="M1449.38 898.518V900.345H1458.72L1449.38 898.518Z" fill="#525354"/>
<path d="M1176.8 900.345V902.172H1182.4L1176.8 900.345Z" fill="#515253"/>
<path d="M1580.07 900.345L1581.94 902.172L1580.07 900.345Z" fill="#658C6C"/>
<path d="M1621.15 900.345L1623.01 902.172L1621.15 900.345Z" fill="#86A58B"/>
<path d="M1634.22 900.345L1636.08 902.172L1634.22 900.345Z" fill="#96B19A"/>
<path d="M1665.96 900.345L1667.82 902.172L1665.96 900.345Z" fill="#94AF99"/>
<path d="M1684.63 900.345L1686.49 902.172L1684.63 900.345Z" fill="#87A68C"/>
<path d="M1697.69 900.345L1699.56 902.172L1697.69 900.345Z" fill="#8AA88F"/>
<path d="M1716.37 900.345L1718.23 902.172L1716.37 900.345Z" fill="#688F6F"/>
<path d="M1735.04 900.345L1736.9 902.172L1735.04 900.345Z" fill="#94AF99"/>
<path d="M1169.33 902.172V944.195H1171.2L1169.33 902.172Z" fill="#8B8C8C"/>
<path d="M1335.49 902.172V903.999H1342.96L1335.49 902.172Z" fill="#3E8D98"/>
<path d="M1581.94 902.172L1583.81 903.999L1581.94 902.172Z" fill="#6D9273"/>
<path d="M1594.39 902.781L1595.63 903.389L1594.39 902.781Z" fill="#B2C6B5"/>
<path d="M1619.28 902.172L1621.15 903.999L1619.28 902.172Z" fill="#719577"/>
<path d="M1682.76 902.172L1684.63 903.999L1682.76 902.172Z" fill="#789B7E"/>
<path d="M1714.5 902.172L1716.36 903.999L1714.5 902.172Z" fill="#658C6C"/>
<path d="M1729.43 902.172L1731.3 903.999L1729.43 902.172Z" fill="#709576"/>
<path d="M1736.9 902.172L1738.77 903.999L1736.9 902.172Z" fill="#80A186"/>
<path d="M1792.29 902.781L1793.53 903.389L1792.29 902.781Z" fill="#A5BCA9"/>
<path d="M1586.92 904.607L1588.16 905.216L1586.92 904.607Z" fill="#BECFC1"/>
<path d="M1614.92 904.607L1616.17 905.216L1614.92 904.607Z" fill="#BBCCBE"/>
<path d="M1636.08 903.999L1637.95 905.826L1636.08 903.999Z" fill="#96B19A"/>
<path d="M1646.66 904.607L1647.91 905.216L1646.66 904.607Z" fill="#C0D0C3"/>
<path d="M1667.82 903.999L1669.69 905.826L1667.82 903.999Z" fill="#90AC95"/>
<path d="M1678.4 904.607L1679.64 905.216L1678.4 904.607Z" fill="#BCCDBF"/>
<path d="M1699.56 903.999L1701.43 905.826L1699.56 903.999Z" fill="#739779"/>
<path d="M1710.14 904.607L1711.38 905.216L1710.14 904.607Z" fill="#BDCEC0"/>
<path d="M1741.88 904.607L1743.12 905.216L1741.88 904.607Z" fill="#C3D2C5"/>
<path d="M1783.58 903.999V905.826H1789.18L1783.58 903.999Z" fill="#B9CBBC"/>
<path d="M1795.4 905.218L1796.02 906.434L1795.4 905.218Z" fill="#4A7852"/>
<path d="M1606.21 905.826L1608.08 907.653L1606.21 905.826Z" fill="#7C9E82"/>
<path d="M1701.43 905.826L1703.3 907.653L1701.43 905.826Z" fill="#83A388"/>
<path d="M1748.1 905.826L1749.97 907.653L1748.1 905.826Z" fill="#99B39D"/>
<path d="M1776.11 905.826L1777.98 907.653L1776.11 905.826Z" fill="#779A7D"/>
<path d="M1820.92 905.826L1822.79 907.653L1820.92 905.826Z" fill="#658C6C"/>
<path d="M1580.07 907.653L1581.94 909.48L1580.07 907.653Z" fill="#88A68D"/>
<path d="M1593.14 907.653L1595.01 909.48L1593.14 907.653Z" fill="#698F70"/>
<path d="M1619.28 907.653L1621.15 909.48L1619.28 907.653Z" fill="#92AE97"/>
<path d="M1623.01 907.653L1624.88 909.48L1623.01 907.653Z" fill="#638B6A"/>
<path d="M1639.82 907.653L1641.68 909.48L1639.82 907.653ZM1651.02 907.653L1652.89 909.48L1651.02 907.653Z" fill="#6E9374"/>
<path d="M1658.49 907.653L1660.35 909.48L1658.49 907.653Z" fill="#90AC95"/>
<path d="M1671.56 907.653L1673.42 909.48L1671.56 907.653Z" fill="#648C6B"/>
<path d="M1682.76 907.653L1684.63 909.48L1682.76 907.653Z" fill="#76997C"/>
<path d="M1716.37 907.653L1718.23 909.48L1716.37 907.653Z" fill="#8AA88F"/>
<path d="M1735.04 907.653L1736.9 909.48L1735.04 907.653Z" fill="#84A389"/>
<path d="M1235.92 910.088L1237.16 910.697L1235.92 910.088Z" fill="#8AB4BA"/>
<path d="M1643.55 909.48V911.307H1649.15L1643.55 909.48ZM1708.9 909.48V911.307H1714.5L1708.9 909.48Z" fill="#3B6D44"/>
<path d="M1738.77 909.48V911.307H1744.37L1738.77 909.48Z" fill="#3C6E45"/>
<path d="M1783.58 909.48V911.307H1789.18L1783.58 909.48Z" fill="#3E7047"/>
<path d="M1809.72 909.48V911.307H1815.32L1809.72 909.48Z" fill="#3C6E45"/>
<path d="M1670.94 911.916L1672.18 912.524L1670.94 911.916Z" fill="#87A68C"/>
<path d="M1734.41 911.916L1735.65 912.524L1734.41 911.916Z" fill="#76997C"/>
<path d="M1307.49 913.134V914.961H1313.09L1307.49 913.134ZM1326.16 913.134V914.961H1331.76L1326.16 913.134Z" fill="#3C8994"/>
<path d="M1668.44 914.353L1669.07 915.57L1668.44 914.353Z" fill="#497851"/>
<path d="M1677.16 913.134V914.961H1682.76L1677.16 913.134Z" fill="#94AF99"/>
<path d="M1690.23 913.134L1692.09 914.961L1690.23 913.134Z" fill="#789B7E"/>
<path d="M1731.92 914.353L1732.54 915.57L1731.92 914.353Z" fill="#89A78E"/>
<path d="M1738.77 913.134V914.961H1746.24L1738.77 913.134Z" fill="#9BB59F"/>
<path d="M1751.84 914.961L1753.71 916.788L1751.84 914.961Z" fill="#688F6F"/>
<path d="M1733.17 916.789L1735.04 918.616L1733.17 916.789Z" fill="#81A186"/>
<path d="M1675.29 918.616V920.443H1682.76L1675.29 918.616Z" fill="#5C8663"/>
<path d="M1738.77 918.616V920.443H1746.24L1738.77 918.616Z" fill="#618968"/>
<path d="M1277.62 951.503C1279.96 959.043 1283.51 960.242 1290.69 956.984C1291.9 964.13 1294.67 965.572 1301.89 966.12V944.195L1290.69 946.022C1289.28 938.127 1285.21 937.334 1277.62 938.714C1273.6 915.168 1250.78 957.355 1277.62 951.503ZM1342.96 938.714C1335.37 937.334 1331.3 938.127 1329.89 946.022L1318.69 944.195V966.12C1325.91 965.572 1328.68 964.13 1329.89 956.984C1337.07 960.242 1340.62 959.043 1342.96 951.503C1369.8 957.355 1346.98 915.168 1342.96 938.714Z" fill="#FAB226"/>
<path d="M1171.2 942.367V944.194H1264.55C1240.48 934.312 1197.43 942.367 1171.2 942.367Z" fill="#C6C6C6"/>
<path d="M1295.66 942.976L1296.91 943.584L1295.66 942.976Z" fill="#9EBE88"/>
<path d="M1320.56 942.368V944.195H1326.16L1320.56 942.368Z" fill="#94BF93"/>
<path d="M1301.89 947.849V964.293H1303.75L1301.89 947.849ZM1316.82 947.849V964.293H1318.69L1316.82 947.849Z" fill="#BC961F"/>
<path d="M1288.82 956.984L1290.69 962.465L1288.82 956.984ZM1329.89 956.984V962.465L1333.63 960.638V958.811L1329.89 956.984Z" fill="#3F5E12"/>
<path d="M1294.42 966.12V967.947H1300.02L1294.42 966.12ZM1320.56 966.12V967.947H1326.16L1320.56 966.12Z" fill="#6A7117"/>
</g>
<defs>
<clipPath id="clip0_3_3">
<rect width="1920" height="1080" fill="white"/>
</clipPath>
</defs>
</svg>
