<svg width="753" height="377" fill="none" xmlns="http://www.w3.org/2000/svg"><path d="M0 0v377h753V0H0z" fill="#6D9273"/><path d="M44.797 54.517v3.654L87.74 74.615v1.827H35.462v45.677c-39.27.025-38.483 47.167 0 47.504v87.699L56 259.149l-18.67-5.481c0-8.987-4.31-32.677 4.327-38.317 6.958-4.544 21.219-1.879 29.279-1.879v-1.827H37.329v-45.677c-36.374-.318-35.993-41.268 0-42.022V78.269l61.612.576 80.282-20.674c-12.824 13.182-54.313 20.122-72.814 21.925l28.005 15.038 41.075 16.747 24.271-8.308 57.877-23.61 59.745-1.694v43.85c-38.076.106-38.265 45.648 0 45.677v40.195h-31.739v3.654h31.739v43.85c37.4 2.993 37.336 40.861 0 43.85v43.85h-93.351v3.654h97.085v-45.677c38.046-.332 38.408-46.704 0-47.504v-87.7c-36.969-.103-36.624-40.456 0-42.022V76.442h-54.144v-1.827l46.676-18.271-93.351-34.812L177.356 7.54l-41.075 13.507-91.484 33.47z" fill="#231F20"/><path d="M173.622 58.17v1.828l5.601 1.827-5.601-3.654z" fill="#B38223"/><path d="M98.941 78.269l-.248 65.774-7.22 32.888 18.67 1.827-9.065-34.715-.27-62.12 76.548-20.098c-20.032-7.977-56.966 14.352-78.415 16.444z" fill="#FAB226"/><path d="M159.93 62.434l1.243.607-1.243-.607z" fill="#A07523"/><path d="M174.866 62.434l1.243.607-1.243-.607z" fill="#705322"/><path d="M167.398 64.261l1.243.607-1.243-.607z" fill="#846123"/><path d="M146.861 66.088l1.243.608-1.243-.608z" fill="#B07F23"/><path d="M139.393 67.915l1.243.607-1.243-.607z" fill="#9A7023"/><path d="M154.329 67.915l1.243.607-1.243-.607z" fill="#705422"/><path d="M146.861 69.743l1.243.607-1.243-.607z" fill="#856223"/><path d="M126.324 71.57l1.242.606-1.242-.607z" fill="#AA7B23"/><path d="M133.792 73.397l1.243.607-1.243-.607z" fill="#715521"/><path d="M126.324 75.223l1.242.608-1.242-.608z" fill="#866322"/><path d="M105.787 77.05l1.242.608-1.242-.608z" fill="#A37623"/><path d="M37.33 78.269v1.827h57.877L37.33 78.269z" fill="#8B8C8C"/><path d="M113.255 78.878l1.243.607-1.243-.607z" fill="#705422"/><path d="M259.505 78.269v1.827h57.877l-57.877-1.827z" fill="#515253"/><path d="M37.33 80.096v43.85h1.867l-1.867-43.85z" fill="#C5C5C5"/><path d="M39.197 80.096c0 10.638 4.252 32.392-1.92 41.442-8.29 12.158-28.165 1.52-27.888 24.333.26 21.299 20.034 10.986 27.889 22.505 6.17 9.051 1.919 30.803 1.919 41.442h31.739l4.724-31.06.877-78.564 20.537 9.135V80.096H39.197z" fill="#fff"/><path d="M97.074 80.096v29.233h1.867l-1.867-29.233z" fill="#FDE1A9"/><path d="M102.675 81.923v52.985c19.278-8.806 31.226-13.495 52.277-6.031 7.002 2.483 15.175 11.056 22.404 11.17 9.712.153 21.917-11.932 31.739-14.66 18.898-5.249 30.561 4.366 46.675 11.348v-56.64l-56.01 22.696-24.271 8.316-72.814-29.184z" fill="#393536"/><path d="M255.77 80.096v29.233h1.867l-1.867-29.233z" fill="#A1A0A0"/><path d="M257.638 80.096v29.233l22.404-9.135 5.601 107.797h31.739v-38.368c-38.22-.88-37.294-47.434 0-49.331V80.096h-59.744z" fill="#fff"/><path d="M100.808 81.923v54.812h1.867l-1.867-54.812z" fill="#B1822B"/><path d="M393.929 81.923v1.827h14.937l-14.937-1.827z" fill="#8AA88F"/><path d="M466.122 82.532l1.241.607-1.241-.607z" fill="#6B9171"/><path d="M468.61 82.786c-52.556 9.276-36.782 94.291 18.67 82.469 49.23-10.495 31.848-91.386-18.67-82.47z" fill="#fff"/><path d="M481.058 82.532l1.241.607-1.241-.607z" fill="#9EB7A2"/><path d="M537.69 81.923v1.827h31.739l-31.739-1.827zm72.813 0v1.827h42.942l-42.942-1.827zm69.08 0v1.827h31.739l-31.739-1.827z" fill="#44744C"/><path d="M388.329 84.916c-55.826 15.79-18.859 105.975 31.463 78.179 4.451-2.458 7.862-9.433 1.547-12.135-6.519-2.791-14.811 2.679-21.808 1.8-17.024-2.139-28.078-20.423-23.052-36.123 3.482-10.876 14.874-20.24 26.786-19.828 5.648.195 14.268 5.297 19.402 1.48 5.651-4.202-.103-10.564-4.576-12.441-8.112-3.406-21.363-3.308-29.762-.932z" fill="#fff"/><path d="M415.712 84.359l1.242.607-1.242-.607z" fill="#507D58"/><path d="M545.158 134.908c11.779 0 27.751 2.947 36.92-5.898 14.014-13.517 7.728-41.436-12.651-44.85-7.212-1.208-30.441-3.63-35.419 2.52-6.516 8.049-1.919 32.757-1.919 42.747 0 7.13-3.786 29.813 2.985 34.28 12.418 8.192 10.084-23.979 10.084-28.799zm72.814 18.271c0-7.036-2.284-19.162 5.877-22.65 5.638-2.408 28.408 2.714 28.408-6.583s-22.77-4.175-28.408-6.584c-7.767-3.318-5.877-14.092-5.877-20.822 5.836 0 44.799 3.286 38.878-8.59-3.614-7.249-45.148-7.3-50.028-1.27-3.622 4.474-1.92 13.678-1.92 18.995 0 15.085-5.063 40.669 1.126 54.542 3.964 8.884 48.938 10.147 51.465.107 2.789-11.084-32.976-7.145-39.521-7.145z" fill="#fff"/><path d="M655.312 83.75l1.867 1.827-1.867-1.827z" fill="#91AD96"/><path d="M676.975 85.628c-6.813 5.28-2.993 26.927-2.993 34.664 0 10.57-4.233 32.42 1.919 41.441 8.187 12.008 46.715 3.608 55.876-3.792 19.356-15.634 17.86-53.273-1.813-67.925-8.653-6.444-19.501-6.262-29.844-6.266-6.212-.002-17.953-2.146-23.145 1.878z" fill="#fff"/><path d="M718.169 84.359l1.241.607-1.241-.607z" fill="#87A68C"/><path d="M382.727 85.577l1.867 1.827-1.867-1.827z" fill="#658C6C"/><path d="M420.068 85.577l1.867 1.827-1.867-1.827z" fill="#83A388"/><path d="M657.179 85.577l1.867 1.827-1.867-1.827z" fill="#8BA990"/><path d="M378.993 87.404l1.867 1.827-1.867-1.827z" fill="#638B6A"/><path d="M453.674 87.404l1.867 1.827-1.867-1.827z" fill="#A1B9A5"/><path d="M530.222 87.404v73.083h1.867c0-20.891 6.368-53.877-1.867-73.083z" fill="#688F6F"/><path d="M578.764 87.404l1.867 1.827-1.867-1.827z" fill="#8FAC94"/><path d="M603.035 87.404v73.083h1.867c0-20.891 6.369-53.877-1.867-73.083zm69.08 0v73.083h1.867c0-20.891 6.368-53.877-1.867-73.083z" fill="#688F6F"/><path d="M729.992 89.231l1.867 1.827-1.867-1.827z" fill="#668D6D"/><path d="M425.669 91.058v5.481h1.867l-1.867-5.48z" fill="#799B7F"/><path d="M582.498 91.058l1.867 1.827-1.867-1.827z" fill="#9DB6A1"/><path d="M731.859 91.058l1.867 1.827-1.867-1.827z" fill="#91AD96"/><path d="M371.525 92.885l1.867 1.827-1.867-1.827z" fill="#688F6F"/><path d="M504.083 92.885l1.867 1.827-1.867-1.827z" fill="#618968"/><path d="M584.365 92.885l1.867 1.827-1.867-1.827z" fill="#628A69"/><path d="M657.179 92.885l1.867 1.827-1.867-1.827z" fill="#93AF98"/><path d="M733.726 92.885l1.867 1.827-1.867-1.827z" fill="#89A78E"/><path d="M369.658 94.712l1.867 1.827-1.867-1.827z" fill="#628A69"/><path d="M655.312 94.712l1.867 1.827-1.867-1.827z" fill="#80A186"/><path d="M735.593 94.712l1.867 1.827-1.867-1.827z" fill="#6C9272"/><path d="M395.175 97.149l1.241.607-1.241-.607z" fill="#7FA085"/><path d="M397.664 96.54v1.826h9.335l-9.335-1.827z" fill="#35693E"/><path d="M408.244 97.149l1.242.607-1.242-.607z" fill="#93AF98"/><path d="M467.988 97.149l1.242.607-1.242-.607z" fill="#54805C"/><path d="M470.477 97.515c-29.822 6.953-22.695 61.184 9.335 54.774 32.221-6.448 24.942-62.765-9.335-54.774z" fill="#6D9273"/><path d="M545.158 96.54v1.826h24.271l-24.271-1.827z" fill="#2C6235"/><path d="M586.232 96.54l1.867 1.826-1.867-1.827z" fill="#91AD96"/><path d="M617.971 96.54v20.097h1.867l-1.867-20.098z" fill="#B0C4B3"/><path d="M619.838 96.54v1.826h33.607l-33.607-1.827z" fill="#2C6235"/><path d="M687.051 96.54v56.639h1.867l-1.867-56.64z" fill="#B0C4B3"/><path d="M688.918 96.54v1.826h24.271l-24.271-1.827z" fill="#2C6235"/><path d="M463.009 98.367l1.867 1.827-1.867-1.827z" fill="#9AB49E"/><path d="M545.158 98.366v23.752c8.678 0 47.859-6.697 25.328-21.874-6.115-4.119-18.224-1.878-25.328-1.878zm143.76 0v52.986c9.339 0 23.375 2.524 31.34-3.184 13.489-9.666 13.649-39.729-1.643-47.924-7.892-4.229-20.946-1.878-29.697-1.878z" fill="#6D9273"/><path d="M76.537 100.193v74.911c16.588-21.446 37.919-64.22 0-74.911zm179.233 9.136l2.426 31.06 19.979 34.715h1.867v-74.911l-24.272 9.136z" fill="#39808B"/><path d="M386.461 100.193l1.867 1.828-1.867-1.828z" fill="#638B6A"/><path d="M440.605 100.193l1.867 1.828-1.867-1.828z" fill="#668D6D"/><path d="M509.684 100.193l1.867 1.828-1.867-1.828z" fill="#709576"/><path d="M588.721 101.412l.621 1.218-.621-1.218z" fill="#AFC3B2"/><path d="M573.163 102.021l1.867 1.827-1.867-1.827z" fill="#8FAC94"/><path d="M438.738 103.848l1.867 1.827-1.867-1.827z" fill="#7B9D81"/><path d="M511.552 103.848l1.867 1.827-1.867-1.827z" fill="#87A68C"/><path d="M74.67 105.675v12.789h1.867l-1.867-12.789z" fill="#ADCBCF"/><path d="M494.748 105.675l1.867 1.827-1.867-1.827z" fill="#638B6A"/><path d="M575.03 105.675v7.308h1.867l-1.867-7.308z" fill="#B1C5B4"/><path d="M724.391 105.675l1.867 1.827-1.867-1.827z" fill="#638B6A"/><path d="M378.993 107.502l1.867 1.827-1.867-1.827z" fill="#608967"/><path d="M437.493 108.72l.621 1.218-.621-1.218z" fill="#ACC1AF"/><path d="M514.04 108.72l.622 1.218-.622-1.218z" fill="#BBCCBE"/><path d="M97.074 109.329v32.887h1.867l-1.867-32.887z" fill="#859463"/><path d="M280.042 109.329v14.617h1.867l-1.867-14.617z" fill="#8CB5BB"/><path d="M743.683 110.547l.622 1.218-.622-1.218z" fill="#9AB49E"/><path d="M255.77 111.156l-1.867 27.406c6.264-5.356 4.907-20.317 1.867-27.406z" fill="#385D63"/><path d="M360.945 112.374l.621 1.218-.621-1.218z" fill="#B9CBBC"/><path d="M435.625 114.201l.622 1.218-.622-1.218z" fill="#6D9273"/><path d="M515.907 114.201l.622 1.218-.622-1.218z" fill="#7E9F84"/><path d="M728.747 114.201l.622 1.218-.622-1.218z" fill="#88A68D"/><path d="M375.881 116.028l.621 1.218-.621-1.218z" fill="#618968"/><path d="M435.004 116.637v14.617h1.867l-1.867-14.617z" fill="#DCE5DD"/><path d="M500.349 116.637v12.79h1.867l-1.867-12.79z" fill="#789B7E"/><path d="M588.721 117.855l.621 1.218-.621-1.218z" fill="#3C6E45"/><path d="M619.838 116.637v1.828h29.873l-29.873-1.828z" fill="#D4DFD6"/><path d="M744.928 116.637v14.617h1.867l-1.867-14.617z" fill="#598460"/><path d="M358.457 118.464v12.79h1.867l-1.867-12.79z" fill="#648C6B"/><path d="M449.94 118.464v10.963h1.867l-1.867-10.963z" fill="#7E9F84"/><path d="M571.296 118.464l1.867 1.827-1.867-1.827z" fill="#74987A"/><path d="M306.18 120.292v1.827h5.601l-5.601-1.827z" fill="#C6C6C6"/><path d="M311.781 120.292v1.827h5.601l-5.601-1.827z" fill="#8C8D8D"/><path d="M569.429 120.292l1.867 1.827-1.867-1.827z" fill="#6C9272"/><path d="M545.158 122.118v1.827h22.404l-22.404-1.827z" fill="#88A68D"/><path d="M24.26 123.945v1.828h13.07l-13.07-1.828z" fill="#8B8C8C"/><path d="M108.276 158.66c20.499-26.108 58.323-26.305 69.08 9.135h1.867c13.685-45.511 67.07-29.895 76.547 9.136l24.271 1.827c-9.773-33.199-35.811-59.763-72.813-52.668-9.819 1.882-20.367 12.734-29.872 12.478-18.851-.509-31.945-18.667-54.144-13.655-16.964 3.83-27.864 19.081-14.936 33.747z" fill="#57C7D4"/><path d="M209.095 123.945v1.828h7.468l-7.468-1.828z" fill="#4C979F"/><path d="M224.031 123.945v1.828h9.335l-9.335-1.828z" fill="#4A8D95"/><path d="M18.66 125.773l1.867 1.827-1.867-1.827z" fill="#8B8C8C"/><path d="M293.111 127.6l1.867 1.827-1.867-1.827z" fill="#A8A8A9"/><path d="M375.26 129.427v5.481h1.867l-1.867-5.481z" fill="#57825E"/><path d="M619.838 129.427v1.827h29.873l-29.873-1.827z" fill="#9CB5A0"/><path d="M435.625 132.472l.622 1.218-.622-1.218z" fill="#618968"/><path d="M515.286 131.254v5.481h1.867l-1.867-5.481z" fill="#739779"/><path d="M617.971 131.254v21.925h1.867l-1.867-21.925z" fill="#B0C4B3"/><path d="M575.03 133.081l1.867 1.827-1.867-1.827z" fill="#75987B"/><path d="M9.324 134.908l1.867 1.827-1.867-1.827z" fill="#A8A8A9"/><path d="M360.945 136.126l.621 1.218-.621-1.218z" fill="#89A78E"/><path d="M451.807 134.908l1.867 1.827-1.867-1.827z" fill="#7C9E82"/><path d="M498.483 134.908l1.867 1.827-1.867-1.827z" fill="#739779"/><path d="M545.158 134.908v1.827h26.138l-26.138-1.827z" fill="#D4DFD6"/><path d="M100.808 136.735v14.616h1.867l-1.867-14.616z" fill="#BCB967"/><path d="M743.683 137.953l.622 1.218-.622-1.218z" fill="#47764F"/><path d="M7.457 138.562v10.963h1.867l-1.867-10.963z" fill="#C5C5C5"/><path d="M110.143 165.968c7.932-7.17 15.204-16.092 26.138-18.905 18.428-4.74 34.468 14.105 37.341 29.868h9.335c6.803-42.656 56.77-33.563 67.212 1.827h28.006v-1.827H255.77c-6.069-39.625-67.897-56.04-76.547-9.136-6.233-12.795-14.365-25.897-29.872-28.631-16.487-2.907-44.18 6.6-39.208 26.804z" fill="#39808B"/><path d="M377.126 138.562l1.867 1.827-1.867-1.827z" fill="#9DB6A1"/><path d="M437.493 139.78l.621 1.218-.621-1.218z" fill="#42724A"/><path d="M514.04 139.78l.622 1.218-.622-1.218z" fill="#507D58"/><path d="M726.258 138.562l1.867 1.827-1.867-1.827z" fill="#7C9E82"/><path d="M97.074 142.216v9.136h1.867l-1.867-9.136z" fill="#97BF8F"/><path d="M362.19 142.216l1.867 1.827-1.867-1.827z" fill="#85A48A"/><path d="M455.541 142.216l1.867 1.827-1.867-1.827z" fill="#8EAB93"/><path d="M494.748 142.216l1.867 1.827-1.867-1.827z" fill="#94AF99"/><path d="M724.391 142.216l1.867 1.827-1.867-1.827z" fill="#80A186"/><path d="M741.194 142.216l1.867 1.827-1.867-1.827z" fill="#9AB49E"/><path d="M95.207 144.043l-18.67 34.715h13.07l5.6-34.715z" fill="#57C7D4"/><path d="M286.264 145.261l.622 1.218-.622-1.218z" fill="#C5C5C5"/><path d="M492.881 144.043l1.867 1.828-1.867-1.828z" fill="#608967"/><path d="M511.552 144.043l1.867 1.828-1.867-1.828z" fill="#6A9071"/><path d="M134.414 145.871v1.827h13.07l-13.07-1.827zm72.814 0v1.827h11.202l-11.202-1.827z" fill="#2E5056"/><path d="M364.057 145.871l1.867 1.827-1.867-1.827z" fill="#87A68C"/><path d="M491.014 145.871l1.867 1.827-1.867-1.827z" fill="#5F8866"/><path d="M110.143 178.758c-6.832 0-29.185-3.505-33.278 2.823-5.248 8.116 23.998 6.312 27.677 6.312.454 49.695 64.84 47.225 69.08 0h9.335c4.021 48.109 65.022 48.617 69.079 0 4.479 0 29.734 2.62 28.153-5.17-1.432-7.048-24.544-3.965-30.02-3.965-6.766-37.119-63.379-43.484-67.212-1.827h-9.335c-4.121-39.373-63.11-38.089-63.479 1.827z" fill="#231F20"/><path d="M461.142 147.698l1.867 1.827-1.867-1.827z" fill="#83A388"/><path d="M489.147 147.698l1.867 1.827-1.867-1.827z" fill="#91AD96"/><path d="M421.935 149.525l1.867 1.827-1.867-1.827z" fill="#A0B8A4"/><path d="M442.472 149.525l1.867 1.827-1.867-1.827z" fill="#9FB8A3"/><path d="M716.923 149.525l1.867 1.827-1.867-1.827z" fill="#8FAC94"/><path d="M280.042 151.351v14.617h1.867l-1.867-14.617z" fill="#83B0B6"/><path d="M288.131 152.57l.622 1.218-.622-1.218z" fill="#A8A8A9"/><path d="M367.792 151.351l1.866 1.828-1.866-1.828z" fill="#82A287"/><path d="M393.929 151.351v1.828h13.07l-13.07-1.828z" fill="#366A3F"/><path d="M408.244 151.961l1.242.607-1.242-.607z" fill="#7B9D81"/><path d="M481.058 151.961l1.241.607-1.241-.607z" fill="#97B29B"/><path d="M619.838 151.351v1.828h33.607l-33.607-1.828zm69.08 0v1.828h24.271l-24.271-1.828z" fill="#709576"/><path d="M137.526 153.788l1.243.607-1.243-.607z" fill="#908E8F"/><path d="M141.26 153.788l1.243.607-1.243-.607z" fill="#C7C6C7"/><path d="M144.994 153.788l1.243.607-1.243-.607z" fill="#828081"/><path d="M209.095 153.179v1.827h7.468l-7.468-1.827z" fill="#ACAAAB"/><path d="M217.809 153.788l1.241.607-1.241-.607z" fill="#757273"/><path d="M369.658 153.179l1.867 1.827-1.867-1.827z" fill="#9BB59F"/><path d="M425.669 153.179v5.481h1.867l-1.867-5.481z" fill="#82A287"/><path d="M132.549 156.29c-32.835 10.919-23.109 73.776 14.933 59.481 30.603-11.502 22.656-71.981-14.933-59.481zm70.973.594c-30.62 15.442-6.077 76.383 27.804 57.834 29.213-15.992 5.117-74.437-27.804-57.834z" fill="#fff"/><path d="M657.179 155.006l1.867 1.827-1.867-1.827z" fill="#9CB5A0"/><path d="M11.191 156.833l1.867 1.827-1.867-1.827z" fill="#6F7070"/><path d="M289.377 156.833l1.867 1.827-1.867-1.827z" fill="#A8A8A9"/><path d="M373.392 156.833l1.867 1.827-1.867-1.827z" fill="#7FA085"/><path d="M13.058 158.66l1.867 1.827-1.867-1.827z" fill="#9A9B9B"/><path d="M125.079 158.66l1.867 1.827-1.867-1.827z" fill="#9E9C9D"/><path d="M229.632 158.66l1.867 1.827-1.867-1.827z" fill="#828081"/><path d="M14.925 160.487l1.867 1.827-1.867-1.827z" fill="#6F7070"/><path d="M378.993 160.487l1.867 1.827-1.867-1.827z" fill="#8AA88F"/><path d="M423.802 160.487l1.867 1.827-1.867-1.827z" fill="#76997C"/><path d="M453.674 160.487l1.867 1.827-1.867-1.827zm42.941 0l1.867 1.827-1.867-1.827z" fill="#628A69"/><path d="M726.258 160.487l1.867 1.827-1.867-1.827z" fill="#8AA88F"/><path d="M18.66 162.314l1.867 1.827-1.867-1.827z" fill="#A9A9AA"/><path d="M382.727 162.314l1.867 1.827-1.867-1.827z" fill="#86A58B"/><path d="M420.068 162.314l1.867 1.827-1.867-1.827z" fill="#99B39D"/><path d="M457.408 162.314l1.867 1.827-1.867-1.827z" fill="#7B9D81"/><path d="M492.881 162.314l1.867 1.827-1.867-1.827z" fill="#7C9E82"/><path d="M604.902 162.314l1.867 1.827-1.867-1.827z" fill="#92AE97"/><path d="M657.179 162.314l1.867 1.827-1.867-1.827z" fill="#678E6E"/><path d="M673.982 162.314l1.867 1.827-1.867-1.827z" fill="#92AE97"/><path d="M722.524 162.314l1.867 1.827-1.867-1.827z" fill="#8FAC94"/><path d="M22.393 164.141v1.827h5.601l-5.6-1.827z" fill="#8C8D8D"/><path d="M27.994 164.141v1.827h9.336l-9.336-1.827z" fill="#C6C6C6"/><path d="M74.67 164.141v10.962h1.867l-1.867-10.962z" fill="#C4D9DC"/><path d="M235.233 164.141l1.867 1.827-1.867-1.827z" fill="#908E8F"/><path d="M296.845 164.141l1.867 1.827-1.867-1.827z" fill="#7D7D7E"/><path d="M387.707 164.75l1.241.607-1.241-.607z" fill="#99B39D"/><path d="M415.712 164.75l1.242.607-1.242-.607z" fill="#638B6A"/><path d="M533.956 164.141l1.867 1.827-1.867-1.827z" fill="#88A68D"/><path d="M606.77 164.141l1.867 1.827-1.867-1.827zm69.079 0l1.867 1.827-1.867-1.827z" fill="#729678"/><path d="M718.169 164.75l1.241.607-1.241-.607z" fill="#45754D"/><path d="M37.33 165.969v43.849h1.867l-1.867-43.849z" fill="#C5C5C5"/><path d="M89.606 165.969v10.962h1.867l-1.867-10.962z" fill="#CAB858"/><path d="M192.292 165.969l1.867 1.827-1.867-1.827z" fill="#908E8F"/><path d="M393.929 165.969v1.827h14.937l-14.937-1.827z" fill="#9BB59F"/><path d="M468.61 165.969v1.827h14.936l-14.936-1.827z" fill="#9CB5A0"/><path d="M304.313 167.795v1.827h13.069l-13.069-1.827z" fill="#515253"/><path d="M238.967 169.622l1.867 1.827-1.867-1.827z" fill="#828081"/><path d="M89.606 176.931v1.827h18.67l-18.67-1.827z" fill="#C48D25"/><path d="M150.595 177.54l1.243.607-1.243-.607z" fill="#BAB9BA"/><path d="M166.154 176.931v10.962h1.867l-1.867-10.962z" fill="#908E8F"/><path d="M188.558 176.931v12.789h1.867l-1.867-12.789zm14.936 0v1.827l3.734 5.481h1.867v-7.308h-5.601zm-91.484 1.827v5.481h1.867l-1.867-5.481z" fill="#C7C6C7"/><path d="M147.484 178.758v5.481h1.867l-1.867-5.481z" fill="#908E8F"/><path d="M149.35 178.758l-11.202 9.135c.028 2.982-.178 6.154.427 9.101 5.077 24.748 40.915-12.086 10.775-18.236z" fill="#231F20"/><path d="M154.951 178.758l1.867 1.827-1.867-1.827z" fill="#838182"/><path d="M218.43 187.893l-11.202-9.135c-31.435 4.863 3.759 43.066 10.609 18.28.806-2.914.558-6.165.593-9.145z" fill="#231F20"/><path d="M243.323 179.976l.621 1.217-.621-1.217z" fill="#908E8F"/><path d="M280.042 178.758l1.867 1.827-1.867-1.827z" fill="#A7A9AA"/><path d="M74.67 186.066l-3.734 34.715c6.119-1.369 12.317-3.644 18.67-3.481 42.225 1.082 22.55 45.591 22.551 67.428.001 9.795 4.23 17.407 9.189 25.579h-13.07l22.405 23.752h1.867c6.731-4.293 10.565-4.321 13.069 3.654 7.21-.531 10.794.322 13.069 7.309l20.423 5.103 18.784-5.103c2.274-6.987 5.859-7.84 13.069-7.309 2.504-7.975 6.337-7.947 13.069-3.654h1.867l20.538-23.752-11.202-1.827c18.401-25.515-18.299-82.054 26.138-90.844 7.322-1.447 15.087.753 22.404 1.318l-1.867-32.888-26.138 3.654c-2.28 21.785-25.565 43.633-48.543 33.034-15.102-6.967-20.528-19.173-29.872-31.207-15.986 38.703-69.132 47.276-76.548-1.827l-26.138-3.654z" fill="#57C7D4"/><path d="M160.553 186.066v10.963h1.867l-1.867-10.963z" fill="#595657"/><path d="M216.563 186.066l1.867 1.827-1.867-1.827z" fill="#908E8F"/><path d="M80.271 187.893v1.827h20.537c1.073 12.021 5.22 23.69 16.803 29.233l-13.069-31.06H80.271zm93.351 0l-7.468 23.752h1.867l9.335-20.098 7.468 14.617h1.867l-3.734-18.271h-9.335zm78.414 0l-9.335 29.233c8.387-7.034 12.502-16.683 13.069-27.406h22.405l-26.139-1.827z" fill="#39808B"/><path d="M136.281 189.72v9.136h1.867l-1.867-9.136zm82.149 0v5.482h1.867l-1.867-5.482z" fill="#908E8F"/><path d="M164.909 194.593l.62 1.217-.62-1.217z" fill="#757273"/><path d="M242.702 193.374v5.482h1.867l-1.867-5.482z" fill="#9E9C9D"/><path d="M112.01 195.202v5.481h1.867l-1.867-5.481z" fill="#908E8F"/><path d="M70.936 197.028v12.79h1.867l-1.867-12.79z" fill="#AAE3E9"/><path d="M162.42 198.856l1.867 1.827-1.867-1.827z" fill="#908E8F"/><path d="M283.776 198.856v9.135h1.867l-1.867-9.135z" fill="#B5E6EC"/><path d="M160.553 202.51l1.867 1.827-1.867-1.827z" fill="#908E8F"/><path d="M637.887 203.118l1.241.609-1.241-.609z" fill="#4F7C57"/><path d="M141.883 204.337l1.867 1.827-1.867-1.827z" fill="#9E9C9D"/><path d="M433.137 204.337l1.867 1.827-1.867-1.827z" fill="#7C9E82"/><path d="M435.004 204.337l-1.867 36.541c6.658-.31 16.138 1.334 21.594-3.184 14.066-11.65-3.058-24.264-15.993-20.568v-12.789h-3.734zm199.771 0l-1.867 7.308 7.468-7.308h-5.601z" fill="#fff"/><path d="M673.982 204.337v1.827h5.601l-5.601-1.827z" fill="#6D9273"/><path d="M145.616 206.164v1.827h5.602l-5.602-1.827z" fill="#C7C6C7"/><path d="M186.691 206.164l3.734 5.481-3.734-5.481z" fill="#3A848E"/><path d="M205.361 206.164v1.827h5.601l-5.601-1.827z" fill="#C7C6C7"/><path d="M403.367 208.044c-18.586 9.729-5.076 40.987 14.752 30.68 18.653-9.696 4.333-40.672-14.752-30.68z" fill="#fff"/><path d="M416.334 206.164l1.867 1.827-1.867-1.827z" fill="#84A389"/><path d="M438.738 206.164v10.962h1.867l-1.867-10.962z" fill="#407149"/><path d="M632.907 206.164l1.868 1.827-1.868-1.827z" fill="#8CA991"/><path d="M672.737 207.383l.621 1.216-.621-1.216z" fill="#3D6F46"/><path d="M673.982 206.164v3.654h5.601v-3.654h-5.601z" fill="#fff"/><path d="M237.1 207.991l1.867 1.827-1.867-1.827z" fill="#9E9C9D"/><path d="M284.397 209.21l.622 1.217-.622-1.217z" fill="#39767D"/><path d="M606.147 208.6l1.242.608-1.242-.608z" fill="#3F7048"/><path d="M37.33 209.818v1.827l35.473 1.827c-6.56-7.348-25.969-3.654-35.473-3.654z" fill="#535454"/><path d="M397.664 209.818l1.867 1.827-1.867-1.827z" fill="#698F70"/><path d="M421.935 209.818l1.867 1.827-1.867-1.827z" fill="#6B9171"/><path d="M603.035 209.818l-5.601 5.481c4.58 10.014 3.893 24.572 16.803 25.579l-5.601-5.481 5.601-18.271-5.601-7.308h-5.601z" fill="#fff"/><path d="M631.662 211.037l.621 1.217-.621-1.217z" fill="#396C42"/><path d="M673.982 209.818v1.827h5.601l-5.601-1.827z" fill="#BECFC1"/><path d="M283.776 211.645v9.136h1.867l-1.867-9.136z" fill="#C2E6EA"/><path d="M285.643 211.645c.851 11.054 8.918 16.088 13.5 25.579 6.471 13.4-.168 28.448-7.453 40.196-15.791 25.466-65.153 33.245-67.659 65.775h93.351v-45.677c37.309-.101 37.309-40.095 0-40.196v-45.677h-31.739z" fill="#fff"/><path d="M407.273 213.629c-10.114 4.881-5.586 25.139 6.774 20.332 10.856-4.222 4.942-25.983-6.774-20.332z" fill="#6D9273"/><path d="M629.174 213.472v1.827h7.468l-7.468-1.827z" fill="#AEC3B1"/><path d="M37.33 253.668h1.867v-38.369h31.739c-34.691-14.245-33.606 14.292-33.606 38.369z" fill="#8B8C8C"/><path d="M123.212 213.472l1.867 1.827-1.867-1.827z" fill="#918F90"/><path d="M231.499 213.472l1.867 1.827-1.867-1.827z" fill="#838182"/><path d="M403.265 213.472l1.867 1.827-1.867-1.827z" fill="#638B6A"/><path d="M416.334 213.472l1.867 1.827-1.867-1.827z" fill="#698F70"/><path d="M444.339 213.472v1.827h7.468l-7.468-1.827z" fill="#B7C9BA"/><path d="M468.61 213.472v1.827h9.335l-9.335-1.827z" fill="#ADC2B0"/><path d="M496.615 213.472v1.827h7.469l-7.469-1.827z" fill="#A9BFAD"/><path d="M528.355 213.472v1.827h7.468l-7.468-1.827z" fill="#A8BEAC"/><path d="M540.802 214.081l1.242.608-1.242-.608z" fill="#698F70"/><path d="M575.03 213.472v1.827h9.335l-9.335-1.827z" fill="#A5BCA9"/><path d="M589.345 214.081l1.241.608-1.241-.608z" fill="#B3C6B6"/><path d="M600.546 214.081l1.242.608-1.242-.608z" fill="#43734B"/><path d="M654.69 214.081l1.242.608-1.242-.608z" fill="#4F7C57"/><path d="M662.78 213.472v1.827h5.601l-5.601-1.827z" fill="#B5C8B8"/><path d="M692.652 213.472v1.827h9.335l-9.335-1.827z" fill="#AAC0AE"/><path d="M39.197 215.299v36.542l14.936 1.827 16.803-38.369h-31.74z" fill="#fff"/><path d="M394.551 216.518l.622 1.217-.622-1.217z" fill="#BDCEC0"/><path d="M401.397 215.299l1.867 1.827-1.867-1.827z" fill="#88A68D"/><path d="M418.201 215.299l1.867 1.827-1.867-1.827z" fill="#89A78E"/><path d="M426.291 216.518l.621 1.217-.621-1.217z" fill="#C3D2C5"/><path d="M479.812 231.743v3.654l-16.803-1.827c3.482 6.181 19.344 11.765 19.35-.007.004-5.969-9.018-9.733-11.882-14.609l13.069 1.827c-9.359-14.129-29.343 5.477-3.734 10.962z" fill="#fff"/><path d="M492.881 215.299l1.867 1.827-1.867-1.827z" fill="#9CB5A0"/><path d="M511.552 233.57c-7.364 1.087-11.447 1.815-16.804-3.654 3.083-.002 6.272.176 9.345-.108 19.701-1.814-5.551-25.478-13.56-8.611-6.968 14.677 12.669 27.191 21.019 12.373zm7.468-18.27v25.579l16.803-21.925V215.3H519.02z" fill="#fff"/><path d="M538.311 216.518l.622 1.217-.622-1.217z" fill="#517E59"/><path d="M539.557 215.299l9.335 25.579h3.734l11.202-25.579c-7.567 2.576-9.201 9.293-11.202 16.444h-1.867l-5.601-16.444h-5.601zm52.276 25.579l1.867-25.579c-6.021.304-14.742-1.376-20.018 1.88-20.726 12.788 7.881 23.096 18.151 23.699z" fill="#fff"/><path d="M586.232 215.299l1.867 1.827-1.867-1.827z" fill="#688F6F"/><path d="M614.859 216.518l.621 1.217-.621-1.217z" fill="#89A78E"/><path d="M625.716 217.178c-14.087 8.128-.174 30.075 14.234 21.544 14.277-8.452.417-29.998-14.234-21.544z" fill="#fff"/><path d="M651.578 215.299v23.752h1.867l-1.867-23.752z" fill="#BCCDBF"/><path d="M653.445 215.299v25.579h3.734c.007-10.257-.25-18.674 11.202-21.925v-3.654h-14.936z" fill="#fff"/><path d="M658.424 215.908l1.241.608-1.241-.608z" fill="#97B29B"/><path d="M669.003 216.518l.621 1.217-.621-1.217z" fill="#8AA88F"/><path d="M673.982 215.299v25.579c8.215-5.212 5.601-16.909 5.601-25.579h-5.601zm17.079 1.879c-13.201 7.619-1.518 29.218 12.683 21.815 15.489-8.072 2.472-30.562-12.683-21.815z" fill="#fff"/><path d="M121.345 310.307c-3.831-9.106-9.593-17.054-8.937-27.406.963-15.203 10.529-28.157 5.571-43.85-7.668-24.267-41.68-29.67-57.026-9.057-28.207 37.892 25.403 80.218 60.392 80.313z" fill="#39808B"/><path d="M130.68 217.127v1.827h9.335l-9.335-1.827z" fill="#C8C7C8"/><path d="M141.26 217.735l1.243.608-1.243-.608z" fill="#757374"/><path d="M214.074 217.735l1.242.608-1.242-.608z" fill="#918F90"/><path d="M216.563 217.127v1.827h7.468l-7.468-1.827z" fill="#C8C7C8"/><path d="M235.233 308.48c36.075 10.139 84.651-46.49 60.542-78.536-14.835-19.72-51.847-16.835-57.939 9.108-3.856 16.427 5.743 28.431 6.463 43.849.439 9.415-4.774 17.562-9.066 25.579z" fill="#39808B"/><path d="M517.153 217.127v21.925h1.867l-1.867-21.925z" fill="#3C6E45"/><path d="M672.115 217.127v21.925h1.867l-1.867-21.925z" fill="#306539"/><path d="M687.051 217.127l1.867 1.827-1.867-1.827z" fill="#80A186"/><path d="M160.553 218.953v1.827h35.473l-35.473-1.827z" fill="#80C2A9"/><path d="M399.531 218.953v9.136h1.867l-1.867-9.136z" fill="#719577"/><path d="M420.068 218.953v9.136h1.867l-1.867-9.136z" fill="#6A9071"/><path d="M442.472 218.953v1.827h7.468l-7.468-1.827z" fill="#4D7B55"/><path d="M463.009 218.953v5.482h1.867l-1.867-5.482z" fill="#779A7D"/><path d="M489.147 218.953l1.867 1.827-1.867-1.827z" fill="#8BA990"/><path d="M496.615 218.953v1.827h7.469l-7.469-1.827z" fill="#527E5A"/><path d="M526.488 218.953l1.867 1.827-1.867-1.827z" fill="#93AF98"/><path d="M528.355 218.953v1.827h7.468l-7.468-1.827z" fill="#366A3F"/><path d="M576.897 218.953v1.827h7.468l-7.468-1.827z" fill="#4A7852"/><path d="M608.637 218.953v1.827h5.601l-5.601-1.827z" fill="#C4D3C6"/><path d="M629.174 218.953v1.827h7.468l-7.468-1.827z" fill="#4F7C57"/><path d="M665.892 219.562l1.241.608-1.241-.608z" fill="#668D6D"/><path d="M694.519 218.953v1.827h5.601l-5.601-1.827z" fill="#47764F"/><path d="M160.553 220.781l16.803 29.233h1.867l16.803-29.233h-35.473z" fill="#FAB226"/><path d="M440.605 220.781c.316 26.087 23.92.769 0 0z" fill="#6D9273"/><path d="M481.058 221.389l1.241.608-1.241-.608z" fill="#3F7048"/><path d="M494.748 220.781v3.654h11.202v-3.654h-11.202z" fill="#6D9273"/><path d="M539.557 220.781l1.867 1.827-1.867-1.827z" fill="#7FA085"/><path d="M568.184 221.999l.621 1.217-.621-1.217z" fill="#BECFC1"/><path d="M576.163 222.666c-6.598 5.11 2.538 15.775 8.936 9.768 6.307-5.924-2.334-14.878-8.936-9.768z" fill="#6D9273"/><path d="M608.637 220.781v14.616h1.867l-1.867-14.616z" fill="#285F32"/><path d="M628.699 222.666c-6.602 5.227 2.246 15.804 8.676 9.768 6.167-5.792-2.152-14.931-8.676-9.768zm65.081 0c-6.57 5.147 2.602 15.826 8.92 9.768 6.023-5.776-2.431-14.851-8.92-9.768z" fill="#6D9273"/><path d="M709.455 220.781l1.867 1.827-1.867-1.827z" fill="#6E9374"/><path d="M438.738 222.608v9.135h1.867l-1.867-9.135z" fill="#2F6438"/><path d="M487.281 222.608v9.135h1.867l-1.867-9.135z" fill="#BDCEC0"/><path d="M492.881 222.608c4.168 4.666 10.769 4.666 14.936 0h-14.936z" fill="#D4DFD6"/><path d="M547.025 222.608l1.867 1.827-1.867-1.827z" fill="#799B7F"/><path d="M554.493 222.608l1.867 1.827-1.867-1.827z" fill="#82A287"/><path d="M625.439 222.608l1.867 1.827-1.867-1.827z" fill="#7A9C80"/><path d="M657.179 222.608v16.443h1.867l-1.867-16.443z" fill="#80A186"/><path d="M683.317 222.608v9.135h1.867l-1.867-9.135z" fill="#779A7D"/><path d="M703.854 222.608l1.867 1.827-1.867-1.827z" fill="#A1B9A5"/><path d="M475.457 225.043l1.241.609-1.241-.609z" fill="#4A7852"/><path d="M541.424 224.435l1.867 1.827-1.867-1.827z" fill="#98B29C"/><path d="M617.971 224.435v5.481h1.867l-1.867-5.481z" fill="#42724A"/><path d="M645.977 224.435v7.308h1.867l-1.867-7.308z" fill="#618968"/><path d="M479.812 226.262l1.867 1.827-1.867-1.827z" fill="#719577"/><path d="M552.626 226.262l1.867 1.827-1.867-1.827z" fill="#618968"/><path d="M689.54 227.481l.621 1.216-.621-1.216z" fill="#C4D3C6"/><path d="M481.679 228.089l1.867 1.827-1.867-1.827z" fill="#8AA88F"/><path d="M511.552 228.089l1.867 1.827-1.867-1.827z" fill="#658C6C"/><path d="M393.929 229.916l1.867 1.827-1.867-1.827z" fill="#6A9071"/><path d="M401.397 229.916l1.867 1.827-1.867-1.827z" fill="#7FA085"/><path d="M418.201 229.916l1.867 1.827-1.867-1.827z" fill="#7D9E83"/><path d="M425.669 229.916l1.867 1.827-1.867-1.827z" fill="#6F9475"/><path d="M474.211 229.916l1.867 1.827-1.867-1.827z" fill="#668D6D"/><path d="M550.759 229.916l1.867 1.827-1.867-1.827z" fill="#789B7E"/><path d="M478.567 232.962l.621 1.216-.621-1.216z" fill="#AEC3B1"/><path d="M484.168 232.962l.621 1.216-.621-1.216z" fill="#417249"/><path d="M556.36 231.743l1.867 1.827-1.867-1.827z" fill="#739779"/><path d="M567.562 231.743l1.867 1.827-1.867-1.827z" fill="#96B19A"/><path d="M690.785 231.743l1.867 1.827-1.867-1.827z" fill="#81A186"/><path d="M405.132 233.57l1.867 1.827-1.867-1.827z" fill="#A0B8A4"/><path d="M449.94 233.57l1.867 1.827-1.867-1.827z" fill="#99B39D"/><path d="M636.642 233.57l1.867 1.827-1.867-1.827z" fill="#93AF98"/><path d="M644.11 233.57l1.867 1.827-1.867-1.827z" fill="#7A9C80"/><path d="M685.184 233.57l1.867 1.827-1.867-1.827z" fill="#9EB7A2"/><path d="M692.652 233.57l1.867 1.827-1.867-1.827z" fill="#789B7E"/><path d="M397.664 235.397l1.867 1.828-1.867-1.828z" fill="#779A7D"/><path d="M421.935 235.397l1.867 1.828-1.867-1.828z" fill="#799B7F"/><path d="M445.584 236.005l1.241.609-1.241-.609z" fill="#BECFC1"/><path d="M470.477 235.397v1.828h7.468l-7.468-1.828z" fill="#668D6D"/><path d="M501.595 236.005l1.241.609-1.241-.609z" fill="#C5D4C7"/><path d="M554.493 235.397l1.867 1.828-1.867-1.828z" fill="#8AA88F"/><path d="M569.429 235.397l1.867 1.828-1.867-1.828z" fill="#96B19A"/><path d="M580.009 236.005l1.242.609-1.242-.609z" fill="#C0D0C3"/><path d="M614.859 236.616l.621 1.217-.621-1.217z" fill="#698F70"/><path d="M632.286 236.005l1.241.609-1.241-.609z" fill="#C2D1C4"/><path d="M707.588 235.397l1.867 1.828-1.867-1.828z" fill="#8DAA92"/><path d="M491.014 237.224l1.867 1.827-1.867-1.827z" fill="#668D6D"/><path d="M509.684 237.224l1.867 1.827-1.867-1.827z" fill="#86A58B"/><path d="M547.025 237.224l1.867 1.827-1.867-1.827z" fill="#6E9374"/><path d="M603.035 237.224l1.867 1.827-1.867-1.827z" fill="#99B39D"/><path d="M705.721 237.224l1.867 1.827-1.867-1.827z" fill="#98B29C"/><path d="M416.334 239.051l1.867 1.827-1.867-1.827z" fill="#93AF98"/><path d="M440.605 239.051l1.867 1.827-1.867-1.827z" fill="#618968"/><path d="M451.807 239.051l1.867 1.827-1.867-1.827z" fill="#80A186"/><path d="M522.753 239.051l1.867 1.827-1.867-1.827z" fill="#7A9C80"/><path d="M552.626 239.051l1.867 1.827-1.867-1.827z" fill="#6C9272"/><path d="M573.163 239.051l1.867 1.827-1.867-1.827zm11.202 0l1.867 1.827-1.867-1.827z" fill="#6E9374"/><path d="M591.833 239.051l1.867 1.827-1.867-1.827z" fill="#90AC95"/><path d="M625.439 239.051l1.867 1.827-1.867-1.827z" fill="#628A69"/><path d="M638.509 239.051l1.867 1.827-1.867-1.827z" fill="#6E9374"/><path d="M677.716 239.051l1.867 1.827-1.867-1.827z" fill="#86A58B"/><path d="M690.785 239.051l1.867 1.827-1.867-1.827z" fill="#80A186"/><path d="M54.133 240.879l-1.867 14.616 1.867-14.616z" fill="#7BABB2"/><path d="M406.999 240.879v1.827h7.468l-7.468-1.827z" fill="#3D6F46"/><path d="M444.339 240.879v1.827h5.601l-5.601-1.827z" fill="#3C6E45"/><path d="M470.477 240.879v1.827h5.601l-5.601-1.827z" fill="#396C42"/><path d="M498.483 240.879v1.827h5.601l-5.601-1.827z" fill="#3C6E45"/><path d="M576.897 240.879v1.827h5.601l-5.601-1.827z" fill="#3B6D44"/><path d="M300.579 242.705v12.79h1.867l-1.867-12.79z" fill="#A0C2C7"/><path d="M39.197 251.841v1.827h9.335l-9.335-1.827z" fill="#C6C6C6"/><path d="M317.382 255.495v1.827h9.335l-9.335-1.827z" fill="#515253"/><path d="M332.318 257.322l1.867 1.827-1.867-1.827z" fill="#A8A8A9"/><path d="M299.334 260.368l.621 1.217-.621-1.217z" fill="#A8C7CC"/><path d="M346.009 269.503l.621 1.217-.621-1.217z" fill="#B6B7B7"/><path d="M583.743 270.72l1.242.608-1.242-.608z" fill="#74987A"/><path d="M491.014 271.939l1.867 1.827-1.867-1.827z" fill="#668D6D"/><path d="M492.881 271.939l-1.867 12.789c-12.619-3.606-26.638 6.858-15.677 19.515 4.88 5.637 14.561 3.536 21.278 4.237v-36.541h-3.734zm87.75 0l-1.867 7.308 7.468-7.308h-5.601z" fill="#fff"/><path d="M632.286 272.547l1.241.608-1.241-.608z" fill="#638B6A"/><path d="M347.254 273.766v7.308h1.867l-1.867-7.308z" fill="#515253"/><path d="M414.467 273.766v34.714h3.734v-12.789c26.222-.232 19.576-21.907-3.734-21.925z" fill="#fff"/><path d="M496.615 273.766v32.887h1.868l-1.868-32.887z" fill="#58835F"/><path d="M629.795 274.984l.621 1.217-.621-1.217z" fill="#BDCEC0"/><path d="M631.04 273.766v3.654h3.734v-3.654h-3.734z" fill="#fff"/><path d="M635.396 274.984l.622 1.217-.622-1.217z" fill="#9DB6A1"/><path d="M412.6 275.593v31.06h1.867l-1.867-31.06z" fill="#B8CABB"/><path d="M433.137 275.593l1.867 1.827-1.867-1.827z" fill="#6F9475"/><path d="M632.286 278.028l1.241.609-1.241-.609z" fill="#B4C7B7"/><path d="M63.468 279.247c-3.46 14.198-14.209 18.15-28.006 18.271v47.504h97.085v-1.827H37.329v-42.023c10.919-.85 35.57-6.682 26.139-21.925z" fill="#191A1B"/><path d="M418.201 279.247v10.962h1.867l-1.867-10.962z" fill="#648C6B"/><path d="M420.068 279.247v1.827h9.335l-9.335-1.827z" fill="#2C6235"/><path d="M575.03 281.074v1.827h9.335l-9.335-1.827z" fill="#B6C9B9"/><path d="M420.068 281.074v9.136c7.214-.549 9.985-1.99 11.202-9.136h-11.202z" fill="#6D9273"/><path d="M436.871 281.074v7.309h1.867l-1.867-7.309z" fill="#678E6E"/><path d="M449.94 281.074v1.827h9.335l-9.335-1.827z" fill="#A1B9A5"/><path d="M479.812 281.074v1.827h7.468l-7.468-1.827z" fill="#B5C8B8"/><path d="M509.684 281.074v1.827h9.335l-9.335-1.827z" fill="#A5BCA9"/><path d="M523.999 281.683l1.241.608-1.241-.608z" fill="#B3C6B6"/><path d="M541.424 281.074v1.827h9.335l-9.335-1.827z" fill="#A7BDAB"/><path d="M557.605 281.683l1.242.608-1.242-.608z" fill="#84A389"/><path d="M604.902 281.074v1.827h9.335l-9.335-1.827z" fill="#A1B9A5"/><path d="M619.838 281.074c-6.697 2.801-16.213.444-20.483 7.579-8.138 13.593 7.3 21.983 18.616 16.173-3.975 7.643-8.487 8.074-16.803 7.308 4.507 6.805 15.782 7.502 20.485-.27 4.511-7.454 3.284-24.203-1.815-30.79z" fill="#fff"/><path d="M632.286 281.683l1.241.608-1.241-.608z" fill="#54805C"/><path d="M649.71 281.074v1.827h9.336l-9.336-1.827z" fill="#A6BDAA"/><path d="M675.849 281.074v1.827h9.335l-9.335-1.827z" fill="#A2BAA6"/><path d="M346.009 284.12l.621 1.217-.621-1.217z" fill="#6E6F6F"/><path d="M446.206 282.901l1.867 1.827-1.867-1.827z" fill="#6D9273"/><path d="M464.876 302.999l-16.803-5.482h18.67c-1.441-12.628-19.538-22.091-23.668-5.446-3.288 13.243 13.762 22.06 21.801 10.928z" fill="#fff"/><path d="M489.147 282.901l1.867 1.827-1.867-1.827z" fill="#86A58B"/><path d="M526.488 308.48l1.867-25.579c-6.021.304-14.742-1.375-20.018 1.88-20.724 12.788 7.88 23.096 18.151 23.699z" fill="#fff"/><path d="M520.886 282.901l1.867 1.827-1.867-1.827z" fill="#688F6F"/><path d="M554.493 306.653l-16.803 5.482c4.389 6.626 16.993 8.011 21.019-.417 3.734-7.824 1.385-20.341 1.385-28.817-6.469.327-16.275-1.646-21.445 2.929-13.528 11.978 3.428 23.608 15.844 20.823z" fill="#fff"/><path d="M560.094 282.901v27.406h1.867l-1.867-27.406z" fill="#608967"/><path d="M571.722 284.779c-13.646 8.136.416 29.442 14.234 21.545 14.264-8.151.237-30.172-14.234-21.545z" fill="#fff"/><path d="M586.232 282.901l1.867 1.827-1.867-1.827z" fill="#6C9272"/><path d="M601.168 282.901l1.867 1.827-1.867-1.827z" fill="#608967"/><path d="M629.174 282.901v23.752h1.867l-1.867-23.752z" fill="#B0C4B3"/><path d="M631.04 282.901v25.579h3.734v-25.579h-3.734z" fill="#fff"/><path d="M634.775 282.901v23.752h1.867l-1.867-23.752z" fill="#90AC95"/><path d="M662.78 302.999c-17.545.879-18.368-15.908 0-14.616-1.806-8.25-16.447-7.672-19.604.051-5.579 13.646 12.869 29.412 19.604 14.565z" fill="#fff"/><path d="M672.115 282.901l1.867 1.827-1.867-1.827z" fill="#88A68D"/><path d="M674.407 284.259c-13.001 5.863-3.859 28.562 10.667 23.11 15.274-5.731 5.989-30.62-10.667-23.11z" fill="#fff"/><path d="M687.051 282.901l1.867 1.827-1.867-1.827z" fill="#99B39D"/><path d="M67.202 284.728c-6.586 10.911-15.116 15.859-28.005 16.444v40.195h93.35c-4.069-25.811-46.783-40.988-65.345-56.639z" fill="#fff"/><path d="M444.339 284.728l1.867 1.827-1.867-1.827z" fill="#8BA990"/><path d="M588.099 284.728l1.867 1.827-1.867-1.827z" fill="#9AB49E"/><path d="M599.301 284.728l1.867 1.827-1.867-1.827z" fill="#719577"/><path d="M623.573 284.728v23.752h1.867l-1.867-23.752z" fill="#20592A"/><path d="M663.402 285.947l.621 1.217-.621-1.217z" fill="#417249"/><path d="M65.335 286.555l1.867 1.827-1.867-1.827z" fill="#A8A8A9"/><path d="M449.94 286.555v1.827h7.468l-7.468-1.827z" fill="#5A8461"/><path d="M481.679 286.555v1.827h5.601l-5.601-1.827z" fill="#43734B"/><path d="M511.552 286.555v1.827h7.468l-7.468-1.827z" fill="#4A7852"/><path d="M543.291 286.555v1.827h7.468l-7.468-1.827z" fill="#4D7B55"/><path d="M576.897 286.555v1.827h5.601l-5.601-1.827z" fill="#45754D"/><path d="M589.966 286.555l1.867 1.827-1.867-1.827z" fill="#648C6B"/><path d="M606.77 286.555v1.827h7.468l-7.468-1.827z" fill="#45754D"/><path d="M642.243 286.555l1.867 1.827-1.867-1.827z" fill="#9EB7A2"/><path d="M651.578 286.555v1.827h5.601l-5.601-1.827z" fill="#43734B"/><path d="M668.381 286.555l1.867 1.827-1.867-1.827z" fill="#88A68D"/><path d="M677.716 286.555v1.827h5.601l-5.601-1.827z" fill="#44744C"/><path d="M214.696 288.382v1.827h9.335l-9.335-1.827z" fill="#48A4B0"/><path d="M448.073 288.382l1.867 1.827-1.867-1.827z" fill="#76997C"/><path d="M448.073 290.209v1.828h11.202v-3.655l-11.202 1.827z" fill="#6D9273"/><path d="M464.876 288.382l1.867 1.827-1.867-1.827z" fill="#90AC95"/><path d="M477.945 288.382l1.867 1.827-1.867-1.827z" fill="#7D9E83"/><path d="M480.933 290.295c-5.389 3.958-1.122 14.694 5.789 10.72 7.259-4.177 1.287-15.92-5.789-10.72z" fill="#6D9273"/><path d="M502.838 289.601l.621 1.217-.621-1.217z" fill="#BECFC1"/><path d="M510.818 290.268c-6.598 5.11 2.537 15.775 8.935 9.768 6.307-5.924-2.334-14.878-8.935-9.768z" fill="#6D9273"/><path d="M534.577 289.601l.622 1.217-.622-1.217z" fill="#BDCEC0"/><path d="M542.557 290.268c-6.598 5.11 2.537 15.775 8.935 9.768 6.307-5.924-2.333-14.878-8.935-9.768z" fill="#6D9273"/><path d="M573.163 288.382l1.867 1.827-1.867-1.827z" fill="#6F9475"/><path d="M576.15 290.295c-5.388 3.958-1.122 14.694 5.79 10.72 7.259-4.177 1.286-15.919-5.79-10.72zm29.886-.027c-6.598 5.11 2.537 15.775 8.935 9.768 6.307-5.924-2.334-14.878-8.935-9.768z" fill="#6D9273"/><path d="M647.844 288.382l1.866 1.827-1.866-1.827z" fill="#A1B9A5"/><path d="M660.291 288.991l1.241.608-1.241-.608z" fill="#3F7048"/><path d="M676.969 290.295c-6.144 4.515.258 15.814 7.095 10.791 6.144-4.515-.258-15.813-7.095-10.791z" fill="#6D9273"/><path d="M685.184 288.382l1.867 1.827-1.867-1.827z" fill="#93AF98"/><path d="M341.653 290.209l1.867 1.828-1.867-1.828z" fill="#6F7070"/><path d="M435.004 290.209l1.867 1.828-1.867-1.828z" fill="#7C9E82"/><path d="M459.275 290.209l1.867 1.828-1.867-1.828z" fill="#5F8866"/><path d="M470.477 290.209v9.136h1.867l-1.867-9.136z" fill="#B9CBBC"/><path d="M591.833 290.209v9.136h1.867l-1.867-9.136z" fill="#95B09A"/><path d="M640.375 290.209v9.136h1.868l-1.868-9.136z" fill="#B9CBBC"/><path d="M666.514 290.209v9.136h1.867l-1.867-9.136z" fill="#B7C9BA"/><path d="M692.652 290.209v9.136h1.867l-1.867-9.136z" fill="#D5E0D7"/><path d="M61.6 292.036l1.868 1.827-1.867-1.827z" fill="#A8A8A9"/><path d="M339.786 292.036l1.867 1.827-1.867-1.827z" fill="#6F7070"/><path d="M440.605 292.036v7.308h1.867l-1.867-7.308z" fill="#7E9F84"/><path d="M448.073 292.036v1.827h13.069l-13.069-1.827z" fill="#D4DFD6"/><path d="M476.078 292.036v7.308h1.867l-1.867-7.308z" fill="#55815D"/><path d="M571.296 292.036v7.308h1.867l-1.867-7.308z" fill="#386B41"/><path d="M586.232 292.036v5.481h1.867l-1.867-5.481z" fill="#9DB6A1"/><path d="M595.567 292.036v5.481h1.867l-1.867-5.481z" fill="#43734B"/><path d="M645.977 292.036v5.481h1.867l-1.867-5.481z" fill="#75987B"/><path d="M672.115 292.036v5.481h1.867l-1.867-5.481z" fill="#789B7E"/><path d="M687.051 292.036v7.308h1.867l-1.867-7.308z" fill="#5D8764"/><path d="M59.734 293.864l1.867 1.827-1.867-1.827z" fill="#A8A8A9"/><path d="M431.27 293.864l1.867 1.827-1.867-1.827z" fill="#7FA085"/><path d="M332.318 295.691l1.867 1.827-1.867-1.827z" fill="#A9A9AA"/><path d="M418.201 295.691v10.962h1.867l-1.867-10.962z" fill="#648C6B"/><path d="M420.068 295.691v1.827h9.335l-9.335-1.827z" fill="#3C6E45"/><path d="M54.133 297.518L56 299.345l-1.867-1.827z" fill="#8B8C8C"/><path d="M317.382 297.518v1.827h9.335l-9.335-1.827z" fill="#525354"/><path d="M44.798 299.345v1.827h5.6l-5.6-1.827z" fill="#515253"/><path d="M448.073 299.345l1.867 1.827-1.867-1.827z" fill="#658C6C"/><path d="M489.147 299.345l1.867 1.827-1.867-1.827z" fill="#86A58B"/><path d="M502.216 299.345l1.867 1.827-1.867-1.827z" fill="#96B19A"/><path d="M533.956 299.345l1.867 1.827-1.867-1.827z" fill="#94AF99"/><path d="M552.626 299.345l1.867 1.827-1.867-1.827z" fill="#87A68C"/><path d="M565.695 299.345l1.867 1.827-1.867-1.827z" fill="#8AA88F"/><path d="M584.365 299.345l1.867 1.827-1.867-1.827z" fill="#688F6F"/><path d="M603.035 299.345l1.867 1.827-1.867-1.827z" fill="#94AF99"/><path d="M37.33 301.172v42.023h1.867l-1.867-42.023z" fill="#8B8C8C"/><path d="M203.494 301.172v1.827h7.468l-7.468-1.827z" fill="#3E8D98"/><path d="M449.94 301.172l1.867 1.827-1.867-1.827z" fill="#6D9273"/><path d="M462.387 301.781l1.242.608-1.242-.608z" fill="#B2C6B5"/><path d="M487.281 301.172l1.867 1.827-1.867-1.827z" fill="#719577"/><path d="M550.759 301.172l1.867 1.827-1.867-1.827z" fill="#789B7E"/><path d="M582.498 301.172l1.867 1.827-1.867-1.827z" fill="#658C6C"/><path d="M597.434 301.172l1.867 1.827-1.867-1.827z" fill="#709576"/><path d="M604.902 301.172l1.867 1.827-1.867-1.827z" fill="#80A186"/><path d="M660.291 301.781l1.241.608-1.241-.608z" fill="#A5BCA9"/><path d="M454.919 303.607l1.242.609-1.242-.609z" fill="#BECFC1"/><path d="M482.925 303.607l1.241.609-1.241-.609z" fill="#BBCCBE"/><path d="M504.083 302.999l1.867 1.827-1.867-1.827z" fill="#96B19A"/><path d="M514.664 303.607l1.241.609-1.241-.609z" fill="#C0D0C3"/><path d="M535.823 302.999l1.867 1.827-1.867-1.827z" fill="#90AC95"/><path d="M546.403 303.607l1.241.609-1.241-.609z" fill="#BCCDBF"/><path d="M567.562 302.999l1.867 1.827-1.867-1.827z" fill="#739779"/><path d="M578.142 303.607l1.242.609-1.242-.609z" fill="#BDCEC0"/><path d="M609.882 303.607l1.241.609-1.241-.609z" fill="#C3D2C5"/><path d="M651.578 302.999v1.827h5.601l-5.601-1.827z" fill="#B9CBBC"/><path d="M663.402 304.218l.621 1.216-.621-1.216z" fill="#4A7852"/><path d="M474.211 304.826l1.867 1.827-1.867-1.827z" fill="#7C9E82"/><path d="M569.429 304.826l1.867 1.827-1.867-1.827z" fill="#83A388"/><path d="M616.104 304.826l1.867 1.827-1.867-1.827z" fill="#99B39D"/><path d="M644.11 304.826l1.867 1.827-1.867-1.827z" fill="#779A7D"/><path d="M688.918 304.826l1.867 1.827-1.867-1.827z" fill="#658C6C"/><path d="M448.073 306.653l1.867 1.827-1.867-1.827z" fill="#88A68D"/><path d="M461.142 306.653l1.867 1.827-1.867-1.827z" fill="#698F70"/><path d="M487.281 306.653l1.867 1.827-1.867-1.827z" fill="#92AE97"/><path d="M491.014 306.653l1.867 1.827-1.867-1.827z" fill="#638B6A"/><path d="M507.817 306.653l1.867 1.827-1.867-1.827zm11.203 0l1.867 1.827-1.867-1.827z" fill="#6E9374"/><path d="M526.488 306.653l1.867 1.827-1.867-1.827z" fill="#90AC95"/><path d="M539.557 306.653l1.867 1.827-1.867-1.827z" fill="#648C6B"/><path d="M550.759 306.653l1.867 1.827-1.867-1.827z" fill="#76997C"/><path d="M584.365 306.653l1.867 1.827-1.867-1.827z" fill="#8AA88F"/><path d="M603.035 306.653l1.867 1.827-1.867-1.827z" fill="#84A389"/><path d="M103.92 309.088l1.243.609-1.243-.609z" fill="#8AB4BA"/><path d="M511.552 308.48v1.827h5.601l-5.601-1.827zm65.345 0v1.827h5.601l-5.601-1.827z" fill="#3B6D44"/><path d="M606.77 308.48v1.827h5.601l-5.601-1.827z" fill="#3C6E45"/><path d="M651.578 308.48v1.827h5.601l-5.601-1.827z" fill="#3E7047"/><path d="M677.716 308.48v1.827h5.601l-5.601-1.827z" fill="#3C6E45"/><path d="M538.935 310.916l1.241.608-1.241-.608z" fill="#87A68C"/><path d="M602.414 310.916l1.241.608-1.241-.608z" fill="#76997C"/><path d="M175.489 312.134v1.827h5.601l-5.601-1.827zm18.67 0v1.827h5.601l-5.601-1.827z" fill="#3C8994"/><path d="M536.444 313.353l.622 1.217-.622-1.217z" fill="#497851"/><path d="M545.158 312.134v1.827h5.601l-5.601-1.827z" fill="#94AF99"/><path d="M558.227 312.134l1.867 1.827-1.867-1.827z" fill="#789B7E"/><path d="M599.923 313.353l.621 1.217-.621-1.217z" fill="#89A78E"/><path d="M606.77 312.134v1.827h7.468l-7.468-1.827z" fill="#9BB59F"/><path d="M619.838 313.961l1.867 1.827-1.867-1.827z" fill="#688F6F"/><path d="M601.168 315.789l1.867 1.827-1.867-1.827z" fill="#81A186"/><path d="M543.291 317.616v1.827h7.468l-7.468-1.827z" fill="#5C8663"/><path d="M606.77 317.616v1.827h7.468l-7.468-1.827z" fill="#618968"/><path d="M145.617 350.503c2.345 7.54 5.893 8.739 13.069 5.481 1.216 7.146 3.987 8.588 11.202 9.136v-21.925l-11.202 1.827c-1.402-7.895-5.472-8.688-13.069-7.308-4.019-23.546-26.84 18.641 0 12.789zm65.345-12.789c-7.597-1.38-11.667-.587-13.069 7.308l-11.202-1.827v21.925c7.214-.548 9.985-1.99 11.202-9.136 7.177 3.258 10.724 2.059 13.069-5.481 26.84 5.852 4.018-36.335 0-12.789z" fill="#FAB226"/><path d="M39.197 341.367v1.827h93.35c-24.065-9.882-67.12-1.827-93.35-1.827z" fill="#C6C6C6"/><path d="M163.665 341.976l1.242.608-1.242-.608z" fill="#9EBE88"/><path d="M188.558 341.368v1.827h5.601l-5.601-1.827z" fill="#94BF93"/><path d="M169.888 346.849v16.444h1.867l-1.867-16.444zm14.936 0v16.444h1.867l-1.867-16.444z" fill="#BC961F"/><path d="M156.819 355.984l1.867 5.481-1.867-5.481zm41.074 0v5.481l3.734-1.827v-1.827l-3.734-1.827z" fill="#3F5E12"/><path d="M162.42 365.12v1.827h5.601l-5.601-1.827zm26.138 0v1.827h5.601l-5.601-1.827z" fill="#6A7117"/></svg>
